0
SECTION
2
HEADER
9
$INSUNITS
70
4
0
ENDSEC
0
SECTION
2
ENTITIES
0
POLYLINE
8
LEVA
66
1
70
1
0
VERTEX
8
LEVA
10
-60.674800000
20
-9.326000000
30
0.0
0
VERTEX
8
LEVA
10
-60.782000000
20
-8.749900000
30
0.0
0
VERTEX
8
LEVA
10
-60.885600000
20
-8.173000000
30
0.0
0
VERTEX
8
LEVA
10
-60.985800000
20
-7.595500000
30
0.0
0
VERTEX
8
LEVA
10
-61.082400000
20
-7.017300000
30
0.0
0
VERTEX
8
LEVA
10
-61.175500000
20
-6.438400000
30
0.0
0
VERTEX
8
LEVA
10
-61.265100000
20
-5.858900000
30
0.0
0
VERTEX
8
LEVA
10
-61.351200000
20
-5.278700000
30
0.0
0
VERTEX
8
LEVA
10
-61.433800000
20
-4.697900000
30
0.0
0
VERTEX
8
LEVA
10
-61.512900000
20
-4.116500000
30
0.0
0
VERTEX
8
LEVA
10
-61.588400000
20
-3.534400000
30
0.0
0
VERTEX
8
LEVA
10
-61.660400000
20
-2.951600000
30
0.0
0
VERTEX
8
LEVA
10
-61.728900000
20
-2.368300000
30
0.0
0
VERTEX
8
LEVA
10
-61.793900000
20
-1.784300000
30
0.0
0
VERTEX
8
LEVA
10
-61.855400000
20
-1.199700000
30
0.0
0
VERTEX
8
LEVA
10
-61.913300000
20
-0.614500000
30
0.0
0
VERTEX
8
LEVA
10
-61.967600000
20
-0.028700000
30
0.0
0
VERTEX
8
LEVA
10
-62.018500000
20
0.557600000
30
0.0
0
VERTEX
8
LEVA
10
-62.065700000
20
1.144600000
30
0.0
0
VERTEX
8
LEVA
10
-62.109500000
20
1.732200000
30
0.0
0
VERTEX
8
LEVA
10
-62.149600000
20
2.320400000
30
0.0
0
VERTEX
8
LEVA
10
-62.186300000
20
2.909100000
30
0.0
0
VERTEX
8
LEVA
10
-62.219300000
20
3.498400000
30
0.0
0
VERTEX
8
LEVA
10
-62.248800000
20
4.088300000
30
0.0
0
VERTEX
8
LEVA
10
-62.274700000
20
4.678700000
30
0.0
0
VERTEX
8
LEVA
10
-62.297000000
20
5.269700000
30
0.0
0
VERTEX
8
LEVA
10
-62.315700000
20
5.861200000
30
0.0
0
VERTEX
8
LEVA
10
-62.330800000
20
6.453300000
30
0.0
0
VERTEX
8
LEVA
10
-62.342300000
20
7.045900000
30
0.0
0
VERTEX
8
LEVA
10
-62.350200000
20
7.639000000
30
0.0
0
VERTEX
8
LEVA
10
-62.354400000
20
8.232700000
30
0.0
0
VERTEX
8
LEVA
10
-62.355100000
20
8.826900000
30
0.0
0
VERTEX
8
LEVA
10
-62.352100000
20
9.421500000
30
0.0
0
VERTEX
8
LEVA
10
-62.345400000
20
10.016700000
30
0.0
0
VERTEX
8
LEVA
10
-62.335100000
20
10.612400000
30
0.0
0
VERTEX
8
LEVA
10
-62.321200000
20
11.208600000
30
0.0
0
VERTEX
8
LEVA
10
-62.303500000
20
11.805300000
30
0.0
0
VERTEX
8
LEVA
10
-62.282200000
20
12.402400000
30
0.0
0
VERTEX
8
LEVA
10
-62.257200000
20
13.000000000
30
0.0
0
VERTEX
8
LEVA
10
-62.228500000
20
13.598100000
30
0.0
0
VERTEX
8
LEVA
10
-62.196000000
20
14.196600000
30
0.0
0
VERTEX
8
LEVA
10
-62.159900000
20
14.795600000
30
0.0
0
VERTEX
8
LEVA
10
-62.120000000
20
15.395000000
30
0.0
0
VERTEX
8
LEVA
10
-62.076300000
20
15.994900000
30
0.0
0
VERTEX
8
LEVA
10
-62.029000000
20
16.595100000
30
0.0
0
VERTEX
8
LEVA
10
-61.977800000
20
17.195800000
30
0.0
0
VERTEX
8
LEVA
10
-61.922900000
20
17.796900000
30
0.0
0
VERTEX
8
LEVA
10
-61.864100000
20
18.398400000
30
0.0
0
VERTEX
8
LEVA
10
-61.801600000
20
19.000300000
30
0.0
0
VERTEX
8
LEVA
10
-61.735200000
20
19.602600000
30
0.0
0
VERTEX
8
LEVA
10
-61.665100000
20
20.205200000
30
0.0
0
VERTEX
8
LEVA
10
-61.591000000
20
20.808200000
30
0.0
0
VERTEX
8
LEVA
10
-61.513200000
20
21.411600000
30
0.0
0
VERTEX
8
LEVA
10
-61.431400000
20
22.015300000
30
0.0
0
VERTEX
8
LEVA
10
-61.345800000
20
22.619300000
30
0.0
0
VERTEX
8
LEVA
10
-61.256300000
20
23.223700000
30
0.0
0
VERTEX
8
LEVA
10
-61.162900000
20
23.828400000
30
0.0
0
VERTEX
8
LEVA
10
-61.065500000
20
24.433400000
30
0.0
0
VERTEX
8
LEVA
10
-60.964300000
20
25.038600000
30
0.0
0
VERTEX
8
LEVA
10
-60.859000000
20
25.644200000
30
0.0
0
VERTEX
8
LEVA
10
-60.749900000
20
26.250000000
30
0.0
0
VERTEX
8
LEVA
10
-60.636700000
20
26.856100000
30
0.0
0
VERTEX
8
LEVA
10
-60.519500000
20
27.462400000
30
0.0
0
VERTEX
8
LEVA
10
-60.398300000
20
28.069000000
30
0.0
0
VERTEX
8
LEVA
10
-60.273200000
20
28.675800000
30
0.0
0
VERTEX
8
LEVA
10
-60.143900000
20
29.282800000
30
0.0
0
VERTEX
8
LEVA
10
-60.010600000
20
29.890000000
30
0.0
0
VERTEX
8
LEVA
10
-59.873300000
20
30.497400000
30
0.0
0
VERTEX
8
LEVA
10
-59.731800000
20
31.104900000
30
0.0
0
VERTEX
8
LEVA
10
-59.586300000
20
31.712700000
30
0.0
0
VERTEX
8
LEVA
10
-59.436600000
20
32.320500000
30
0.0
0
VERTEX
8
LEVA
10
-59.282800000
20
32.928500000
30
0.0
0
VERTEX
8
LEVA
10
-59.124900000
20
33.536600000
30
0.0
0
VERTEX
8
LEVA
10
-58.962800000
20
34.144800000
30
0.0
0
VERTEX
8
LEVA
10
-58.796500000
20
34.753100000
30
0.0
0
VERTEX
8
LEVA
10
-58.626000000
20
35.361500000
30
0.0
0
VERTEX
8
LEVA
10
-58.451300000
20
35.969900000
30
0.0
0
VERTEX
8
LEVA
10
-58.272300000
20
36.578300000
30
0.0
0
VERTEX
8
LEVA
10
-58.089100000
20
37.186800000
30
0.0
0
VERTEX
8
LEVA
10
-57.901700000
20
37.795300000
30
0.0
0
VERTEX
8
LEVA
10
-57.709900000
20
38.403800000
30
0.0
0
VERTEX
8
LEVA
10
-57.513800000
20
39.012200000
30
0.0
0
VERTEX
8
LEVA
10
-57.313500000
20
39.620600000
30
0.0
0
VERTEX
8
LEVA
10
-57.108800000
20
40.228900000
30
0.0
0
VERTEX
8
LEVA
10
-56.899700000
20
40.837200000
30
0.0
0
VERTEX
8
LEVA
10
-56.686300000
20
41.445400000
30
0.0
0
VERTEX
8
LEVA
10
-56.468400000
20
42.053400000
30
0.0
0
VERTEX
8
LEVA
10
-56.246200000
20
42.661300000
30
0.0
0
VERTEX
8
LEVA
10
-56.019500000
20
43.269000000
30
0.0
0
VERTEX
8
LEVA
10
-55.788400000
20
43.876600000
30
0.0
0
VERTEX
8
LEVA
10
-55.552900000
20
44.484000000
30
0.0
0
VERTEX
8
LEVA
10
-55.312800000
20
45.091100000
30
0.0
0
VERTEX
8
LEVA
10
-55.068300000
20
45.698000000
30
0.0
0
VERTEX
8
LEVA
10
-54.819200000
20
46.304700000
30
0.0
0
VERTEX
8
LEVA
10
-54.565700000
20
46.911000000
30
0.0
0
VERTEX
8
LEVA
10
-54.307500000
20
47.517100000
30
0.0
0
VERTEX
8
LEVA
10
-54.044800000
20
48.122800000
30
0.0
0
VERTEX
8
LEVA
10
-53.777500000
20
48.728200000
30
0.0
0
VERTEX
8
LEVA
10
-53.505600000
20
49.333200000
30
0.0
0
VERTEX
8
LEVA
10
-53.229100000
20
49.937900000
30
0.0
0
VERTEX
8
LEVA
10
-52.947900000
20
50.542100000
30
0.0
0
VERTEX
8
LEVA
10
-52.662100000
20
51.145800000
30
0.0
0
VERTEX
8
LEVA
10
-52.371600000
20
51.749100000
30
0.0
0
VERTEX
8
LEVA
10
-52.076400000
20
52.351900000
30
0.0
0
VERTEX
8
LEVA
10
-51.776500000
20
52.954200000
30
0.0
0
VERTEX
8
LEVA
10
-51.471900000
20
53.555900000
30
0.0
0
VERTEX
8
LEVA
10
-51.162500000
20
54.157000000
30
0.0
0
VERTEX
8
LEVA
10
-50.848300000
20
54.757600000
30
0.0
0
VERTEX
8
LEVA
10
-50.529400000
20
55.357500000
30
0.0
0
VERTEX
8
LEVA
10
-50.205600000
20
55.956800000
30
0.0
0
VERTEX
8
LEVA
10
-49.877100000
20
56.555400000
30
0.0
0
VERTEX
8
LEVA
10
-49.543700000
20
57.153300000
30
0.0
0
VERTEX
8
LEVA
10
-49.205400000
20
57.750500000
30
0.0
0
VERTEX
8
LEVA
10
-48.862300000
20
58.346900000
30
0.0
0
VERTEX
8
LEVA
10
-48.514300000
20
58.942500000
30
0.0
0
VERTEX
8
LEVA
10
-48.161400000
20
59.537300000
30
0.0
0
VERTEX
8
LEVA
10
-47.803600000
20
60.131200000
30
0.0
0
VERTEX
8
LEVA
10
-47.440800000
20
60.724200000
30
0.0
0
VERTEX
8
LEVA
10
-47.073100000
20
61.316400000
30
0.0
0
VERTEX
8
LEVA
10
-46.700400000
20
61.907600000
30
0.0
0
VERTEX
8
LEVA
10
-46.322700000
20
62.497800000
30
0.0
0
VERTEX
8
LEVA
10
-45.940000000
20
63.086900000
30
0.0
0
VERTEX
8
LEVA
10
-45.552200000
20
63.675100000
30
0.0
0
VERTEX
8
LEVA
10
-45.159500000
20
64.262200000
30
0.0
0
VERTEX
8
LEVA
10
-44.761700000
20
64.848100000
30
0.0
0
VERTEX
8
LEVA
10
-44.358800000
20
65.433000000
30
0.0
0
VERTEX
8
LEVA
10
-43.950800000
20
66.016600000
30
0.0
0
VERTEX
8
LEVA
10
-43.537800000
20
66.599000000
30
0.0
0
VERTEX
8
LEVA
10
-43.119600000
20
67.180200000
30
0.0
0
VERTEX
8
LEVA
10
-42.696300000
20
67.760100000
30
0.0
0
VERTEX
8
LEVA
10
-42.267800000
20
68.338700000
30
0.0
0
VERTEX
8
LEVA
10
-41.834200000
20
68.916000000
30
0.0
0
VERTEX
8
LEVA
10
-41.395400000
20
69.491800000
30
0.0
0
VERTEX
8
LEVA
10
-40.951500000
20
70.066200000
30
0.0
0
VERTEX
8
LEVA
10
-40.502300000
20
70.639200000
30
0.0
0
VERTEX
8
LEVA
10
-40.047900000
20
71.210700000
30
0.0
0
VERTEX
8
LEVA
10
-39.588300000
20
71.780600000
30
0.0
0
VERTEX
8
LEVA
10
-39.123400000
20
72.348900000
30
0.0
0
VERTEX
8
LEVA
10
-38.653300000
20
72.915700000
30
0.0
0
VERTEX
8
LEVA
10
-38.177900000
20
73.480700000
30
0.0
0
VERTEX
8
LEVA
10
-37.697300000
20
74.044100000
30
0.0
0
VERTEX
8
LEVA
10
-37.211300000
20
74.605800000
30
0.0
0
VERTEX
8
LEVA
10
-36.720000000
20
75.165600000
30
0.0
0
VERTEX
8
LEVA
10
-36.223500000
20
75.723700000
30
0.0
0
VERTEX
8
LEVA
10
-35.721600000
20
76.279900000
30
0.0
0
VERTEX
8
LEVA
10
-35.214300000
20
76.834200000
30
0.0
0
VERTEX
8
LEVA
10
-34.701800000
20
77.386600000
30
0.0
0
VERTEX
8
LEVA
10
-34.183800000
20
77.936900000
30
0.0
0
VERTEX
8
LEVA
10
-33.660500000
20
78.485300000
30
0.0
0
VERTEX
8
LEVA
10
-33.131800000
20
79.031600000
30
0.0
0
VERTEX
8
LEVA
10
-32.597800000
20
79.575800000
30
0.0
0
VERTEX
8
LEVA
10
-32.058300000
20
80.117800000
30
0.0
0
VERTEX
8
LEVA
10
-31.513400000
20
80.657600000
30
0.0
0
VERTEX
8
LEVA
10
-30.963100000
20
81.195200000
30
0.0
0
VERTEX
8
LEVA
10
-30.407400000
20
81.730500000
30
0.0
0
VERTEX
8
LEVA
10
-29.846300000
20
82.263400000
30
0.0
0
VERTEX
8
LEVA
10
-29.279700000
20
82.794000000
30
0.0
0
VERTEX
8
LEVA
10
-28.707700000
20
83.322200000
30
0.0
0
VERTEX
8
LEVA
10
-28.130200000
20
83.847900000
30
0.0
0
VERTEX
8
LEVA
10
-27.547300000
20
84.371000000
30
0.0
0
VERTEX
8
LEVA
10
-26.959000000
20
84.891700000
30
0.0
0
VERTEX
8
LEVA
10
-26.365100000
20
85.409700000
30
0.0
0
VERTEX
8
LEVA
10
-25.765800000
20
85.925000000
30
0.0
0
VERTEX
8
LEVA
10
-25.161000000
20
86.437600000
30
0.0
0
VERTEX
8
LEVA
10
-24.550700000
20
86.947500000
30
0.0
0
VERTEX
8
LEVA
10
-23.935000000
20
87.454600000
30
0.0
0
VERTEX
8
LEVA
10
-23.313700000
20
87.958900000
30
0.0
0
VERTEX
8
LEVA
10
-22.687000000
20
88.460200000
30
0.0
0
VERTEX
8
LEVA
10
-22.054800000
20
88.958600000
30
0.0
0
VERTEX
8
LEVA
10
-21.417100000
20
89.454000000
30
0.0
0
VERTEX
8
LEVA
10
-20.773900000
20
89.946300000
30
0.0
0
VERTEX
8
LEVA
10
-20.125100000
20
90.435600000
30
0.0
0
VERTEX
8
LEVA
10
-19.470900000
20
90.921600000
30
0.0
0
VERTEX
8
LEVA
10
-18.811200000
20
91.404500000
30
0.0
0
VERTEX
8
LEVA
10
-18.146000000
20
91.884200000
30
0.0
0
VERTEX
8
LEVA
10
-17.475300000
20
92.360500000
30
0.0
0
VERTEX
8
LEVA
10
-16.799200000
20
92.833500000
30
0.0
0
VERTEX
8
LEVA
10
-16.117500000
20
93.303100000
30
0.0
0
VERTEX
8
LEVA
10
-15.430300000
20
93.769200000
30
0.0
0
VERTEX
8
LEVA
10
-14.737700000
20
94.231900000
30
0.0
0
VERTEX
8
LEVA
10
-14.039500000
20
94.690900000
30
0.0
0
VERTEX
8
LEVA
10
-13.335900000
20
95.146400000
30
0.0
0
VERTEX
8
LEVA
10
-12.626800000
20
95.598200000
30
0.0
0
VERTEX
8
LEVA
10
-11.912200000
20
96.046200000
30
0.0
0
VERTEX
8
LEVA
10
-11.192200000
20
96.490500000
30
0.0
0
VERTEX
8
LEVA
10
-10.466700000
20
96.930900000
30
0.0
0
VERTEX
8
LEVA
10
-9.735700000
20
97.367500000
30
0.0
0
VERTEX
8
LEVA
10
-8.999300000
20
97.800200000
30
0.0
0
VERTEX
8
LEVA
10
-8.257500000
20
98.228800000
30
0.0
0
VERTEX
8
LEVA
10
-7.510200000
20
98.653400000
30
0.0
0
VERTEX
8
LEVA
10
-6.757500000
20
99.073900000
30
0.0
0
VERTEX
8
LEVA
10
-5.999400000
20
99.490300000
30
0.0
0
VERTEX
8
LEVA
10
-5.235900000
20
99.902400000
30
0.0
0
VERTEX
8
LEVA
10
-4.467000000
20
100.310300000
30
0.0
0
VERTEX
8
LEVA
10
-3.692700000
20
100.713800000
30
0.0
0
VERTEX
8
LEVA
10
-2.913100000
20
101.113000000
30
0.0
0
VERTEX
8
LEVA
10
-2.128000000
20
101.507800000
30
0.0
0
VERTEX
8
LEVA
10
-1.337700000
20
101.898000000
30
0.0
0
VERTEX
8
LEVA
10
-0.542000000
20
102.283800000
30
0.0
0
VERTEX
8
LEVA
10
0.259100000
20
102.664900000
30
0.0
0
VERTEX
8
LEVA
10
1.065400000
20
103.041300000
30
0.0
0
VERTEX
8
LEVA
10
1.877000000
20
103.413100000
30
0.0
0
VERTEX
8
LEVA
10
2.693900000
20
103.780100000
30
0.0
0
VERTEX
8
LEVA
10
3.516100000
20
104.142200000
30
0.0
0
VERTEX
8
LEVA
10
4.343500000
20
104.499500000
30
0.0
0
VERTEX
8
LEVA
10
5.176100000
20
104.851900000
30
0.0
0
VERTEX
8
LEVA
10
6.013900000
20
105.199200000
30
0.0
0
VERTEX
8
LEVA
10
6.857000000
20
105.541500000
30
0.0
0
VERTEX
8
LEVA
10
7.705200000
20
105.878700000
30
0.0
0
VERTEX
8
LEVA
10
8.558500000
20
106.210700000
30
0.0
0
VERTEX
8
LEVA
10
9.417000000
20
106.537500000
30
0.0
0
VERTEX
8
LEVA
10
10.280600000
20
106.859000000
30
0.0
0
VERTEX
8
LEVA
10
11.149300000
20
107.175200000
30
0.0
0
VERTEX
8
LEVA
10
12.023000000
20
107.485900000
30
0.0
0
VERTEX
8
LEVA
10
12.901800000
20
107.791300000
30
0.0
0
VERTEX
8
LEVA
10
13.785600000
20
108.091100000
30
0.0
0
VERTEX
8
LEVA
10
14.674500000
20
108.385300000
30
0.0
0
VERTEX
8
LEVA
10
15.568200000
20
108.673900000
30
0.0
0
VERTEX
8
LEVA
10
16.467000000
20
108.956900000
30
0.0
0
VERTEX
8
LEVA
10
17.370600000
20
109.234100000
30
0.0
0
VERTEX
8
LEVA
10
18.279200000
20
109.505500000
30
0.0
0
VERTEX
8
LEVA
10
19.192600000
20
109.771000000
30
0.0
0
VERTEX
8
LEVA
10
20.110900000
20
110.030700000
30
0.0
0
VERTEX
8
LEVA
10
21.033900000
20
110.284300000
30
0.0
0
VERTEX
8
LEVA
10
21.961800000
20
110.531900000
30
0.0
0
VERTEX
8
LEVA
10
22.894400000
20
110.773500000
30
0.0
0
VERTEX
8
LEVA
10
23.831700000
20
111.008900000
30
0.0
0
VERTEX
8
LEVA
10
24.773700000
20
111.238100000
30
0.0
0
VERTEX
8
LEVA
10
25.720400000
20
111.461100000
30
0.0
0
VERTEX
8
LEVA
10
26.671700000
20
111.677700000
30
0.0
0
VERTEX
8
LEVA
10
27.627600000
20
111.888000000
30
0.0
0
VERTEX
8
LEVA
10
28.588100000
20
112.091800000
30
0.0
0
VERTEX
8
LEVA
10
29.553100000
20
112.289200000
30
0.0
0
VERTEX
8
LEVA
10
30.522600000
20
112.480000000
30
0.0
0
VERTEX
8
LEVA
10
31.496500000
20
112.664200000
30
0.0
0
VERTEX
8
LEVA
10
32.474800000
20
112.841800000
30
0.0
0
VERTEX
8
LEVA
10
33.457600000
20
113.012700000
30
0.0
0
VERTEX
8
LEVA
10
34.444700000
20
113.176800000
30
0.0
0
VERTEX
8
LEVA
10
35.436100000
20
113.334100000
30
0.0
0
VERTEX
8
LEVA
10
36.431700000
20
113.484500000
30
0.0
0
VERTEX
8
LEVA
10
37.431600000
20
113.627900000
30
0.0
0
VERTEX
8
LEVA
10
38.435700000
20
113.764400000
30
0.0
0
VERTEX
8
LEVA
10
39.443900000
20
113.893900000
30
0.0
0
VERTEX
8
LEVA
10
40.456200000
20
114.016200000
30
0.0
0
VERTEX
8
LEVA
10
41.472600000
20
114.131400000
30
0.0
0
VERTEX
8
LEVA
10
42.493000000
20
114.239400000
30
0.0
0
VERTEX
8
LEVA
10
43.517400000
20
114.340100000
30
0.0
0
VERTEX
8
LEVA
10
44.545700000
20
114.433500000
30
0.0
0
VERTEX
8
LEVA
10
45.577900000
20
114.519500000
30
0.0
0
VERTEX
8
LEVA
10
46.614000000
20
114.598100000
30
0.0
0
VERTEX
8
LEVA
10
47.653800000
20
114.669200000
30
0.0
0
VERTEX
8
LEVA
10
48.697400000
20
114.732800000
30
0.0
0
VERTEX
8
LEVA
10
49.744700000
20
114.788800000
30
0.0
0
VERTEX
8
LEVA
10
50.795700000
20
114.837200000
30
0.0
0
VERTEX
8
LEVA
10
51.850300000
20
114.877900000
30
0.0
0
VERTEX
8
LEVA
10
52.908400000
20
114.910800000
30
0.0
0
VERTEX
8
LEVA
10
53.970000000
20
114.936000000
30
0.0
0
VERTEX
8
LEVA
10
55.035100000
20
114.953300000
30
0.0
0
VERTEX
8
LEVA
10
56.103600000
20
114.962700000
30
0.0
0
VERTEX
8
LEVA
10
57.175400000
20
114.964200000
30
0.0
0
VERTEX
8
LEVA
10
58.250600000
20
114.957600000
30
0.0
0
VERTEX
8
LEVA
10
59.329000000
20
114.943000000
30
0.0
0
VERTEX
8
LEVA
10
60.410500000
20
114.920300000
30
0.0
0
VERTEX
8
LEVA
10
61.495300000
20
114.889500000
30
0.0
0
VERTEX
8
LEVA
10
62.583100000
20
114.850500000
30
0.0
0
VERTEX
8
LEVA
10
63.673900000
20
114.803200000
30
0.0
0
VERTEX
8
LEVA
10
64.767700000
20
114.747600000
30
0.0
0
VERTEX
8
LEVA
10
65.864400000
20
114.683600000
30
0.0
0
VERTEX
8
LEVA
10
66.964000000
20
114.611300000
30
0.0
0
VERTEX
8
LEVA
10
68.066400000
20
114.530600000
30
0.0
0
VERTEX
8
LEVA
10
69.171500000
20
114.441300000
30
0.0
0
VERTEX
8
LEVA
10
70.279300000
20
114.343500000
30
0.0
0
VERTEX
8
LEVA
10
71.389700000
20
114.237200000
30
0.0
0
VERTEX
8
LEVA
10
72.502700000
20
114.122200000
30
0.0
0
VERTEX
8
LEVA
10
73.618200000
20
113.998500000
30
0.0
0
VERTEX
8
LEVA
10
74.736100000
20
113.866100000
30
0.0
0
VERTEX
8
LEVA
10
75.856400000
20
113.725000000
30
0.0
0
VERTEX
8
LEVA
10
76.979000000
20
113.575000000
30
0.0
0
VERTEX
8
LEVA
10
78.103800000
20
113.416200000
30
0.0
0
VERTEX
8
LEVA
10
79.230900000
20
113.248600000
30
0.0
0
VERTEX
8
LEVA
10
80.360000000
20
113.071900000
30
0.0
0
VERTEX
8
LEVA
10
81.491200000
20
112.886300000
30
0.0
0
VERTEX
8
LEVA
10
82.624400000
20
112.691700000
30
0.0
0
VERTEX
8
LEVA
10
83.759500000
20
112.488000000
30
0.0
0
VERTEX
8
LEVA
10
84.896500000
20
112.275200000
30
0.0
0
VERTEX
8
LEVA
10
86.035300000
20
112.053300000
30
0.0
0
VERTEX
8
LEVA
10
87.175700000
20
111.822200000
30
0.0
0
VERTEX
8
LEVA
10
88.317900000
20
111.581900000
30
0.0
0
VERTEX
8
LEVA
10
89.461600000
20
111.332300000
30
0.0
0
VERTEX
8
LEVA
10
90.606800000
20
111.073400000
30
0.0
0
VERTEX
8
LEVA
10
91.753400000
20
110.805100000
30
0.0
0
VERTEX
8
LEVA
10
92.901500000
20
110.527500000
30
0.0
0
VERTEX
8
LEVA
10
94.050800000
20
110.240500000
30
0.0
0
VERTEX
8
LEVA
10
95.201300000
20
109.944100000
30
0.0
0
VERTEX
8
LEVA
10
96.353000000
20
109.638100000
30
0.0
0
VERTEX
8
LEVA
10
97.505800000
20
109.322700000
30
0.0
0
VERTEX
8
LEVA
10
98.659600000
20
108.997700000
30
0.0
0
VERTEX
8
LEVA
10
99.814300000
20
108.663100000
30
0.0
0
VERTEX
8
LEVA
10
100.969900000
20
108.318800000
30
0.0
0
VERTEX
8
LEVA
10
102.126300000
20
107.965000000
30
0.0
0
VERTEX
8
LEVA
10
103.283400000
20
107.601400000
30
0.0
0
VERTEX
8
LEVA
10
104.441100000
20
107.228200000
30
0.0
0
VERTEX
8
LEVA
10
105.599300000
20
106.845200000
30
0.0
0
VERTEX
8
LEVA
10
106.758100000
20
106.452400000
30
0.0
0
VERTEX
8
LEVA
10
107.917200000
20
106.049800000
30
0.0
0
VERTEX
8
LEVA
10
109.076700000
20
105.637400000
30
0.0
0
VERTEX
8
LEVA
10
110.236400000
20
105.215100000
30
0.0
0
VERTEX
8
LEVA
10
111.396200000
20
104.783000000
30
0.0
0
VERTEX
8
LEVA
10
112.556200000
20
104.340900000
30
0.0
0
VERTEX
8
LEVA
10
113.716200000
20
103.888900000
30
0.0
0
VERTEX
8
LEVA
10
114.876100000
20
103.426900000
30
0.0
0
VERTEX
8
LEVA
10
116.035800000
20
102.954900000
30
0.0
0
VERTEX
8
LEVA
10
117.195300000
20
102.472900000
30
0.0
0
VERTEX
8
LEVA
10
118.354500000
20
101.980800000
30
0.0
0
VERTEX
8
LEVA
10
119.513300000
20
101.478700000
30
0.0
0
VERTEX
8
LEVA
10
120.671600000
20
100.966500000
30
0.0
0
VERTEX
8
LEVA
10
121.829300000
20
100.444200000
30
0.0
0
VERTEX
8
LEVA
10
122.986400000
20
99.911800000
30
0.0
0
VERTEX
8
LEVA
10
124.142800000
20
99.369300000
30
0.0
0
VERTEX
8
LEVA
10
125.298400000
20
98.816500000
30
0.0
0
VERTEX
8
LEVA
10
126.453000000
20
98.253600000
30
0.0
0
VERTEX
8
LEVA
10
127.606700000
20
97.680500000
30
0.0
0
VERTEX
8
LEVA
10
128.759300000
20
97.097100000
30
0.0
0
VERTEX
8
LEVA
10
129.910800000
20
96.503500000
30
0.0
0
VERTEX
8
LEVA
10
131.061000000
20
95.899700000
30
0.0
0
VERTEX
8
LEVA
10
132.209900000
20
95.285600000
30
0.0
0
VERTEX
8
LEVA
10
133.357400000
20
94.661200000
30
0.0
0
VERTEX
8
LEVA
10
134.503400000
20
94.026500000
30
0.0
0
VERTEX
8
LEVA
10
135.647800000
20
93.381600000
30
0.0
0
VERTEX
8
LEVA
10
136.790600000
20
92.726200000
30
0.0
0
VERTEX
8
LEVA
10
137.931500000
20
92.060600000
30
0.0
0
VERTEX
8
LEVA
10
139.070700000
20
91.384600000
30
0.0
0
VERTEX
8
LEVA
10
140.207900000
20
90.698300000
30
0.0
0
VERTEX
8
LEVA
10
141.343100000
20
90.001600000
30
0.0
0
VERTEX
8
LEVA
10
142.476200000
20
89.294600000
30
0.0
0
VERTEX
8
LEVA
10
143.607000000
20
88.577100000
30
0.0
0
VERTEX
8
LEVA
10
144.735600000
20
87.849300000
30
0.0
0
VERTEX
8
LEVA
10
145.861800000
20
87.111100000
30
0.0
0
VERTEX
8
LEVA
10
146.985600000
20
86.362500000
30
0.0
0
VERTEX
8
LEVA
10
148.106800000
20
85.603500000
30
0.0
0
VERTEX
8
LEVA
10
149.225300000
20
84.834200000
30
0.0
0
VERTEX
8
LEVA
10
150.341100000
20
84.054400000
30
0.0
0
VERTEX
8
LEVA
10
151.454100000
20
83.264200000
30
0.0
0
VERTEX
8
LEVA
10
152.564100000
20
82.463600000
30
0.0
0
VERTEX
8
LEVA
10
153.671200000
20
81.652600000
30
0.0
0
VERTEX
8
LEVA
10
154.775100000
20
80.831200000
30
0.0
0
VERTEX
8
LEVA
10
155.875900000
20
79.999400000
30
0.0
0
VERTEX
8
LEVA
10
156.973400000
20
79.157200000
30
0.0
0
VERTEX
8
LEVA
10
158.067500000
20
78.304600000
30
0.0
0
VERTEX
8
LEVA
10
159.158100000
20
77.441600000
30
0.0
0
VERTEX
8
LEVA
10
160.243700000
20
76.569500000
30
0.0
0
VERTEX
8
LEVA
10
47.155200000
20
24.816200000
30
0.0
0
VERTEX
8
LEVA
10
47.613000000
20
23.926000000
30
0.0
0
VERTEX
8
LEVA
10
48.054100000
20
23.027300000
30
0.0
0
VERTEX
8
LEVA
10
48.478200000
20
22.120500000
30
0.0
0
VERTEX
8
LEVA
10
48.885200000
20
21.205800000
30
0.0
0
VERTEX
8
LEVA
10
49.275000000
20
20.283700000
30
0.0
0
VERTEX
8
LEVA
10
49.647300000
20
19.354500000
30
0.0
0
VERTEX
8
LEVA
10
50.002200000
20
18.418400000
30
0.0
0
VERTEX
8
LEVA
10
50.339300000
20
17.475800000
30
0.0
0
VERTEX
8
LEVA
10
50.658800000
20
16.527000000
30
0.0
0
VERTEX
8
LEVA
10
50.960300000
20
15.572400000
30
0.0
0
VERTEX
8
LEVA
10
51.243900000
20
14.612300000
30
0.0
0
VERTEX
8
LEVA
10
51.509300000
20
13.647100000
30
0.0
0
VERTEX
8
LEVA
10
51.756600000
20
12.677000000
30
0.0
0
VERTEX
8
LEVA
10
51.985600000
20
11.702500000
30
0.0
0
VERTEX
8
LEVA
10
52.196300000
20
10.723800000
30
0.0
0
VERTEX
8
LEVA
10
52.388500000
20
9.741300000
30
0.0
0
VERTEX
8
LEVA
10
52.562300000
20
8.755400000
30
0.0
0
VERTEX
8
LEVA
10
52.717500000
20
7.766500000
30
0.0
0
VERTEX
8
LEVA
10
52.854100000
20
6.774700000
30
0.0
0
VERTEX
8
LEVA
10
52.972000000
20
5.780600000
30
0.0
0
VERTEX
8
LEVA
10
53.071300000
20
4.784400000
30
0.0
0
VERTEX
8
LEVA
10
53.151800000
20
3.786600000
30
0.0
0
VERTEX
8
LEVA
10
53.213600000
20
2.787400000
30
0.0
0
VERTEX
8
LEVA
10
53.256500000
20
1.787200000
30
0.0
0
VERTEX
8
LEVA
10
53.280700000
20
0.786400000
30
0.0
0
VERTEX
8
LEVA
10
53.286100000
20
-0.214600000
30
0.0
0
VERTEX
8
LEVA
10
53.272700000
20
-1.215600000
30
0.0
0
VERTEX
8
LEVA
10
53.240400000
20
-2.216200000
30
0.0
0
VERTEX
8
LEVA
10
53.189400000
20
-3.216000000
30
0.0
0
VERTEX
8
LEVA
10
53.119600000
20
-4.214600000
30
0.0
0
VERTEX
8
LEVA
10
53.031000000
20
-5.211800000
30
0.0
0
VERTEX
8
LEVA
10
52.923800000
20
-6.207100000
30
0.0
0
VERTEX
8
LEVA
10
52.797800000
20
-7.200300000
30
0.0
0
VERTEX
8
LEVA
10
52.653200000
20
-8.190900000
30
0.0
0
VERTEX
8
LEVA
10
52.490100000
20
-9.178600000
30
0.0
0
VERTEX
8
LEVA
10
52.308400000
20
-10.163000000
30
0.0
0
VERTEX
8
LEVA
10
52.108200000
20
-11.143900000
30
0.0
0
VERTEX
8
LEVA
10
51.889700000
20
-12.120900000
30
0.0
0
VERTEX
8
LEVA
10
51.652800000
20
-13.093500000
30
0.0
0
VERTEX
8
LEVA
10
51.397700000
20
-14.061600000
30
0.0
0
VERTEX
8
LEVA
10
51.124500000
20
-15.024600000
30
0.0
0
VERTEX
8
LEVA
10
50.833200000
20
-15.982400000
30
0.0
0
VERTEX
8
LEVA
10
50.524000000
20
-16.934600000
30
0.0
0
VERTEX
8
LEVA
10
50.196900000
20
-17.880700000
30
0.0
0
VERTEX
8
LEVA
10
49.852200000
20
-18.820600000
30
0.0
0
VERTEX
8
LEVA
10
49.489800000
20
-19.753800000
30
0.0
0
VERTEX
8
LEVA
10
49.110000000
20
-20.680000000
30
0.0
0
VERTEX
8
LEVA
10
48.712800000
20
-21.599000000
30
0.0
0
VERTEX
8
LEVA
10
48.298500000
20
-22.510300000
30
0.0
0
VERTEX
8
LEVA
10
47.867100000
20
-23.413600000
30
0.0
0
VERTEX
8
LEVA
10
47.418800000
20
-24.308700000
30
0.0
0
VERTEX
8
LEVA
10
46.953700000
20
-25.195300000
30
0.0
0
VERTEX
8
LEVA
10
46.472100000
20
-26.072900000
30
0.0
0
VERTEX
8
LEVA
10
45.974100000
20
-26.941300000
30
0.0
0
VERTEX
8
LEVA
10
45.459900000
20
-27.800200000
30
0.0
0
VERTEX
8
LEVA
10
44.929600000
20
-28.649400000
30
0.0
0
VERTEX
8
LEVA
10
44.383400000
20
-29.488300000
30
0.0
0
VERTEX
8
LEVA
10
43.821600000
20
-30.316900000
30
0.0
0
VERTEX
8
LEVA
10
43.244400000
20
-31.134800000
30
0.0
0
VERTEX
8
LEVA
10
42.651800000
20
-31.941700000
30
0.0
0
VERTEX
8
LEVA
10
42.044300000
20
-32.737300000
30
0.0
0
VERTEX
8
LEVA
10
41.421800000
20
-33.521400000
30
0.0
0
VERTEX
8
LEVA
10
40.784800000
20
-34.293700000
30
0.0
0
VERTEX
8
LEVA
10
40.133300000
20
-35.053800000
30
0.0
0
VERTEX
8
LEVA
10
39.467700000
20
-35.801600000
30
0.0
0
VERTEX
8
LEVA
10
38.788200000
20
-36.536700000
30
0.0
0
VERTEX
8
LEVA
10
38.095000000
20
-37.258900000
30
0.0
0
VERTEX
8
LEVA
10
37.388300000
20
-37.968000000
30
0.0
0
VERTEX
8
LEVA
10
36.668400000
20
-38.663700000
30
0.0
0
VERTEX
8
LEVA
10
35.935600000
20
-39.345700000
30
0.0
0
VERTEX
8
LEVA
10
35.190100000
20
-40.013900000
30
0.0
0
VERTEX
8
LEVA
10
34.432200000
20
-40.667900000
30
0.0
0
VERTEX
8
LEVA
10
33.662100000
20
-41.307600000
30
0.0
0
VERTEX
8
LEVA
10
32.880200000
20
-41.932600000
30
0.0
0
VERTEX
8
LEVA
10
32.086600000
20
-42.542900000
30
0.0
0
VERTEX
8
LEVA
10
31.281800000
20
-43.138200000
30
0.0
0
VERTEX
8
LEVA
10
30.465800000
20
-43.718300000
30
0.0
0
VERTEX
8
LEVA
10
29.639200000
20
-44.282900000
30
0.0
0
VERTEX
8
LEVA
10
28.802000000
20
-44.831900000
30
0.0
0
VERTEX
8
LEVA
10
27.954700000
20
-45.365000000
30
0.0
0
VERTEX
8
LEVA
10
27.097600000
20
-45.882200000
30
0.0
0
VERTEX
8
LEVA
10
26.230800000
20
-46.383100000
30
0.0
0
VERTEX
8
LEVA
10
25.354800000
20
-46.867700000
30
0.0
0
VERTEX
8
LEVA
10
24.469900000
20
-47.335800000
30
0.0
0
VERTEX
8
LEVA
10
23.576300000
20
-47.787100000
30
0.0
0
VERTEX
8
LEVA
10
22.674400000
20
-48.221600000
30
0.0
0
VERTEX
8
LEVA
10
21.764500000
20
-48.639100000
30
0.0
0
VERTEX
8
LEVA
10
20.847000000
20
-49.039300000
30
0.0
0
VERTEX
8
LEVA
10
19.922000000
20
-49.422300000
30
0.0
0
VERTEX
8
LEVA
10
18.990100000
20
-49.787900000
30
0.0
0
VERTEX
8
LEVA
10
18.051400000
20
-50.135800000
30
0.0
0
VERTEX
8
LEVA
10
17.106300000
20
-50.466100000
30
0.0
0
VERTEX
8
LEVA
10
16.155300000
20
-50.778500000
30
0.0
0
VERTEX
8
LEVA
10
15.198500000
20
-51.073100000
30
0.0
0
VERTEX
8
LEVA
10
14.236300000
20
-51.349600000
30
0.0
0
VERTEX
8
LEVA
10
13.269200000
20
-51.608000000
30
0.0
0
VERTEX
8
LEVA
10
13.080323737
20
-51.656153954
30
0.0
0
VERTEX
8
LEVA
10
12.601584043
20
-51.775041881
30
0.0
0
VERTEX
8
LEVA
10
12.121786579
20
-51.889589002
30
0.0
0
VERTEX
8
LEVA
10
11.640990608
20
-51.999879085
30
0.0
0
VERTEX
8
LEVA
10
11.159251281
20
-52.105993520
30
0.0
0
VERTEX
8
LEVA
10
10.676619791
20
-52.208011253
30
0.0
0
VERTEX
8
LEVA
10
10.193143518
20
-52.306008717
30
0.0
0
VERTEX
8
LEVA
10
9.708866183
20
-52.400059775
30
0.0
0
VERTEX
8
LEVA
10
9.223827992
20
-52.490235664
30
0.0
0
VERTEX
8
LEVA
10
8.738065788
20
-52.576604938
30
0.0
0
VERTEX
8
LEVA
10
8.251613200
20
-52.659233428
30
0.0
0
VERTEX
8
LEVA
10
7.764500785
20
-52.738184193
30
0.0
0
VERTEX
8
LEVA
10
7.276756184
20
-52.813517485
30
0.0
0
VERTEX
8
LEVA
10
6.788404261
20
-52.885290716
30
0.0
0
VERTEX
8
LEVA
10
6.299467251
20
-52.953558423
30
0.0
0
VERTEX
8
LEVA
10
5.809964906
20
-53.018372248
30
0.0
0
VERTEX
8
LEVA
10
5.319914637
20
-53.079780914
30
0.0
0
VERTEX
8
LEVA
10
4.829331657
20
-53.137830208
30
0.0
0
VERTEX
8
LEVA
10
4.338229123
20
-53.192562966
30
0.0
0
VERTEX
8
LEVA
10
3.846618276
20
-53.244019068
30
0.0
0
VERTEX
8
LEVA
10
3.354508579
20
-53.292235429
30
0.0
0
VERTEX
8
LEVA
10
2.861907853
20
-53.337245997
30
0.0
0
VERTEX
8
LEVA
10
2.368822418
20
-53.379081760
30
0.0
0
VERTEX
8
LEVA
10
1.875257221
20
-53.417770748
30
0.0
0
VERTEX
8
LEVA
10
1.381215971
20
-53.453338044
30
0.0
0
VERTEX
8
LEVA
10
0.886701272
20
-53.485805798
30
0.0
0
VERTEX
8
LEVA
10
0.391714746
20
-53.515193244
30
0.0
0
VERTEX
8
LEVA
10
-0.103742833
20
-53.541516720
30
0.0
0
VERTEX
8
LEVA
10
-0.599671420
20
-53.564789692
30
0.0
0
VERTEX
8
LEVA
10
-1.096071574
20
-53.585022781
30
0.0
0
VERTEX
8
LEVA
10
-1.592944337
20
-53.602223797
30
0.0
0
VERTEX
8
LEVA
10
-2.090291115
20
-53.616397766
30
0.0
0
VERTEX
8
LEVA
10
-2.588113565
20
-53.627546973
30
0.0
0
VERTEX
8
LEVA
10
-3.086413478
20
-53.635671001
30
0.0
0
VERTEX
8
LEVA
10
-3.585192669
20
-53.640766771
30
0.0
0
VERTEX
8
LEVA
10
-4.084452867
20
-53.642828590
30
0.0
0
VERTEX
8
LEVA
10
-4.584195611
20
-53.641848200
30
0.0
0
VERTEX
8
LEVA
10
-5.084422145
20
-53.637814827
30
0.0
0
VERTEX
8
LEVA
10
-5.585133316
20
-53.630715238
30
0.0
0
VERTEX
8
LEVA
10
-6.086329477
20
-53.620533796
30
0.0
0
VERTEX
8
LEVA
10
-6.588010390
20
-53.607252520
30
0.0
0
VERTEX
8
LEVA
10
-7.090175135
20
-53.590851144
30
0.0
0
VERTEX
8
LEVA
10
-7.592822018
20
-53.571307182
30
0.0
0
VERTEX
8
LEVA
10
-8.095948487
20
-53.548595998
30
0.0
0
VERTEX
8
LEVA
10
-8.599551043
20
-53.522690865
30
0.0
0
VERTEX
8
LEVA
10
-9.103625164
20
-53.493563046
30
0.0
0
VERTEX
8
LEVA
10
-9.608165222
20
-53.461181856
30
0.0
0
VERTEX
8
LEVA
10
-10.113164413
20
-53.425514744
30
0.0
0
VERTEX
8
LEVA
10
-10.618614681
20
-53.386527363
30
0.0
0
VERTEX
8
LEVA
10
-11.124506649
20
-53.344183650
30
0.0
0
VERTEX
8
LEVA
10
-11.630829557
20
-53.298445906
30
0.0
0
VERTEX
8
LEVA
10
-12.137571197
20
-53.249274874
30
0.0
0
VERTEX
8
LEVA
10
-12.644717851
20
-53.196629821
30
0.0
0
VERTEX
8
LEVA
10
-13.152254240
20
-53.140468625
30
0.0
0
VERTEX
8
LEVA
10
-13.660163469
20
-53.080747852
30
0.0
0
VERTEX
8
LEVA
10
-14.168426973
20
-53.017422850
30
0.0
0
VERTEX
8
LEVA
10
-14.677024479
20
-52.950447831
30
0.0
0
VERTEX
8
LEVA
10
-15.185933957
20
-52.879775958
30
0.0
0
VERTEX
8
LEVA
10
-15.695131580
20
-52.805359435
30
0.0
0
VERTEX
8
LEVA
10
-16.204591692
20
-52.727149595
30
0.0
0
VERTEX
8
LEVA
10
-16.714286769
20
-52.645096992
30
0.0
0
VERTEX
8
LEVA
10
-17.224187396
20
-52.559151488
30
0.0
0
VERTEX
8
LEVA
10
-17.734262233
20
-52.469262346
30
0.0
0
VERTEX
8
LEVA
10
-18.244477999
20
-52.375378321
30
0.0
0
VERTEX
8
LEVA
10
-18.754799446
20
-52.277447752
30
0.0
0
VERTEX
8
LEVA
10
-19.265189349
20
-52.175418651
30
0.0
0
VERTEX
8
LEVA
10
-19.775608486
20
-52.069238797
30
0.0
0
VERTEX
8
LEVA
10
-20.286015634
20
-51.958855828
30
0.0
0
VERTEX
8
LEVA
10
-20.796367559
20
-51.844217333
30
0.0
0
VERTEX
8
LEVA
10
-21.306619015
20
-51.725270939
30
0.0
0
VERTEX
8
LEVA
10
-21.816722741
20
-51.601964410
30
0.0
0
VERTEX
8
LEVA
10
-22.326629470
20
-51.474245731
30
0.0
0
VERTEX
8
LEVA
10
-22.836287929
20
-51.342063202
30
0.0
0
VERTEX
8
LEVA
10
-23.345644853
20
-51.205365525
30
0.0
0
VERTEX
8
LEVA
10
-23.854644999
20
-51.064101898
30
0.0
0
VERTEX
8
LEVA
10
-24.363231158
20
-50.918222098
30
0.0
0
VERTEX
8
LEVA
10
-24.871344178
20
-50.767676574
30
0.0
0
VERTEX
8
LEVA
10
-25.378922988
20
-50.612416527
30
0.0
0
VERTEX
8
LEVA
10
-25.885904617
20
-50.452394005
30
0.0
0
VERTEX
8
LEVA
10
-26.392224231
20
-50.287561979
30
0.0
0
VERTEX
8
LEVA
10
-26.897815159
20
-50.117874431
30
0.0
0
VERTEX
8
LEVA
10
-27.402608931
20
-49.943286437
30
0.0
0
VERTEX
8
LEVA
10
-27.906535314
20
-49.763754243
30
0.0
0
VERTEX
8
LEVA
10
-28.409522355
20
-49.579235353
30
0.0
0
VERTEX
8
LEVA
10
-28.911496422
20
-49.389688598
30
0.0
0
VERTEX
8
LEVA
10
-29.412382253
20
-49.195074220
30
0.0
0
VERTEX
8
LEVA
10
-29.912103002
20
-48.995353941
30
0.0
0
VERTEX
8
LEVA
10
-30.410580296
20
-48.790491040
30
0.0
0
VERTEX
8
LEVA
10
-30.907734285
20
-48.580450425
30
0.0
0
VERTEX
8
LEVA
10
-31.403483702
20
-48.365198696
30
0.0
0
VERTEX
8
LEVA
10
-31.897745924
20
-48.144704221
30
0.0
0
VERTEX
8
LEVA
10
-32.390437031
20
-47.918937196
30
0.0
0
VERTEX
8
LEVA
10
-32.881471874
20
-47.687869711
30
0.0
0
VERTEX
8
LEVA
10
-33.370764143
20
-47.451475808
30
0.0
0
VERTEX
8
LEVA
10
-33.858226434
20
-47.209731542
30
0.0
0
VERTEX
8
LEVA
10
-34.343770324
20
-46.962615040
30
0.0
0
VERTEX
8
LEVA
10
-34.827306443
20
-46.710106551
30
0.0
0
VERTEX
8
LEVA
10
-35.308744555
20
-46.452188497
30
0.0
0
VERTEX
8
LEVA
10
-35.787993632
20
-46.188845529
30
0.0
0
VERTEX
8
LEVA
10
-36.264961935
20
-45.920064567
30
0.0
0
VERTEX
8
LEVA
10
-36.739557102
20
-45.645834844
30
0.0
0
VERTEX
8
LEVA
10
-37.211686228
20
-45.366147954
30
0.0
0
VERTEX
8
LEVA
10
-37.681255952
20
-45.080997882
30
0.0
0
VERTEX
8
LEVA
10
-38.148172548
20
-44.790381046
30
0.0
0
VERTEX
8
LEVA
10
-38.612342012
20
-44.494296326
30
0.0
0
VERTEX
8
LEVA
10
-39.073670157
20
-44.192745096
30
0.0
0
VERTEX
8
LEVA
10
-39.532062701
20
-43.885731249
30
0.0
0
VERTEX
8
LEVA
10
-39.987425369
20
-43.573261225
30
0.0
0
VERTEX
8
LEVA
10
-40.439663983
20
-43.255344025
30
0.0
0
VERTEX
8
LEVA
10
-40.888684562
20
-42.931991234
30
0.0
0
VERTEX
8
LEVA
10
-41.334393420
20
-42.603217036
30
0.0
0
VERTEX
8
LEVA
10
-41.776697266
20
-42.269038220
30
0.0
0
VERTEX
8
LEVA
10
-42.215503304
20
-41.929474191
30
0.0
0
VERTEX
8
LEVA
10
-42.650719338
20
-41.584546979
30
0.0
0
VERTEX
8
LEVA
10
-43.082253870
20
-41.234281231
30
0.0
0
VERTEX
8
LEVA
10
-43.510016205
20
-40.878704217
30
0.0
0
VERTEX
8
LEVA
10
-43.933916558
20
-40.517845822
30
0.0
0
VERTEX
8
LEVA
10
-44.353866155
20
-40.151738535
30
0.0
0
VERTEX
8
LEVA
10
-44.769777341
20
-39.780417440
30
0.0
0
VERTEX
8
LEVA
10
-45.181563683
20
-39.403920198
30
0.0
0
VERTEX
8
LEVA
10
-45.589140080
20
-39.022287029
30
0.0
0
VERTEX
8
LEVA
10
-45.992422864
20
-38.635560686
30
0.0
0
VERTEX
8
LEVA
10
-46.391329912
20
-38.243786435
30
0.0
0
VERTEX
8
LEVA
10
-46.785780750
20
-37.847012018
30
0.0
0
VERTEX
8
LEVA
10
-47.175696657
20
-37.445287622
30
0.0
0
VERTEX
8
LEVA
10
-47.561000776
20
-37.038665845
30
0.0
0
VERTEX
8
LEVA
10
-47.941618217
20
-36.627201648
30
0.0
0
VERTEX
8
LEVA
10
-48.317476166
20
-36.210952318
30
0.0
0
VERTEX
8
LEVA
10
-48.688503985
20
-35.789977414
30
0.0
0
VERTEX
8
LEVA
10
-49.054633321
20
-35.364338719
30
0.0
0
VERTEX
8
LEVA
10
-49.415798212
20
-34.934100182
30
0.0
0
VERTEX
8
LEVA
10
-49.771935185
20
-34.499327860
30
0.0
0
VERTEX
8
LEVA
10
-50.122983362
20
-34.060089854
30
0.0
0
VERTEX
8
LEVA
10
-50.468884563
20
-33.616456246
30
0.0
0
VERTEX
8
LEVA
10
-50.809583404
20
-33.168499023
30
0.0
0
VERTEX
8
LEVA
10
-51.145027398
20
-32.716292008
30
0.0
0
VERTEX
8
LEVA
10
-51.475167053
20
-32.259910781
30
0.0
0
VERTEX
8
LEVA
10
-51.799955971
20
-31.799432598
30
0.0
0
VERTEX
8
LEVA
10
-52.119350942
20
-31.334936303
30
0.0
0
VERTEX
8
LEVA
10
-52.433312038
20
-30.866502247
30
0.0
0
VERTEX
8
LEVA
10
-52.741802706
20
-30.394212190
30
0.0
0
VERTEX
8
LEVA
10
-53.044789860
20
-29.918149206
30
0.0
0
VERTEX
8
LEVA
10
-53.342243968
20
-29.438397586
30
0.0
0
VERTEX
8
LEVA
10
-53.634139142
20
-28.955042736
30
0.0
0
VERTEX
8
LEVA
10
-53.920453221
20
-28.468171068
30
0.0
0
VERTEX
8
LEVA
10
-54.201167854
20
-27.977869892
30
0.0
0
VERTEX
8
LEVA
10
-54.476268583
20
-27.484227305
30
0.0
0
VERTEX
8
LEVA
10
-54.745744919
20
-26.987332070
30
0.0
0
VERTEX
8
LEVA
10
-55.009590419
20
-26.487273501
30
0.0
0
VERTEX
8
LEVA
10
-55.267802762
20
-25.984141337
30
0.0
0
VERTEX
8
LEVA
10
-55.520383815
20
-25.478025619
30
0.0
0
VERTEX
8
LEVA
10
-55.767339706
20
-24.969016555
30
0.0
0
VERTEX
8
LEVA
10
-56.008680890
20
-24.457204391
30
0.0
0
VERTEX
8
LEVA
10
-56.244422205
20
-23.942679277
30
0.0
0
VERTEX
8
LEVA
10
-56.474582941
20
-23.425531123
30
0.0
0
VERTEX
8
LEVA
10
-56.699186888
20
-22.905849459
30
0.0
0
VERTEX
8
LEVA
10
-56.918262397
20
-22.383723293
30
0.0
0
VERTEX
8
LEVA
10
-57.131842424
20
-21.859240956
30
0.0
0
VERTEX
8
LEVA
10
-57.339964581
20
-21.332489961
30
0.0
0
VERTEX
8
LEVA
10
-57.542671177
20
-20.803556839
30
0.0
0
VERTEX
8
LEVA
10
-57.740009258
20
-20.272526989
30
0.0
0
VERTEX
8
LEVA
10
-57.932030647
20
-19.739484518
30
0.0
0
VERTEX
8
LEVA
10
-58.118791970
20
-19.204512076
30
0.0
0
VERTEX
8
LEVA
10
-58.300354690
20
-18.667690698
30
0.0
0
VERTEX
8
LEVA
10
-58.476785129
20
-18.129099628
30
0.0
0
VERTEX
8
LEVA
10
-58.648154493
20
-17.588816159
30
0.0
0
VERTEX
8
LEVA
10
-58.814538882
20
-17.046915457
30
0.0
0
VERTEX
8
LEVA
10
-58.976019310
20
-16.503470384
30
0.0
0
VERTEX
8
LEVA
10
-59.132681706
20
-15.958551331
30
0.0
0
VERTEX
8
LEVA
10
-59.284616925
20
-15.412226029
30
0.0
0
VERTEX
8
LEVA
10
-59.431920746
20
-14.864559379
30
0.0
0
VERTEX
8
LEVA
10
-59.574693864
20
-14.315613263
30
0.0
0
VERTEX
8
LEVA
10
-59.713041885
20
-13.765446361
30
0.0
0
VERTEX
8
LEVA
10
-59.847075309
20
-13.214113970
30
0.0
0
VERTEX
8
LEVA
10
-59.976909514
20
-12.661667811
30
0.0
0
VERTEX
8
LEVA
10
-60.102664733
20
-12.108155844
30
0.0
0
VERTEX
8
LEVA
10
-60.224466023
20
-11.553622075
30
0.0
0
VERTEX
8
LEVA
10
-60.342443237
20
-10.998106367
30
0.0
0
VERTEX
8
LEVA
10
-60.456730980
20
-10.441644244
30
0.0
0
VERTEX
8
LEVA
10
-60.567468573
20
-9.884266700
30
0.0
0
SEQEND
0
POINT
8
CENTROS
10
0.0
20
0.0
30
0.0
0
ENDSEC
0
EOF
