ISO-10303-21;
HEADER;
/* Generated by software containing ST-Developer
 * from STEP Tools, Inc. (www.steptools.com) 
 */

FILE_DESCRIPTION(
/* description */ (''),
/* implementation_level */ '2;1');

FILE_NAME(
/* name */ 'Hammer.step',
/* time_stamp */ '2026-07-30T14:12:53-03:00',
/* author */ (''),
/* organization */ (''),
/* preprocessor_version */ 'ST-DEVELOPER v20.1',
/* originating_system */ 'Autodesk Translation Framework v14.24.0.0',
/* authorisation */ '');

FILE_SCHEMA (('AUTOMOTIVE_DESIGN { 1 0 10303 214 3 1 1 }'));
ENDSEC;

DATA;
#10=MECHANICAL_DESIGN_GEOMETRIC_PRESENTATION_REPRESENTATION('',(#13),#1829);
#11=SHAPE_REPRESENTATION_RELATIONSHIP('SRR','None',#1836,#12);
#12=ADVANCED_BREP_SHAPE_REPRESENTATION('',(#14),#1828);
#13=STYLED_ITEM('',(#1845),#14);
#14=MANIFOLD_SOLID_BREP('Hammer',#927);
#15=FACE_BOUND('',#143,.T.);
#16=FACE_BOUND('',#146,.T.);
#17=FACE_BOUND('',#175,.T.);
#18=FACE_BOUND('',#178,.T.);
#19=SPHERICAL_SURFACE('',#978,2.);
#20=SPHERICAL_SURFACE('',#1042,2.);
#21=B_SPLINE_CURVE_WITH_KNOTS('',3,(#1451,#1452,#1453,#1454,#1455,#1456,
#1457,#1458),.UNSPECIFIED.,.F.,.F.,(4,2,2,4),(1.06028228364608,1.10986553162588,
1.18608643026725,1.26230732890863),.UNSPECIFIED.);
#22=B_SPLINE_CURVE_WITH_KNOTS('',3,(#1478,#1479,#1480,#1481,#1482,#1483,
#1484,#1485),.UNSPECIFIED.,.F.,.F.,(4,2,2,4),(0.,0.0762208986413735,0.152441797282747,
0.202025045262549),.UNSPECIFIED.);
#23=B_SPLINE_CURVE_WITH_KNOTS('',3,(#1671,#1672,#1673,#1674,#1675,#1676,
#1677,#1678),.UNSPECIFIED.,.F.,.F.,(4,2,2,4),(1.06028228364608,1.10986553162588,
1.18608643026725,1.26230732890863),.UNSPECIFIED.);
#24=B_SPLINE_CURVE_WITH_KNOTS('',3,(#1696,#1697,#1698,#1699,#1700,#1701,
#1702,#1703),.UNSPECIFIED.,.F.,.F.,(4,2,2,4),(0.,0.0762208986413735,0.152441797282747,
0.202025045262549),.UNSPECIFIED.);
#25=(
BOUNDED_SURFACE()
B_SPLINE_SURFACE(2,2,((#1427,#1428,#1429,#1430,#1431),(#1432,#1433,#1434,
#1435,#1436),(#1437,#1438,#1439,#1440,#1441)),.UNSPECIFIED.,.F.,.F.,.F.)
B_SPLINE_SURFACE_WITH_KNOTS((3,3),(3,2,3),(0.,1.5707963267949),(-1.57079632679491,
-6.66133814775094E-15,1.5707963267949),.UNSPECIFIED.)
GEOMETRIC_REPRESENTATION_ITEM()
RATIONAL_B_SPLINE_SURFACE(((1.,0.707106781186545,1.,0.707106781186545,1.),
(0.707106781186548,0.499999999999999,0.707106781186548,0.499999999999999,
0.707106781186548),(1.,0.707106781186545,1.,0.707106781186545,1.)))
REPRESENTATION_ITEM('')
SURFACE()
);
#26=(
BOUNDED_SURFACE()
B_SPLINE_SURFACE(2,2,((#1489,#1490,#1491),(#1492,#1493,#1494),(#1495,#1496,
#1497)),.UNSPECIFIED.,.F.,.F.,.F.)
B_SPLINE_SURFACE_WITH_KNOTS((3,3),(3,3),(0.,1.31811607165282),(-1.5707963267949,
4.82947015711943E-15),.UNSPECIFIED.)
GEOMETRIC_REPRESENTATION_ITEM()
RATIONAL_B_SPLINE_SURFACE(((1.,0.707106781186544,1.),(0.790569415042095,
0.559016994374944,0.790569415042095),(1.,0.707106781186544,1.)))
REPRESENTATION_ITEM('')
SURFACE()
);
#27=(
BOUNDED_SURFACE()
B_SPLINE_SURFACE(2,2,((#1511,#1512,#1513,#1514,#1515,#1516,#1517,#1518,
#1519),(#1520,#1521,#1522,#1523,#1524,#1525,#1526,#1527,#1528),(#1529,#1530,
#1531,#1532,#1533,#1534,#1535,#1536,#1537)),.UNSPECIFIED.,.F.,.T.,.F.)
B_SPLINE_SURFACE_WITH_KNOTS((3,3),(3,2,2,2,3),(-1.5707963267949,0.),(-3.14159265358979,
-1.5707963267949,0.,1.5707963267949,3.14159265358979),.UNSPECIFIED.)
GEOMETRIC_REPRESENTATION_ITEM()
RATIONAL_B_SPLINE_SURFACE(((1.,0.707106781186548,1.,0.707106781186548,1.,
0.707106781186548,1.,0.707106781186548,1.),(0.707106781186548,0.500000000000001,
0.707106781186548,0.500000000000001,0.707106781186548,0.500000000000001,
0.707106781186548,0.500000000000001,0.707106781186548),(1.,0.707106781186548,
1.,0.707106781186548,1.,0.707106781186548,1.,0.707106781186548,1.)))
REPRESENTATION_ITEM('')
SURFACE()
);
#28=(
BOUNDED_SURFACE()
B_SPLINE_SURFACE(2,2,((#1554,#1555,#1556,#1557,#1558,#1559,#1560,#1561,
#1562),(#1563,#1564,#1565,#1566,#1567,#1568,#1569,#1570,#1571),(#1572,#1573,
#1574,#1575,#1576,#1577,#1578,#1579,#1580)),.UNSPECIFIED.,.F.,.T.,.F.)
B_SPLINE_SURFACE_WITH_KNOTS((3,3),(3,2,2,2,3),(0.,1.5707963267949),(-3.14159265358979,
-1.5707963267949,0.,1.5707963267949,3.14159265358979),.UNSPECIFIED.)
GEOMETRIC_REPRESENTATION_ITEM()
RATIONAL_B_SPLINE_SURFACE(((1.,0.707106781186548,1.,0.707106781186548,1.,
0.707106781186548,1.,0.707106781186548,1.),(0.707106781186543,0.499999999999997,
0.707106781186543,0.499999999999997,0.707106781186543,0.499999999999997,
0.707106781186543,0.499999999999997,0.707106781186543),(1.,0.707106781186548,
1.,0.707106781186548,1.,0.707106781186548,1.,0.707106781186548,1.)))
REPRESENTATION_ITEM('')
SURFACE()
);
#29=(
BOUNDED_SURFACE()
B_SPLINE_SURFACE(2,2,((#1647,#1648,#1649,#1650,#1651),(#1652,#1653,#1654,
#1655,#1656),(#1657,#1658,#1659,#1660,#1661)),.UNSPECIFIED.,.F.,.F.,.F.)
B_SPLINE_SURFACE_WITH_KNOTS((3,3),(3,2,3),(0.,1.5707963267949),(-1.5707963267949,
2.22044604925031E-16,1.5707963267949),.UNSPECIFIED.)
GEOMETRIC_REPRESENTATION_ITEM()
RATIONAL_B_SPLINE_SURFACE(((1.,0.707106781186545,1.,0.707106781186545,1.),
(0.707106781186548,0.499999999999999,0.707106781186548,0.499999999999999,
0.707106781186548),(1.,0.707106781186545,1.,0.707106781186545,1.)))
REPRESENTATION_ITEM('')
SURFACE()
);
#30=(
BOUNDED_SURFACE()
B_SPLINE_SURFACE(2,2,((#1707,#1708,#1709),(#1710,#1711,#1712),(#1713,#1714,
#1715)),.UNSPECIFIED.,.F.,.F.,.F.)
B_SPLINE_SURFACE_WITH_KNOTS((3,3),(3,3),(0.,1.31811607165282),(-1.5707963267949,
4.82947015711943E-15),.UNSPECIFIED.)
GEOMETRIC_REPRESENTATION_ITEM()
RATIONAL_B_SPLINE_SURFACE(((1.,0.707106781186544,1.),(0.790569415042095,
0.559016994374944,0.790569415042095),(1.,0.707106781186544,1.)))
REPRESENTATION_ITEM('')
SURFACE()
);
#31=(
BOUNDED_SURFACE()
B_SPLINE_SURFACE(2,2,((#1739,#1740,#1741,#1742,#1743,#1744,#1745,#1746,
#1747),(#1748,#1749,#1750,#1751,#1752,#1753,#1754,#1755,#1756),(#1757,#1758,
#1759,#1760,#1761,#1762,#1763,#1764,#1765)),.UNSPECIFIED.,.F.,.T.,.F.)
B_SPLINE_SURFACE_WITH_KNOTS((3,3),(3,2,2,2,3),(-1.5707963267949,0.),(-3.14159265358979,
-1.5707963267949,0.,1.5707963267949,3.14159265358979),.UNSPECIFIED.)
GEOMETRIC_REPRESENTATION_ITEM()
RATIONAL_B_SPLINE_SURFACE(((1.,0.707106781186548,1.,0.707106781186548,1.,
0.707106781186548,1.,0.707106781186548,1.),(0.707106781186548,0.500000000000001,
0.707106781186548,0.500000000000001,0.707106781186548,0.500000000000001,
0.707106781186548,0.500000000000001,0.707106781186548),(1.,0.707106781186548,
1.,0.707106781186548,1.,0.707106781186548,1.,0.707106781186548,1.)))
REPRESENTATION_ITEM('')
SURFACE()
);
#32=(
BOUNDED_SURFACE()
B_SPLINE_SURFACE(2,2,((#1782,#1783,#1784,#1785,#1786,#1787,#1788,#1789,
#1790),(#1791,#1792,#1793,#1794,#1795,#1796,#1797,#1798,#1799),(#1800,#1801,
#1802,#1803,#1804,#1805,#1806,#1807,#1808)),.UNSPECIFIED.,.F.,.T.,.F.)
B_SPLINE_SURFACE_WITH_KNOTS((3,3),(3,2,2,2,3),(0.,1.5707963267949),(-3.14159265358979,
-1.5707963267949,0.,1.5707963267949,3.14159265358979),.UNSPECIFIED.)
GEOMETRIC_REPRESENTATION_ITEM()
RATIONAL_B_SPLINE_SURFACE(((1.,0.707106781186548,1.,0.707106781186548,1.,
0.707106781186548,1.,0.707106781186548,1.),(0.707106781186543,0.499999999999997,
0.707106781186543,0.499999999999997,0.707106781186543,0.499999999999997,
0.707106781186543,0.499999999999997,0.707106781186543),(1.,0.707106781186548,
1.,0.707106781186548,1.,0.707106781186548,1.,0.707106781186548,1.)))
REPRESENTATION_ITEM('')
SURFACE()
);
#33=TOROIDAL_SURFACE('',#950,9.00000000000001,4.);
#34=TOROIDAL_SURFACE('',#955,9.,4.);
#35=TOROIDAL_SURFACE('',#969,9.00000000000001,4.);
#36=TOROIDAL_SURFACE('',#1010,9.00000000000001,4.);
#37=TOROIDAL_SURFACE('',#1015,9.,4.);
#38=TOROIDAL_SURFACE('',#1029,9.00000000000001,4.);
#39=CYLINDRICAL_SURFACE('',#947,4.);
#40=CYLINDRICAL_SURFACE('',#953,4.);
#41=CYLINDRICAL_SURFACE('',#958,4.);
#42=CYLINDRICAL_SURFACE('',#962,4.);
#43=CYLINDRICAL_SURFACE('',#964,4.);
#44=CYLINDRICAL_SURFACE('',#966,4.);
#45=CYLINDRICAL_SURFACE('',#972,4.);
#46=CYLINDRICAL_SURFACE('',#974,4.);
#47=CYLINDRICAL_SURFACE('',#982,2.);
#48=CYLINDRICAL_SURFACE('',#988,5.);
#49=CYLINDRICAL_SURFACE('',#996,2.);
#50=CYLINDRICAL_SURFACE('',#1008,4.);
#51=CYLINDRICAL_SURFACE('',#1013,4.);
#52=CYLINDRICAL_SURFACE('',#1018,4.);
#53=CYLINDRICAL_SURFACE('',#1022,4.);
#54=CYLINDRICAL_SURFACE('',#1024,4.);
#55=CYLINDRICAL_SURFACE('',#1026,4.);
#56=CYLINDRICAL_SURFACE('',#1032,4.);
#57=CYLINDRICAL_SURFACE('',#1033,4.);
#58=CYLINDRICAL_SURFACE('',#1038,5.00000000000001);
#59=CYLINDRICAL_SURFACE('',#1040,4.99999999999999);
#60=CYLINDRICAL_SURFACE('',#1046,2.);
#61=CYLINDRICAL_SURFACE('',#1052,5.);
#62=CYLINDRICAL_SURFACE('',#1060,2.);
#63=CYLINDRICAL_SURFACE('',#1061,4.99999999999999);
#64=CYLINDRICAL_SURFACE('',#1063,5.00000000000001);
#65=CYLINDRICAL_SURFACE('',#1065,5.);
#66=FACE_OUTER_BOUND('',#124,.T.);
#67=FACE_OUTER_BOUND('',#125,.T.);
#68=FACE_OUTER_BOUND('',#126,.T.);
#69=FACE_OUTER_BOUND('',#127,.T.);
#70=FACE_OUTER_BOUND('',#128,.T.);
#71=FACE_OUTER_BOUND('',#129,.T.);
#72=FACE_OUTER_BOUND('',#130,.T.);
#73=FACE_OUTER_BOUND('',#131,.T.);
#74=FACE_OUTER_BOUND('',#132,.T.);
#75=FACE_OUTER_BOUND('',#133,.T.);
#76=FACE_OUTER_BOUND('',#134,.T.);
#77=FACE_OUTER_BOUND('',#135,.T.);
#78=FACE_OUTER_BOUND('',#136,.T.);
#79=FACE_OUTER_BOUND('',#137,.T.);
#80=FACE_OUTER_BOUND('',#138,.T.);
#81=FACE_OUTER_BOUND('',#139,.T.);
#82=FACE_OUTER_BOUND('',#140,.T.);
#83=FACE_OUTER_BOUND('',#141,.T.);
#84=FACE_OUTER_BOUND('',#142,.T.);
#85=FACE_OUTER_BOUND('',#144,.T.);
#86=FACE_OUTER_BOUND('',#145,.T.);
#87=FACE_OUTER_BOUND('',#147,.T.);
#88=FACE_OUTER_BOUND('',#148,.T.);
#89=FACE_OUTER_BOUND('',#149,.T.);
#90=FACE_OUTER_BOUND('',#150,.T.);
#91=FACE_OUTER_BOUND('',#151,.T.);
#92=FACE_OUTER_BOUND('',#152,.T.);
#93=FACE_OUTER_BOUND('',#153,.T.);
#94=FACE_OUTER_BOUND('',#154,.T.);
#95=FACE_OUTER_BOUND('',#155,.T.);
#96=FACE_OUTER_BOUND('',#156,.T.);
#97=FACE_OUTER_BOUND('',#157,.T.);
#98=FACE_OUTER_BOUND('',#158,.T.);
#99=FACE_OUTER_BOUND('',#159,.T.);
#100=FACE_OUTER_BOUND('',#160,.T.);
#101=FACE_OUTER_BOUND('',#161,.T.);
#102=FACE_OUTER_BOUND('',#162,.T.);
#103=FACE_OUTER_BOUND('',#163,.T.);
#104=FACE_OUTER_BOUND('',#164,.T.);
#105=FACE_OUTER_BOUND('',#165,.T.);
#106=FACE_OUTER_BOUND('',#166,.T.);
#107=FACE_OUTER_BOUND('',#167,.T.);
#108=FACE_OUTER_BOUND('',#168,.T.);
#109=FACE_OUTER_BOUND('',#169,.T.);
#110=FACE_OUTER_BOUND('',#170,.T.);
#111=FACE_OUTER_BOUND('',#171,.T.);
#112=FACE_OUTER_BOUND('',#172,.T.);
#113=FACE_OUTER_BOUND('',#173,.T.);
#114=FACE_OUTER_BOUND('',#174,.T.);
#115=FACE_OUTER_BOUND('',#176,.T.);
#116=FACE_OUTER_BOUND('',#177,.T.);
#117=FACE_OUTER_BOUND('',#179,.T.);
#118=FACE_OUTER_BOUND('',#180,.T.);
#119=FACE_OUTER_BOUND('',#181,.T.);
#120=FACE_OUTER_BOUND('',#182,.T.);
#121=FACE_OUTER_BOUND('',#183,.T.);
#122=FACE_OUTER_BOUND('',#184,.T.);
#123=FACE_OUTER_BOUND('',#185,.T.);
#124=EDGE_LOOP('',(#586,#587,#588,#589,#590,#591,#592,#593,#594,#595,#596,
#597,#598,#599));
#125=EDGE_LOOP('',(#600,#601,#602,#603));
#126=EDGE_LOOP('',(#604,#605,#606,#607));
#127=EDGE_LOOP('',(#608,#609,#610,#611));
#128=EDGE_LOOP('',(#612,#613,#614,#615));
#129=EDGE_LOOP('',(#616,#617,#618,#619));
#130=EDGE_LOOP('',(#620,#621,#622,#623));
#131=EDGE_LOOP('',(#624,#625,#626,#627));
#132=EDGE_LOOP('',(#628,#629,#630,#631));
#133=EDGE_LOOP('',(#632,#633,#634,#635));
#134=EDGE_LOOP('',(#636,#637,#638,#639));
#135=EDGE_LOOP('',(#640,#641,#642,#643));
#136=EDGE_LOOP('',(#644,#645,#646,#647));
#137=EDGE_LOOP('',(#648,#649,#650,#651));
#138=EDGE_LOOP('',(#652,#653,#654,#655));
#139=EDGE_LOOP('',(#656,#657,#658,#659,#660));
#140=EDGE_LOOP('',(#661,#662,#663,#664,#665));
#141=EDGE_LOOP('',(#666,#667,#668,#669,#670,#671));
#142=EDGE_LOOP('',(#672));
#143=EDGE_LOOP('',(#673));
#144=EDGE_LOOP('',(#674,#675,#676,#677,#678));
#145=EDGE_LOOP('',(#679));
#146=EDGE_LOOP('',(#680));
#147=EDGE_LOOP('',(#681,#682,#683,#684,#685,#686,#687));
#148=EDGE_LOOP('',(#688,#689,#690,#691,#692,#693));
#149=EDGE_LOOP('',(#694,#695,#696,#697,#698,#699));
#150=EDGE_LOOP('',(#700,#701,#702,#703));
#151=EDGE_LOOP('',(#704,#705,#706,#707,#708,#709,#710,#711,#712,#713,#714,
#715,#716,#717));
#152=EDGE_LOOP('',(#718,#719,#720,#721));
#153=EDGE_LOOP('',(#722,#723,#724,#725));
#154=EDGE_LOOP('',(#726,#727,#728,#729));
#155=EDGE_LOOP('',(#730,#731,#732,#733));
#156=EDGE_LOOP('',(#734,#735,#736,#737));
#157=EDGE_LOOP('',(#738,#739,#740,#741));
#158=EDGE_LOOP('',(#742,#743,#744,#745));
#159=EDGE_LOOP('',(#746,#747,#748,#749));
#160=EDGE_LOOP('',(#750,#751,#752,#753));
#161=EDGE_LOOP('',(#754,#755,#756,#757));
#162=EDGE_LOOP('',(#758,#759,#760,#761));
#163=EDGE_LOOP('',(#762,#763,#764,#765));
#164=EDGE_LOOP('',(#766,#767,#768,#769));
#165=EDGE_LOOP('',(#770,#771,#772,#773));
#166=EDGE_LOOP('',(#774,#775,#776,#777));
#167=EDGE_LOOP('',(#778,#779,#780,#781));
#168=EDGE_LOOP('',(#782,#783,#784,#785));
#169=EDGE_LOOP('',(#786,#787,#788,#789));
#170=EDGE_LOOP('',(#790,#791,#792,#793));
#171=EDGE_LOOP('',(#794,#795,#796,#797,#798));
#172=EDGE_LOOP('',(#799,#800,#801,#802,#803));
#173=EDGE_LOOP('',(#804,#805,#806,#807,#808,#809));
#174=EDGE_LOOP('',(#810));
#175=EDGE_LOOP('',(#811));
#176=EDGE_LOOP('',(#812,#813,#814,#815,#816));
#177=EDGE_LOOP('',(#817));
#178=EDGE_LOOP('',(#818));
#179=EDGE_LOOP('',(#819,#820,#821,#822,#823,#824,#825));
#180=EDGE_LOOP('',(#826,#827,#828,#829));
#181=EDGE_LOOP('',(#830,#831,#832,#833));
#182=EDGE_LOOP('',(#834,#835,#836,#837));
#183=EDGE_LOOP('',(#838,#839,#840,#841,#842,#843));
#184=EDGE_LOOP('',(#844,#845,#846,#847));
#185=EDGE_LOOP('',(#848,#849,#850,#851,#852,#853));
#186=CIRCLE('',#942,9.00000000000001);
#187=CIRCLE('',#943,2.);
#188=CIRCLE('',#944,0.99999999999999);
#189=CIRCLE('',#945,8.99999999999999);
#190=CIRCLE('',#946,9.00000000000001);
#191=CIRCLE('',#948,4.);
#192=CIRCLE('',#949,4.);
#193=CIRCLE('',#951,4.);
#194=CIRCLE('',#952,5.00000000000001);
#195=CIRCLE('',#954,4.);
#196=CIRCLE('',#956,4.);
#197=CIRCLE('',#957,4.99999999999999);
#198=CIRCLE('',#959,4.);
#199=CIRCLE('',#960,4.00000000000002);
#200=CIRCLE('',#961,4.99999999999999);
#201=CIRCLE('',#963,4.);
#202=CIRCLE('',#965,4.);
#203=CIRCLE('',#967,4.);
#204=CIRCLE('',#968,4.);
#205=CIRCLE('',#970,4.);
#206=CIRCLE('',#971,5.00000000000001);
#207=CIRCLE('',#973,4.);
#208=CIRCLE('',#975,4.);
#209=CIRCLE('',#976,2.);
#210=CIRCLE('',#977,4.99999999999999);
#211=CIRCLE('',#979,2.);
#212=CIRCLE('',#980,2.);
#213=CIRCLE('',#981,2.);
#214=CIRCLE('',#983,2.);
#215=CIRCLE('',#984,5.);
#216=CIRCLE('',#985,5.);
#217=CIRCLE('',#986,2.5);
#218=CIRCLE('',#987,2.5);
#219=CIRCLE('',#989,5.);
#220=CIRCLE('',#990,5.);
#221=CIRCLE('',#992,2.);
#222=CIRCLE('',#993,2.5);
#223=CIRCLE('',#994,2.5);
#224=CIRCLE('',#998,4.);
#225=CIRCLE('',#1000,4.);
#226=CIRCLE('',#1003,9.00000000000001);
#227=CIRCLE('',#1004,8.99999999999999);
#228=CIRCLE('',#1005,0.99999999999999);
#229=CIRCLE('',#1006,2.);
#230=CIRCLE('',#1007,9.00000000000001);
#231=CIRCLE('',#1009,4.);
#232=CIRCLE('',#1011,4.);
#233=CIRCLE('',#1012,5.00000000000001);
#234=CIRCLE('',#1014,4.);
#235=CIRCLE('',#1016,4.);
#236=CIRCLE('',#1017,4.99999999999999);
#237=CIRCLE('',#1019,4.);
#238=CIRCLE('',#1020,4.00000000000002);
#239=CIRCLE('',#1021,4.99999999999999);
#240=CIRCLE('',#1023,4.);
#241=CIRCLE('',#1025,4.);
#242=CIRCLE('',#1027,4.);
#243=CIRCLE('',#1028,4.);
#244=CIRCLE('',#1030,4.);
#245=CIRCLE('',#1031,5.00000000000001);
#246=CIRCLE('',#1034,4.);
#247=CIRCLE('',#1035,2.);
#248=CIRCLE('',#1036,4.99999999999999);
#249=CIRCLE('',#1043,2.);
#250=CIRCLE('',#1044,2.);
#251=CIRCLE('',#1045,2.);
#252=CIRCLE('',#1047,2.);
#253=CIRCLE('',#1048,5.);
#254=CIRCLE('',#1049,2.5);
#255=CIRCLE('',#1050,2.5);
#256=CIRCLE('',#1051,5.);
#257=CIRCLE('',#1053,5.);
#258=CIRCLE('',#1054,5.);
#259=CIRCLE('',#1056,2.);
#260=CIRCLE('',#1057,2.5);
#261=CIRCLE('',#1058,2.5);
#262=LINE('',#1379,#316);
#263=LINE('',#1381,#317);
#264=LINE('',#1383,#318);
#265=LINE('',#1385,#319);
#266=LINE('',#1389,#320);
#267=LINE('',#1393,#321);
#268=LINE('',#1397,#322);
#269=LINE('',#1401,#323);
#270=LINE('',#1404,#324);
#271=LINE('',#1410,#325);
#272=LINE('',#1418,#326);
#273=LINE('',#1426,#327);
#274=LINE('',#1448,#328);
#275=LINE('',#1461,#329);
#276=LINE('',#1467,#330);
#277=LINE('',#1475,#331);
#278=LINE('',#1487,#332);
#279=LINE('',#1509,#333);
#280=LINE('',#1550,#334);
#281=LINE('',#1586,#335);
#282=LINE('',#1591,#336);
#283=LINE('',#1593,#337);
#284=LINE('',#1594,#338);
#285=LINE('',#1600,#339);
#286=LINE('',#1601,#340);
#287=LINE('',#1602,#341);
#288=LINE('',#1604,#342);
#289=LINE('',#1607,#343);
#290=LINE('',#1611,#344);
#291=LINE('',#1615,#345);
#292=LINE('',#1619,#346);
#293=LINE('',#1623,#347);
#294=LINE('',#1626,#348);
#295=LINE('',#1629,#349);
#296=LINE('',#1638,#350);
#297=LINE('',#1646,#351);
#298=LINE('',#1668,#352);
#299=LINE('',#1680,#353);
#300=LINE('',#1686,#354);
#301=LINE('',#1693,#355);
#302=LINE('',#1706,#356);
#303=LINE('',#1719,#357);
#304=LINE('',#1721,#358);
#305=LINE('',#1723,#359);
#306=LINE('',#1725,#360);
#307=LINE('',#1727,#361);
#308=LINE('',#1737,#362);
#309=LINE('',#1777,#363);
#310=LINE('',#1814,#364);
#311=LINE('',#1816,#365);
#312=LINE('',#1818,#366);
#313=LINE('',#1820,#367);
#314=LINE('',#1822,#368);
#315=LINE('',#1824,#369);
#316=VECTOR('',#1071,10.);
#317=VECTOR('',#1072,10.);
#318=VECTOR('',#1073,10.);
#319=VECTOR('',#1074,10.);
#320=VECTOR('',#1077,10.);
#321=VECTOR('',#1080,10.);
#322=VECTOR('',#1083,10.);
#323=VECTOR('',#1086,10.);
#324=VECTOR('',#1089,10.);
#325=VECTOR('',#1096,10.);
#326=VECTOR('',#1107,10.);
#327=VECTOR('',#1118,10.);
#328=VECTOR('',#1127,10.);
#329=VECTOR('',#1132,10.);
#330=VECTOR('',#1139,10.);
#331=VECTOR('',#1150,10.);
#332=VECTOR('',#1153,10.);
#333=VECTOR('',#1170,2.);
#334=VECTOR('',#1187,5.);
#335=VECTOR('',#1200,2.);
#336=VECTOR('',#1205,10.);
#337=VECTOR('',#1206,10.);
#338=VECTOR('',#1207,10.);
#339=VECTOR('',#1212,10.);
#340=VECTOR('',#1213,10.);
#341=VECTOR('',#1214,10.);
#342=VECTOR('',#1217,10.);
#343=VECTOR('',#1220,10.);
#344=VECTOR('',#1223,10.);
#345=VECTOR('',#1226,10.);
#346=VECTOR('',#1229,10.);
#347=VECTOR('',#1232,10.);
#348=VECTOR('',#1235,10.);
#349=VECTOR('',#1238,10.);
#350=VECTOR('',#1251,10.);
#351=VECTOR('',#1262,10.);
#352=VECTOR('',#1271,10.);
#353=VECTOR('',#1274,10.);
#354=VECTOR('',#1281,10.);
#355=VECTOR('',#1292,10.);
#356=VECTOR('',#1297,10.);
#357=VECTOR('',#1304,10.);
#358=VECTOR('',#1307,10.);
#359=VECTOR('',#1310,10.);
#360=VECTOR('',#1313,10.);
#361=VECTOR('',#1316,10.);
#362=VECTOR('',#1327,2.);
#363=VECTOR('',#1342,5.);
#364=VECTOR('',#1357,2.);
#365=VECTOR('',#1360,10.);
#366=VECTOR('',#1363,10.);
#367=VECTOR('',#1366,10.);
#368=VECTOR('',#1369,10.);
#369=VECTOR('',#1372,10.);
#370=VERTEX_POINT('',#1377);
#371=VERTEX_POINT('',#1378);
#372=VERTEX_POINT('',#1380);
#373=VERTEX_POINT('',#1382);
#374=VERTEX_POINT('',#1384);
#375=VERTEX_POINT('',#1386);
#376=VERTEX_POINT('',#1388);
#377=VERTEX_POINT('',#1390);
#378=VERTEX_POINT('',#1392);
#379=VERTEX_POINT('',#1394);
#380=VERTEX_POINT('',#1396);
#381=VERTEX_POINT('',#1398);
#382=VERTEX_POINT('',#1400);
#383=VERTEX_POINT('',#1402);
#384=VERTEX_POINT('',#1406);
#385=VERTEX_POINT('',#1408);
#386=VERTEX_POINT('',#1412);
#387=VERTEX_POINT('',#1416);
#388=VERTEX_POINT('',#1420);
#389=VERTEX_POINT('',#1424);
#390=VERTEX_POINT('',#1442);
#391=VERTEX_POINT('',#1446);
#392=VERTEX_POINT('',#1450);
#393=VERTEX_POINT('',#1459);
#394=VERTEX_POINT('',#1463);
#395=VERTEX_POINT('',#1465);
#396=VERTEX_POINT('',#1469);
#397=VERTEX_POINT('',#1473);
#398=VERTEX_POINT('',#1477);
#399=VERTEX_POINT('',#1486);
#400=VERTEX_POINT('',#1501);
#401=VERTEX_POINT('',#1502);
#402=VERTEX_POINT('',#1505);
#403=VERTEX_POINT('',#1508);
#404=VERTEX_POINT('',#1538);
#405=VERTEX_POINT('',#1539);
#406=VERTEX_POINT('',#1542);
#407=VERTEX_POINT('',#1546);
#408=VERTEX_POINT('',#1547);
#409=VERTEX_POINT('',#1552);
#410=VERTEX_POINT('',#1581);
#411=VERTEX_POINT('',#1588);
#412=VERTEX_POINT('',#1589);
#413=VERTEX_POINT('',#1592);
#414=VERTEX_POINT('',#1596);
#415=VERTEX_POINT('',#1597);
#416=VERTEX_POINT('',#1599);
#417=VERTEX_POINT('',#1606);
#418=VERTEX_POINT('',#1608);
#419=VERTEX_POINT('',#1610);
#420=VERTEX_POINT('',#1612);
#421=VERTEX_POINT('',#1614);
#422=VERTEX_POINT('',#1616);
#423=VERTEX_POINT('',#1618);
#424=VERTEX_POINT('',#1620);
#425=VERTEX_POINT('',#1622);
#426=VERTEX_POINT('',#1624);
#427=VERTEX_POINT('',#1628);
#428=VERTEX_POINT('',#1632);
#429=VERTEX_POINT('',#1636);
#430=VERTEX_POINT('',#1640);
#431=VERTEX_POINT('',#1644);
#432=VERTEX_POINT('',#1662);
#433=VERTEX_POINT('',#1666);
#434=VERTEX_POINT('',#1670);
#435=VERTEX_POINT('',#1679);
#436=VERTEX_POINT('',#1683);
#437=VERTEX_POINT('',#1685);
#438=VERTEX_POINT('',#1689);
#439=VERTEX_POINT('',#1695);
#440=VERTEX_POINT('',#1704);
#441=VERTEX_POINT('',#1729);
#442=VERTEX_POINT('',#1730);
#443=VERTEX_POINT('',#1732);
#444=VERTEX_POINT('',#1736);
#445=VERTEX_POINT('',#1766);
#446=VERTEX_POINT('',#1767);
#447=VERTEX_POINT('',#1769);
#448=VERTEX_POINT('',#1774);
#449=VERTEX_POINT('',#1775);
#450=VERTEX_POINT('',#1780);
#451=VERTEX_POINT('',#1809);
#452=EDGE_CURVE('',#370,#371,#262,.T.);
#453=EDGE_CURVE('',#370,#372,#263,.T.);
#454=EDGE_CURVE('',#372,#373,#264,.T.);
#455=EDGE_CURVE('',#374,#373,#265,.T.);
#456=EDGE_CURVE('',#374,#375,#186,.T.);
#457=EDGE_CURVE('',#375,#376,#266,.T.);
#458=EDGE_CURVE('',#377,#376,#187,.T.);
#459=EDGE_CURVE('',#377,#378,#267,.T.);
#460=EDGE_CURVE('',#378,#379,#188,.T.);
#461=EDGE_CURVE('',#379,#380,#268,.T.);
#462=EDGE_CURVE('',#380,#381,#189,.T.);
#463=EDGE_CURVE('',#381,#382,#269,.T.);
#464=EDGE_CURVE('',#382,#383,#190,.T.);
#465=EDGE_CURVE('',#383,#371,#270,.T.);
#466=EDGE_CURVE('',#371,#384,#191,.T.);
#467=EDGE_CURVE('',#385,#383,#192,.T.);
#468=EDGE_CURVE('',#384,#385,#271,.T.);
#469=EDGE_CURVE('',#386,#382,#193,.T.);
#470=EDGE_CURVE('',#385,#386,#194,.T.);
#471=EDGE_CURVE('',#387,#381,#195,.T.);
#472=EDGE_CURVE('',#386,#387,#272,.T.);
#473=EDGE_CURVE('',#388,#380,#196,.T.);
#474=EDGE_CURVE('',#387,#388,#197,.T.);
#475=EDGE_CURVE('',#389,#379,#198,.T.);
#476=EDGE_CURVE('',#388,#389,#273,.T.);
#477=EDGE_CURVE('',#390,#378,#199,.T.);
#478=EDGE_CURVE('',#389,#390,#200,.T.);
#479=EDGE_CURVE('',#391,#377,#201,.T.);
#480=EDGE_CURVE('',#390,#391,#274,.T.);
#481=EDGE_CURVE('',#392,#377,#21,.F.);
#482=EDGE_CURVE('',#393,#392,#202,.T.);
#483=EDGE_CURVE('',#391,#393,#275,.T.);
#484=EDGE_CURVE('',#376,#394,#203,.T.);
#485=EDGE_CURVE('',#395,#375,#204,.T.);
#486=EDGE_CURVE('',#394,#395,#276,.T.);
#487=EDGE_CURVE('',#396,#374,#205,.T.);
#488=EDGE_CURVE('',#395,#396,#206,.T.);
#489=EDGE_CURVE('',#373,#397,#207,.T.);
#490=EDGE_CURVE('',#396,#397,#277,.T.);
#491=EDGE_CURVE('',#376,#398,#22,.F.);
#492=EDGE_CURVE('',#399,#394,#278,.T.);
#493=EDGE_CURVE('',#398,#399,#208,.T.);
#494=EDGE_CURVE('',#398,#392,#209,.F.);
#495=EDGE_CURVE('',#393,#399,#210,.T.);
#496=EDGE_CURVE('',#400,#401,#211,.T.);
#497=EDGE_CURVE('',#401,#400,#212,.T.);
#498=EDGE_CURVE('',#401,#402,#213,.T.);
#499=EDGE_CURVE('',#400,#403,#279,.T.);
#500=EDGE_CURVE('',#403,#403,#214,.T.);
#501=EDGE_CURVE('',#404,#405,#215,.T.);
#502=EDGE_CURVE('',#405,#404,#216,.T.);
#503=EDGE_CURVE('',#405,#406,#217,.T.);
#504=EDGE_CURVE('',#406,#406,#218,.T.);
#505=EDGE_CURVE('',#407,#408,#219,.T.);
#506=EDGE_CURVE('',#408,#407,#220,.T.);
#507=EDGE_CURVE('',#407,#404,#280,.T.);
#508=EDGE_CURVE('',#409,#409,#221,.T.);
#509=EDGE_CURVE('',#410,#410,#222,.T.);
#510=EDGE_CURVE('',#410,#408,#223,.T.);
#511=EDGE_CURVE('',#409,#392,#281,.T.);
#512=EDGE_CURVE('',#411,#412,#224,.T.);
#513=EDGE_CURVE('',#412,#397,#282,.T.);
#514=EDGE_CURVE('',#413,#372,#283,.T.);
#515=EDGE_CURVE('',#413,#411,#284,.T.);
#516=EDGE_CURVE('',#414,#415,#225,.T.);
#517=EDGE_CURVE('',#416,#414,#285,.T.);
#518=EDGE_CURVE('',#416,#370,#286,.T.);
#519=EDGE_CURVE('',#384,#415,#287,.T.);
#520=EDGE_CURVE('',#416,#413,#288,.T.);
#521=EDGE_CURVE('',#417,#414,#289,.T.);
#522=EDGE_CURVE('',#418,#417,#226,.T.);
#523=EDGE_CURVE('',#419,#418,#290,.T.);
#524=EDGE_CURVE('',#420,#419,#227,.T.);
#525=EDGE_CURVE('',#421,#420,#291,.T.);
#526=EDGE_CURVE('',#422,#421,#228,.T.);
#527=EDGE_CURVE('',#423,#422,#292,.T.);
#528=EDGE_CURVE('',#423,#424,#229,.T.);
#529=EDGE_CURVE('',#425,#424,#293,.T.);
#530=EDGE_CURVE('',#426,#425,#230,.T.);
#531=EDGE_CURVE('',#426,#411,#294,.T.);
#532=EDGE_CURVE('',#415,#427,#295,.T.);
#533=EDGE_CURVE('',#427,#417,#231,.T.);
#534=EDGE_CURVE('',#428,#418,#232,.T.);
#535=EDGE_CURVE('',#427,#428,#233,.T.);
#536=EDGE_CURVE('',#429,#419,#234,.T.);
#537=EDGE_CURVE('',#428,#429,#296,.T.);
#538=EDGE_CURVE('',#430,#420,#235,.T.);
#539=EDGE_CURVE('',#429,#430,#236,.T.);
#540=EDGE_CURVE('',#431,#421,#237,.T.);
#541=EDGE_CURVE('',#430,#431,#297,.T.);
#542=EDGE_CURVE('',#432,#422,#238,.T.);
#543=EDGE_CURVE('',#431,#432,#239,.T.);
#544=EDGE_CURVE('',#433,#423,#240,.T.);
#545=EDGE_CURVE('',#432,#433,#298,.T.);
#546=EDGE_CURVE('',#434,#423,#23,.F.);
#547=EDGE_CURVE('',#433,#435,#299,.T.);
#548=EDGE_CURVE('',#435,#434,#241,.T.);
#549=EDGE_CURVE('',#424,#436,#242,.T.);
#550=EDGE_CURVE('',#436,#437,#300,.T.);
#551=EDGE_CURVE('',#437,#425,#243,.T.);
#552=EDGE_CURVE('',#438,#426,#244,.T.);
#553=EDGE_CURVE('',#437,#438,#245,.T.);
#554=EDGE_CURVE('',#438,#412,#301,.T.);
#555=EDGE_CURVE('',#424,#439,#24,.F.);
#556=EDGE_CURVE('',#439,#440,#246,.T.);
#557=EDGE_CURVE('',#440,#436,#302,.T.);
#558=EDGE_CURVE('',#439,#434,#247,.F.);
#559=EDGE_CURVE('',#435,#440,#248,.T.);
#560=EDGE_CURVE('',#385,#427,#303,.T.);
#561=EDGE_CURVE('',#386,#428,#304,.T.);
#562=EDGE_CURVE('',#387,#429,#305,.T.);
#563=EDGE_CURVE('',#388,#430,#306,.T.);
#564=EDGE_CURVE('',#389,#431,#307,.T.);
#565=EDGE_CURVE('',#441,#442,#249,.T.);
#566=EDGE_CURVE('',#442,#443,#250,.T.);
#567=EDGE_CURVE('',#442,#441,#251,.T.);
#568=EDGE_CURVE('',#441,#444,#308,.T.);
#569=EDGE_CURVE('',#444,#444,#252,.T.);
#570=EDGE_CURVE('',#445,#446,#253,.T.);
#571=EDGE_CURVE('',#446,#447,#254,.T.);
#572=EDGE_CURVE('',#447,#447,#255,.T.);
#573=EDGE_CURVE('',#446,#445,#256,.T.);
#574=EDGE_CURVE('',#448,#449,#257,.T.);
#575=EDGE_CURVE('',#448,#445,#309,.T.);
#576=EDGE_CURVE('',#449,#448,#258,.T.);
#577=EDGE_CURVE('',#450,#450,#259,.T.);
#578=EDGE_CURVE('',#451,#451,#260,.T.);
#579=EDGE_CURVE('',#451,#449,#261,.T.);
#580=EDGE_CURVE('',#450,#434,#310,.T.);
#581=EDGE_CURVE('',#390,#432,#311,.T.);
#582=EDGE_CURVE('',#438,#396,#312,.T.);
#583=EDGE_CURVE('',#437,#395,#313,.T.);
#584=EDGE_CURVE('',#440,#399,#314,.T.);
#585=EDGE_CURVE('',#435,#393,#315,.T.);
#586=ORIENTED_EDGE('',*,*,#452,.F.);
#587=ORIENTED_EDGE('',*,*,#453,.T.);
#588=ORIENTED_EDGE('',*,*,#454,.T.);
#589=ORIENTED_EDGE('',*,*,#455,.F.);
#590=ORIENTED_EDGE('',*,*,#456,.T.);
#591=ORIENTED_EDGE('',*,*,#457,.T.);
#592=ORIENTED_EDGE('',*,*,#458,.F.);
#593=ORIENTED_EDGE('',*,*,#459,.T.);
#594=ORIENTED_EDGE('',*,*,#460,.T.);
#595=ORIENTED_EDGE('',*,*,#461,.T.);
#596=ORIENTED_EDGE('',*,*,#462,.T.);
#597=ORIENTED_EDGE('',*,*,#463,.T.);
#598=ORIENTED_EDGE('',*,*,#464,.T.);
#599=ORIENTED_EDGE('',*,*,#465,.T.);
#600=ORIENTED_EDGE('',*,*,#466,.F.);
#601=ORIENTED_EDGE('',*,*,#465,.F.);
#602=ORIENTED_EDGE('',*,*,#467,.F.);
#603=ORIENTED_EDGE('',*,*,#468,.F.);
#604=ORIENTED_EDGE('',*,*,#469,.F.);
#605=ORIENTED_EDGE('',*,*,#470,.F.);
#606=ORIENTED_EDGE('',*,*,#467,.T.);
#607=ORIENTED_EDGE('',*,*,#464,.F.);
#608=ORIENTED_EDGE('',*,*,#471,.F.);
#609=ORIENTED_EDGE('',*,*,#472,.F.);
#610=ORIENTED_EDGE('',*,*,#469,.T.);
#611=ORIENTED_EDGE('',*,*,#463,.F.);
#612=ORIENTED_EDGE('',*,*,#473,.F.);
#613=ORIENTED_EDGE('',*,*,#474,.F.);
#614=ORIENTED_EDGE('',*,*,#471,.T.);
#615=ORIENTED_EDGE('',*,*,#462,.F.);
#616=ORIENTED_EDGE('',*,*,#475,.F.);
#617=ORIENTED_EDGE('',*,*,#476,.F.);
#618=ORIENTED_EDGE('',*,*,#473,.T.);
#619=ORIENTED_EDGE('',*,*,#461,.F.);
#620=ORIENTED_EDGE('',*,*,#477,.F.);
#621=ORIENTED_EDGE('',*,*,#478,.F.);
#622=ORIENTED_EDGE('',*,*,#475,.T.);
#623=ORIENTED_EDGE('',*,*,#460,.F.);
#624=ORIENTED_EDGE('',*,*,#479,.F.);
#625=ORIENTED_EDGE('',*,*,#480,.F.);
#626=ORIENTED_EDGE('',*,*,#477,.T.);
#627=ORIENTED_EDGE('',*,*,#459,.F.);
#628=ORIENTED_EDGE('',*,*,#481,.F.);
#629=ORIENTED_EDGE('',*,*,#482,.F.);
#630=ORIENTED_EDGE('',*,*,#483,.F.);
#631=ORIENTED_EDGE('',*,*,#479,.T.);
#632=ORIENTED_EDGE('',*,*,#484,.F.);
#633=ORIENTED_EDGE('',*,*,#457,.F.);
#634=ORIENTED_EDGE('',*,*,#485,.F.);
#635=ORIENTED_EDGE('',*,*,#486,.F.);
#636=ORIENTED_EDGE('',*,*,#487,.F.);
#637=ORIENTED_EDGE('',*,*,#488,.F.);
#638=ORIENTED_EDGE('',*,*,#485,.T.);
#639=ORIENTED_EDGE('',*,*,#456,.F.);
#640=ORIENTED_EDGE('',*,*,#455,.T.);
#641=ORIENTED_EDGE('',*,*,#489,.T.);
#642=ORIENTED_EDGE('',*,*,#490,.F.);
#643=ORIENTED_EDGE('',*,*,#487,.T.);
#644=ORIENTED_EDGE('',*,*,#491,.F.);
#645=ORIENTED_EDGE('',*,*,#484,.T.);
#646=ORIENTED_EDGE('',*,*,#492,.F.);
#647=ORIENTED_EDGE('',*,*,#493,.F.);
#648=ORIENTED_EDGE('',*,*,#494,.F.);
#649=ORIENTED_EDGE('',*,*,#493,.T.);
#650=ORIENTED_EDGE('',*,*,#495,.F.);
#651=ORIENTED_EDGE('',*,*,#482,.T.);
#652=ORIENTED_EDGE('',*,*,#496,.F.);
#653=ORIENTED_EDGE('',*,*,#497,.F.);
#654=ORIENTED_EDGE('',*,*,#498,.T.);
#655=ORIENTED_EDGE('',*,*,#498,.F.);
#656=ORIENTED_EDGE('',*,*,#496,.T.);
#657=ORIENTED_EDGE('',*,*,#497,.T.);
#658=ORIENTED_EDGE('',*,*,#499,.T.);
#659=ORIENTED_EDGE('',*,*,#500,.F.);
#660=ORIENTED_EDGE('',*,*,#499,.F.);
#661=ORIENTED_EDGE('',*,*,#501,.F.);
#662=ORIENTED_EDGE('',*,*,#502,.F.);
#663=ORIENTED_EDGE('',*,*,#503,.T.);
#664=ORIENTED_EDGE('',*,*,#504,.F.);
#665=ORIENTED_EDGE('',*,*,#503,.F.);
#666=ORIENTED_EDGE('',*,*,#505,.T.);
#667=ORIENTED_EDGE('',*,*,#506,.T.);
#668=ORIENTED_EDGE('',*,*,#507,.T.);
#669=ORIENTED_EDGE('',*,*,#501,.T.);
#670=ORIENTED_EDGE('',*,*,#502,.T.);
#671=ORIENTED_EDGE('',*,*,#507,.F.);
#672=ORIENTED_EDGE('',*,*,#504,.T.);
#673=ORIENTED_EDGE('',*,*,#508,.T.);
#674=ORIENTED_EDGE('',*,*,#509,.F.);
#675=ORIENTED_EDGE('',*,*,#510,.T.);
#676=ORIENTED_EDGE('',*,*,#505,.F.);
#677=ORIENTED_EDGE('',*,*,#506,.F.);
#678=ORIENTED_EDGE('',*,*,#510,.F.);
#679=ORIENTED_EDGE('',*,*,#509,.T.);
#680=ORIENTED_EDGE('',*,*,#500,.T.);
#681=ORIENTED_EDGE('',*,*,#508,.F.);
#682=ORIENTED_EDGE('',*,*,#511,.T.);
#683=ORIENTED_EDGE('',*,*,#481,.T.);
#684=ORIENTED_EDGE('',*,*,#458,.T.);
#685=ORIENTED_EDGE('',*,*,#491,.T.);
#686=ORIENTED_EDGE('',*,*,#494,.T.);
#687=ORIENTED_EDGE('',*,*,#511,.F.);
#688=ORIENTED_EDGE('',*,*,#512,.T.);
#689=ORIENTED_EDGE('',*,*,#513,.T.);
#690=ORIENTED_EDGE('',*,*,#489,.F.);
#691=ORIENTED_EDGE('',*,*,#454,.F.);
#692=ORIENTED_EDGE('',*,*,#514,.F.);
#693=ORIENTED_EDGE('',*,*,#515,.T.);
#694=ORIENTED_EDGE('',*,*,#516,.F.);
#695=ORIENTED_EDGE('',*,*,#517,.F.);
#696=ORIENTED_EDGE('',*,*,#518,.T.);
#697=ORIENTED_EDGE('',*,*,#452,.T.);
#698=ORIENTED_EDGE('',*,*,#466,.T.);
#699=ORIENTED_EDGE('',*,*,#519,.T.);
#700=ORIENTED_EDGE('',*,*,#518,.F.);
#701=ORIENTED_EDGE('',*,*,#520,.T.);
#702=ORIENTED_EDGE('',*,*,#514,.T.);
#703=ORIENTED_EDGE('',*,*,#453,.F.);
#704=ORIENTED_EDGE('',*,*,#517,.T.);
#705=ORIENTED_EDGE('',*,*,#521,.F.);
#706=ORIENTED_EDGE('',*,*,#522,.F.);
#707=ORIENTED_EDGE('',*,*,#523,.F.);
#708=ORIENTED_EDGE('',*,*,#524,.F.);
#709=ORIENTED_EDGE('',*,*,#525,.F.);
#710=ORIENTED_EDGE('',*,*,#526,.F.);
#711=ORIENTED_EDGE('',*,*,#527,.F.);
#712=ORIENTED_EDGE('',*,*,#528,.T.);
#713=ORIENTED_EDGE('',*,*,#529,.F.);
#714=ORIENTED_EDGE('',*,*,#530,.F.);
#715=ORIENTED_EDGE('',*,*,#531,.T.);
#716=ORIENTED_EDGE('',*,*,#515,.F.);
#717=ORIENTED_EDGE('',*,*,#520,.F.);
#718=ORIENTED_EDGE('',*,*,#516,.T.);
#719=ORIENTED_EDGE('',*,*,#532,.T.);
#720=ORIENTED_EDGE('',*,*,#533,.T.);
#721=ORIENTED_EDGE('',*,*,#521,.T.);
#722=ORIENTED_EDGE('',*,*,#534,.T.);
#723=ORIENTED_EDGE('',*,*,#522,.T.);
#724=ORIENTED_EDGE('',*,*,#533,.F.);
#725=ORIENTED_EDGE('',*,*,#535,.T.);
#726=ORIENTED_EDGE('',*,*,#536,.T.);
#727=ORIENTED_EDGE('',*,*,#523,.T.);
#728=ORIENTED_EDGE('',*,*,#534,.F.);
#729=ORIENTED_EDGE('',*,*,#537,.T.);
#730=ORIENTED_EDGE('',*,*,#538,.T.);
#731=ORIENTED_EDGE('',*,*,#524,.T.);
#732=ORIENTED_EDGE('',*,*,#536,.F.);
#733=ORIENTED_EDGE('',*,*,#539,.T.);
#734=ORIENTED_EDGE('',*,*,#540,.T.);
#735=ORIENTED_EDGE('',*,*,#525,.T.);
#736=ORIENTED_EDGE('',*,*,#538,.F.);
#737=ORIENTED_EDGE('',*,*,#541,.T.);
#738=ORIENTED_EDGE('',*,*,#542,.T.);
#739=ORIENTED_EDGE('',*,*,#526,.T.);
#740=ORIENTED_EDGE('',*,*,#540,.F.);
#741=ORIENTED_EDGE('',*,*,#543,.T.);
#742=ORIENTED_EDGE('',*,*,#544,.T.);
#743=ORIENTED_EDGE('',*,*,#527,.T.);
#744=ORIENTED_EDGE('',*,*,#542,.F.);
#745=ORIENTED_EDGE('',*,*,#545,.T.);
#746=ORIENTED_EDGE('',*,*,#546,.T.);
#747=ORIENTED_EDGE('',*,*,#544,.F.);
#748=ORIENTED_EDGE('',*,*,#547,.T.);
#749=ORIENTED_EDGE('',*,*,#548,.T.);
#750=ORIENTED_EDGE('',*,*,#549,.T.);
#751=ORIENTED_EDGE('',*,*,#550,.T.);
#752=ORIENTED_EDGE('',*,*,#551,.T.);
#753=ORIENTED_EDGE('',*,*,#529,.T.);
#754=ORIENTED_EDGE('',*,*,#552,.T.);
#755=ORIENTED_EDGE('',*,*,#530,.T.);
#756=ORIENTED_EDGE('',*,*,#551,.F.);
#757=ORIENTED_EDGE('',*,*,#553,.T.);
#758=ORIENTED_EDGE('',*,*,#531,.F.);
#759=ORIENTED_EDGE('',*,*,#552,.F.);
#760=ORIENTED_EDGE('',*,*,#554,.T.);
#761=ORIENTED_EDGE('',*,*,#512,.F.);
#762=ORIENTED_EDGE('',*,*,#555,.T.);
#763=ORIENTED_EDGE('',*,*,#556,.T.);
#764=ORIENTED_EDGE('',*,*,#557,.T.);
#765=ORIENTED_EDGE('',*,*,#549,.F.);
#766=ORIENTED_EDGE('',*,*,#558,.T.);
#767=ORIENTED_EDGE('',*,*,#548,.F.);
#768=ORIENTED_EDGE('',*,*,#559,.T.);
#769=ORIENTED_EDGE('',*,*,#556,.F.);
#770=ORIENTED_EDGE('',*,*,#519,.F.);
#771=ORIENTED_EDGE('',*,*,#468,.T.);
#772=ORIENTED_EDGE('',*,*,#560,.T.);
#773=ORIENTED_EDGE('',*,*,#532,.F.);
#774=ORIENTED_EDGE('',*,*,#535,.F.);
#775=ORIENTED_EDGE('',*,*,#560,.F.);
#776=ORIENTED_EDGE('',*,*,#470,.T.);
#777=ORIENTED_EDGE('',*,*,#561,.T.);
#778=ORIENTED_EDGE('',*,*,#537,.F.);
#779=ORIENTED_EDGE('',*,*,#561,.F.);
#780=ORIENTED_EDGE('',*,*,#472,.T.);
#781=ORIENTED_EDGE('',*,*,#562,.T.);
#782=ORIENTED_EDGE('',*,*,#539,.F.);
#783=ORIENTED_EDGE('',*,*,#562,.F.);
#784=ORIENTED_EDGE('',*,*,#474,.T.);
#785=ORIENTED_EDGE('',*,*,#563,.T.);
#786=ORIENTED_EDGE('',*,*,#541,.F.);
#787=ORIENTED_EDGE('',*,*,#563,.F.);
#788=ORIENTED_EDGE('',*,*,#476,.T.);
#789=ORIENTED_EDGE('',*,*,#564,.T.);
#790=ORIENTED_EDGE('',*,*,#565,.T.);
#791=ORIENTED_EDGE('',*,*,#566,.T.);
#792=ORIENTED_EDGE('',*,*,#566,.F.);
#793=ORIENTED_EDGE('',*,*,#567,.T.);
#794=ORIENTED_EDGE('',*,*,#565,.F.);
#795=ORIENTED_EDGE('',*,*,#568,.T.);
#796=ORIENTED_EDGE('',*,*,#569,.T.);
#797=ORIENTED_EDGE('',*,*,#568,.F.);
#798=ORIENTED_EDGE('',*,*,#567,.F.);
#799=ORIENTED_EDGE('',*,*,#570,.T.);
#800=ORIENTED_EDGE('',*,*,#571,.T.);
#801=ORIENTED_EDGE('',*,*,#572,.T.);
#802=ORIENTED_EDGE('',*,*,#571,.F.);
#803=ORIENTED_EDGE('',*,*,#573,.T.);
#804=ORIENTED_EDGE('',*,*,#574,.F.);
#805=ORIENTED_EDGE('',*,*,#575,.T.);
#806=ORIENTED_EDGE('',*,*,#573,.F.);
#807=ORIENTED_EDGE('',*,*,#570,.F.);
#808=ORIENTED_EDGE('',*,*,#575,.F.);
#809=ORIENTED_EDGE('',*,*,#576,.F.);
#810=ORIENTED_EDGE('',*,*,#572,.F.);
#811=ORIENTED_EDGE('',*,*,#577,.F.);
#812=ORIENTED_EDGE('',*,*,#578,.T.);
#813=ORIENTED_EDGE('',*,*,#579,.T.);
#814=ORIENTED_EDGE('',*,*,#576,.T.);
#815=ORIENTED_EDGE('',*,*,#574,.T.);
#816=ORIENTED_EDGE('',*,*,#579,.F.);
#817=ORIENTED_EDGE('',*,*,#578,.F.);
#818=ORIENTED_EDGE('',*,*,#569,.F.);
#819=ORIENTED_EDGE('',*,*,#577,.T.);
#820=ORIENTED_EDGE('',*,*,#580,.T.);
#821=ORIENTED_EDGE('',*,*,#558,.F.);
#822=ORIENTED_EDGE('',*,*,#555,.F.);
#823=ORIENTED_EDGE('',*,*,#528,.F.);
#824=ORIENTED_EDGE('',*,*,#546,.F.);
#825=ORIENTED_EDGE('',*,*,#580,.F.);
#826=ORIENTED_EDGE('',*,*,#543,.F.);
#827=ORIENTED_EDGE('',*,*,#564,.F.);
#828=ORIENTED_EDGE('',*,*,#478,.T.);
#829=ORIENTED_EDGE('',*,*,#581,.T.);
#830=ORIENTED_EDGE('',*,*,#554,.F.);
#831=ORIENTED_EDGE('',*,*,#582,.T.);
#832=ORIENTED_EDGE('',*,*,#490,.T.);
#833=ORIENTED_EDGE('',*,*,#513,.F.);
#834=ORIENTED_EDGE('',*,*,#553,.F.);
#835=ORIENTED_EDGE('',*,*,#583,.T.);
#836=ORIENTED_EDGE('',*,*,#488,.T.);
#837=ORIENTED_EDGE('',*,*,#582,.F.);
#838=ORIENTED_EDGE('',*,*,#557,.F.);
#839=ORIENTED_EDGE('',*,*,#584,.T.);
#840=ORIENTED_EDGE('',*,*,#492,.T.);
#841=ORIENTED_EDGE('',*,*,#486,.T.);
#842=ORIENTED_EDGE('',*,*,#583,.F.);
#843=ORIENTED_EDGE('',*,*,#550,.F.);
#844=ORIENTED_EDGE('',*,*,#559,.F.);
#845=ORIENTED_EDGE('',*,*,#585,.T.);
#846=ORIENTED_EDGE('',*,*,#495,.T.);
#847=ORIENTED_EDGE('',*,*,#584,.F.);
#848=ORIENTED_EDGE('',*,*,#545,.F.);
#849=ORIENTED_EDGE('',*,*,#581,.F.);
#850=ORIENTED_EDGE('',*,*,#480,.T.);
#851=ORIENTED_EDGE('',*,*,#483,.T.);
#852=ORIENTED_EDGE('',*,*,#585,.F.);
#853=ORIENTED_EDGE('',*,*,#547,.F.);
#854=PLANE('',#941);
#855=PLANE('',#991);
#856=PLANE('',#995);
#857=PLANE('',#997);
#858=PLANE('',#999);
#859=PLANE('',#1001);
#860=PLANE('',#1002);
#861=PLANE('',#1037);
#862=PLANE('',#1039);
#863=PLANE('',#1041);
#864=PLANE('',#1055);
#865=PLANE('',#1059);
#866=PLANE('',#1062);
#867=PLANE('',#1064);
#868=PLANE('',#1066);
#869=ADVANCED_FACE('',(#66),#854,.F.);
#870=ADVANCED_FACE('',(#67),#39,.T.);
#871=ADVANCED_FACE('',(#68),#33,.T.);
#872=ADVANCED_FACE('',(#69),#40,.T.);
#873=ADVANCED_FACE('',(#70),#34,.T.);
#874=ADVANCED_FACE('',(#71),#41,.T.);
#875=ADVANCED_FACE('',(#72),#25,.T.);
#876=ADVANCED_FACE('',(#73),#42,.T.);
#877=ADVANCED_FACE('',(#74),#43,.T.);
#878=ADVANCED_FACE('',(#75),#44,.T.);
#879=ADVANCED_FACE('',(#76),#35,.T.);
#880=ADVANCED_FACE('',(#77),#45,.T.);
#881=ADVANCED_FACE('',(#78),#46,.T.);
#882=ADVANCED_FACE('',(#79),#26,.T.);
#883=ADVANCED_FACE('',(#80),#19,.T.);
#884=ADVANCED_FACE('',(#81),#47,.T.);
#885=ADVANCED_FACE('',(#82),#27,.T.);
#886=ADVANCED_FACE('',(#83),#48,.T.);
#887=ADVANCED_FACE('',(#84,#15),#855,.T.);
#888=ADVANCED_FACE('',(#85),#28,.T.);
#889=ADVANCED_FACE('',(#86,#16),#856,.F.);
#890=ADVANCED_FACE('',(#87),#49,.T.);
#891=ADVANCED_FACE('',(#88),#857,.T.);
#892=ADVANCED_FACE('',(#89),#858,.T.);
#893=ADVANCED_FACE('',(#90),#859,.T.);
#894=ADVANCED_FACE('',(#91),#860,.T.);
#895=ADVANCED_FACE('',(#92),#50,.T.);
#896=ADVANCED_FACE('',(#93),#36,.T.);
#897=ADVANCED_FACE('',(#94),#51,.T.);
#898=ADVANCED_FACE('',(#95),#37,.T.);
#899=ADVANCED_FACE('',(#96),#52,.T.);
#900=ADVANCED_FACE('',(#97),#29,.F.);
#901=ADVANCED_FACE('',(#98),#53,.T.);
#902=ADVANCED_FACE('',(#99),#54,.T.);
#903=ADVANCED_FACE('',(#100),#55,.T.);
#904=ADVANCED_FACE('',(#101),#38,.T.);
#905=ADVANCED_FACE('',(#102),#56,.T.);
#906=ADVANCED_FACE('',(#103),#57,.T.);
#907=ADVANCED_FACE('',(#104),#30,.F.);
#908=ADVANCED_FACE('',(#105),#861,.T.);
#909=ADVANCED_FACE('',(#106),#58,.F.);
#910=ADVANCED_FACE('',(#107),#862,.T.);
#911=ADVANCED_FACE('',(#108),#59,.F.);
#912=ADVANCED_FACE('',(#109),#863,.T.);
#913=ADVANCED_FACE('',(#110),#20,.T.);
#914=ADVANCED_FACE('',(#111),#60,.T.);
#915=ADVANCED_FACE('',(#112),#31,.F.);
#916=ADVANCED_FACE('',(#113),#61,.T.);
#917=ADVANCED_FACE('',(#114,#17),#864,.F.);
#918=ADVANCED_FACE('',(#115),#32,.F.);
#919=ADVANCED_FACE('',(#116,#18),#865,.T.);
#920=ADVANCED_FACE('',(#117),#62,.T.);
#921=ADVANCED_FACE('',(#118),#63,.T.);
#922=ADVANCED_FACE('',(#119),#866,.T.);
#923=ADVANCED_FACE('',(#120),#64,.F.);
#924=ADVANCED_FACE('',(#121),#867,.T.);
#925=ADVANCED_FACE('',(#122),#65,.T.);
#926=ADVANCED_FACE('',(#123),#868,.T.);
#927=CLOSED_SHELL('',(#869,#870,#871,#872,#873,#874,#875,#876,#877,#878,
#879,#880,#881,#882,#883,#884,#885,#886,#887,#888,#889,#890,#891,#892,#893,
#894,#895,#896,#897,#898,#899,#900,#901,#902,#903,#904,#905,#906,#907,#908,
#909,#910,#911,#912,#913,#914,#915,#916,#917,#918,#919,#920,#921,#922,#923,
#924,#925,#926));
#928=DERIVED_UNIT_ELEMENT(#930,1.);
#929=DERIVED_UNIT_ELEMENT(#1831,-3.);
#930=(
MASS_UNIT()
NAMED_UNIT(*)
SI_UNIT(.KILO.,.GRAM.)
);
#931=DERIVED_UNIT((#928,#929));
#932=MEASURE_REPRESENTATION_ITEM('density measure',
POSITIVE_RATIO_MEASURE(7850.),#931);
#933=PROPERTY_DEFINITION_REPRESENTATION(#938,#935);
#934=PROPERTY_DEFINITION_REPRESENTATION(#939,#936);
#935=REPRESENTATION('material name',(#937),#1828);
#936=REPRESENTATION('density',(#932),#1828);
#937=DESCRIPTIVE_REPRESENTATION_ITEM('Steel','Steel');
#938=PROPERTY_DEFINITION('material property','material name',#1838);
#939=PROPERTY_DEFINITION('material property','density of part',#1838);
#940=AXIS2_PLACEMENT_3D('',#1375,#1067,#1068);
#941=AXIS2_PLACEMENT_3D('',#1376,#1069,#1070);
#942=AXIS2_PLACEMENT_3D('',#1387,#1075,#1076);
#943=AXIS2_PLACEMENT_3D('',#1391,#1078,#1079);
#944=AXIS2_PLACEMENT_3D('',#1395,#1081,#1082);
#945=AXIS2_PLACEMENT_3D('',#1399,#1084,#1085);
#946=AXIS2_PLACEMENT_3D('',#1403,#1087,#1088);
#947=AXIS2_PLACEMENT_3D('',#1405,#1090,#1091);
#948=AXIS2_PLACEMENT_3D('',#1407,#1092,#1093);
#949=AXIS2_PLACEMENT_3D('',#1409,#1094,#1095);
#950=AXIS2_PLACEMENT_3D('',#1411,#1097,#1098);
#951=AXIS2_PLACEMENT_3D('',#1413,#1099,#1100);
#952=AXIS2_PLACEMENT_3D('',#1414,#1101,#1102);
#953=AXIS2_PLACEMENT_3D('',#1415,#1103,#1104);
#954=AXIS2_PLACEMENT_3D('',#1417,#1105,#1106);
#955=AXIS2_PLACEMENT_3D('',#1419,#1108,#1109);
#956=AXIS2_PLACEMENT_3D('',#1421,#1110,#1111);
#957=AXIS2_PLACEMENT_3D('',#1422,#1112,#1113);
#958=AXIS2_PLACEMENT_3D('',#1423,#1114,#1115);
#959=AXIS2_PLACEMENT_3D('',#1425,#1116,#1117);
#960=AXIS2_PLACEMENT_3D('',#1443,#1119,#1120);
#961=AXIS2_PLACEMENT_3D('',#1444,#1121,#1122);
#962=AXIS2_PLACEMENT_3D('',#1445,#1123,#1124);
#963=AXIS2_PLACEMENT_3D('',#1447,#1125,#1126);
#964=AXIS2_PLACEMENT_3D('',#1449,#1128,#1129);
#965=AXIS2_PLACEMENT_3D('',#1460,#1130,#1131);
#966=AXIS2_PLACEMENT_3D('',#1462,#1133,#1134);
#967=AXIS2_PLACEMENT_3D('',#1464,#1135,#1136);
#968=AXIS2_PLACEMENT_3D('',#1466,#1137,#1138);
#969=AXIS2_PLACEMENT_3D('',#1468,#1140,#1141);
#970=AXIS2_PLACEMENT_3D('',#1470,#1142,#1143);
#971=AXIS2_PLACEMENT_3D('',#1471,#1144,#1145);
#972=AXIS2_PLACEMENT_3D('',#1472,#1146,#1147);
#973=AXIS2_PLACEMENT_3D('',#1474,#1148,#1149);
#974=AXIS2_PLACEMENT_3D('',#1476,#1151,#1152);
#975=AXIS2_PLACEMENT_3D('',#1488,#1154,#1155);
#976=AXIS2_PLACEMENT_3D('',#1498,#1156,#1157);
#977=AXIS2_PLACEMENT_3D('',#1499,#1158,#1159);
#978=AXIS2_PLACEMENT_3D('',#1500,#1160,#1161);
#979=AXIS2_PLACEMENT_3D('',#1503,#1162,#1163);
#980=AXIS2_PLACEMENT_3D('',#1504,#1164,#1165);
#981=AXIS2_PLACEMENT_3D('',#1506,#1166,#1167);
#982=AXIS2_PLACEMENT_3D('',#1507,#1168,#1169);
#983=AXIS2_PLACEMENT_3D('',#1510,#1171,#1172);
#984=AXIS2_PLACEMENT_3D('',#1540,#1173,#1174);
#985=AXIS2_PLACEMENT_3D('',#1541,#1175,#1176);
#986=AXIS2_PLACEMENT_3D('',#1543,#1177,#1178);
#987=AXIS2_PLACEMENT_3D('',#1544,#1179,#1180);
#988=AXIS2_PLACEMENT_3D('',#1545,#1181,#1182);
#989=AXIS2_PLACEMENT_3D('',#1548,#1183,#1184);
#990=AXIS2_PLACEMENT_3D('',#1549,#1185,#1186);
#991=AXIS2_PLACEMENT_3D('',#1551,#1188,#1189);
#992=AXIS2_PLACEMENT_3D('',#1553,#1190,#1191);
#993=AXIS2_PLACEMENT_3D('',#1582,#1192,#1193);
#994=AXIS2_PLACEMENT_3D('',#1583,#1194,#1195);
#995=AXIS2_PLACEMENT_3D('',#1584,#1196,#1197);
#996=AXIS2_PLACEMENT_3D('',#1585,#1198,#1199);
#997=AXIS2_PLACEMENT_3D('',#1587,#1201,#1202);
#998=AXIS2_PLACEMENT_3D('',#1590,#1203,#1204);
#999=AXIS2_PLACEMENT_3D('',#1595,#1208,#1209);
#1000=AXIS2_PLACEMENT_3D('',#1598,#1210,#1211);
#1001=AXIS2_PLACEMENT_3D('',#1603,#1215,#1216);
#1002=AXIS2_PLACEMENT_3D('',#1605,#1218,#1219);
#1003=AXIS2_PLACEMENT_3D('',#1609,#1221,#1222);
#1004=AXIS2_PLACEMENT_3D('',#1613,#1224,#1225);
#1005=AXIS2_PLACEMENT_3D('',#1617,#1227,#1228);
#1006=AXIS2_PLACEMENT_3D('',#1621,#1230,#1231);
#1007=AXIS2_PLACEMENT_3D('',#1625,#1233,#1234);
#1008=AXIS2_PLACEMENT_3D('',#1627,#1236,#1237);
#1009=AXIS2_PLACEMENT_3D('',#1630,#1239,#1240);
#1010=AXIS2_PLACEMENT_3D('',#1631,#1241,#1242);
#1011=AXIS2_PLACEMENT_3D('',#1633,#1243,#1244);
#1012=AXIS2_PLACEMENT_3D('',#1634,#1245,#1246);
#1013=AXIS2_PLACEMENT_3D('',#1635,#1247,#1248);
#1014=AXIS2_PLACEMENT_3D('',#1637,#1249,#1250);
#1015=AXIS2_PLACEMENT_3D('',#1639,#1252,#1253);
#1016=AXIS2_PLACEMENT_3D('',#1641,#1254,#1255);
#1017=AXIS2_PLACEMENT_3D('',#1642,#1256,#1257);
#1018=AXIS2_PLACEMENT_3D('',#1643,#1258,#1259);
#1019=AXIS2_PLACEMENT_3D('',#1645,#1260,#1261);
#1020=AXIS2_PLACEMENT_3D('',#1663,#1263,#1264);
#1021=AXIS2_PLACEMENT_3D('',#1664,#1265,#1266);
#1022=AXIS2_PLACEMENT_3D('',#1665,#1267,#1268);
#1023=AXIS2_PLACEMENT_3D('',#1667,#1269,#1270);
#1024=AXIS2_PLACEMENT_3D('',#1669,#1272,#1273);
#1025=AXIS2_PLACEMENT_3D('',#1681,#1275,#1276);
#1026=AXIS2_PLACEMENT_3D('',#1682,#1277,#1278);
#1027=AXIS2_PLACEMENT_3D('',#1684,#1279,#1280);
#1028=AXIS2_PLACEMENT_3D('',#1687,#1282,#1283);
#1029=AXIS2_PLACEMENT_3D('',#1688,#1284,#1285);
#1030=AXIS2_PLACEMENT_3D('',#1690,#1286,#1287);
#1031=AXIS2_PLACEMENT_3D('',#1691,#1288,#1289);
#1032=AXIS2_PLACEMENT_3D('',#1692,#1290,#1291);
#1033=AXIS2_PLACEMENT_3D('',#1694,#1293,#1294);
#1034=AXIS2_PLACEMENT_3D('',#1705,#1295,#1296);
#1035=AXIS2_PLACEMENT_3D('',#1716,#1298,#1299);
#1036=AXIS2_PLACEMENT_3D('',#1717,#1300,#1301);
#1037=AXIS2_PLACEMENT_3D('',#1718,#1302,#1303);
#1038=AXIS2_PLACEMENT_3D('',#1720,#1305,#1306);
#1039=AXIS2_PLACEMENT_3D('',#1722,#1308,#1309);
#1040=AXIS2_PLACEMENT_3D('',#1724,#1311,#1312);
#1041=AXIS2_PLACEMENT_3D('',#1726,#1314,#1315);
#1042=AXIS2_PLACEMENT_3D('',#1728,#1317,#1318);
#1043=AXIS2_PLACEMENT_3D('',#1731,#1319,#1320);
#1044=AXIS2_PLACEMENT_3D('',#1733,#1321,#1322);
#1045=AXIS2_PLACEMENT_3D('',#1734,#1323,#1324);
#1046=AXIS2_PLACEMENT_3D('',#1735,#1325,#1326);
#1047=AXIS2_PLACEMENT_3D('',#1738,#1328,#1329);
#1048=AXIS2_PLACEMENT_3D('',#1768,#1330,#1331);
#1049=AXIS2_PLACEMENT_3D('',#1770,#1332,#1333);
#1050=AXIS2_PLACEMENT_3D('',#1771,#1334,#1335);
#1051=AXIS2_PLACEMENT_3D('',#1772,#1336,#1337);
#1052=AXIS2_PLACEMENT_3D('',#1773,#1338,#1339);
#1053=AXIS2_PLACEMENT_3D('',#1776,#1340,#1341);
#1054=AXIS2_PLACEMENT_3D('',#1778,#1343,#1344);
#1055=AXIS2_PLACEMENT_3D('',#1779,#1345,#1346);
#1056=AXIS2_PLACEMENT_3D('',#1781,#1347,#1348);
#1057=AXIS2_PLACEMENT_3D('',#1810,#1349,#1350);
#1058=AXIS2_PLACEMENT_3D('',#1811,#1351,#1352);
#1059=AXIS2_PLACEMENT_3D('',#1812,#1353,#1354);
#1060=AXIS2_PLACEMENT_3D('',#1813,#1355,#1356);
#1061=AXIS2_PLACEMENT_3D('',#1815,#1358,#1359);
#1062=AXIS2_PLACEMENT_3D('',#1817,#1361,#1362);
#1063=AXIS2_PLACEMENT_3D('',#1819,#1364,#1365);
#1064=AXIS2_PLACEMENT_3D('',#1821,#1367,#1368);
#1065=AXIS2_PLACEMENT_3D('',#1823,#1370,#1371);
#1066=AXIS2_PLACEMENT_3D('',#1825,#1373,#1374);
#1067=DIRECTION('axis',(0.,0.,1.));
#1068=DIRECTION('refdir',(1.,0.,0.));
#1069=DIRECTION('center_axis',(1.,0.,0.));
#1070=DIRECTION('ref_axis',(0.,1.,0.));
#1071=DIRECTION('',(0.,-1.,0.));
#1072=DIRECTION('',(0.,0.,-1.));
#1073=DIRECTION('',(0.,-1.,0.));
#1074=DIRECTION('',(0.,0.,-1.));
#1075=DIRECTION('center_axis',(1.,0.,0.));
#1076=DIRECTION('ref_axis',(0.,0.707106781186549,0.707106781186546));
#1077=DIRECTION('',(0.,-1.,0.));
#1078=DIRECTION('center_axis',(-1.,0.,0.));
#1079=DIRECTION('ref_axis',(0.,1.,0.));
#1080=DIRECTION('',(0.,0.,1.));
#1081=DIRECTION('center_axis',(-1.,0.,0.));
#1082=DIRECTION('ref_axis',(0.,-8.26946079742754E-16,1.));
#1083=DIRECTION('',(0.,9.52901657814212E-17,-1.));
#1084=DIRECTION('center_axis',(1.,0.,0.));
#1085=DIRECTION('ref_axis',(0.,-0.707106781186548,-0.707106781186547));
#1086=DIRECTION('',(0.,1.,0.));
#1087=DIRECTION('center_axis',(1.,0.,0.));
#1088=DIRECTION('ref_axis',(0.,0.707106781186547,-0.707106781186548));
#1089=DIRECTION('',(0.,0.,1.));
#1090=DIRECTION('center_axis',(0.,0.,1.));
#1091=DIRECTION('ref_axis',(-0.707106781186546,-0.707106781186549,0.));
#1092=DIRECTION('center_axis',(0.,0.,1.));
#1093=DIRECTION('ref_axis',(-0.707106781186546,-0.707106781186549,0.));
#1094=DIRECTION('center_axis',(0.,2.77555756156289E-16,-1.));
#1095=DIRECTION('ref_axis',(0.,-1.,-2.77555756156289E-16));
#1096=DIRECTION('',(0.,0.,-1.));
#1097=DIRECTION('center_axis',(1.,0.,0.));
#1098=DIRECTION('ref_axis',(0.,0.,1.));
#1099=DIRECTION('center_axis',(0.,-1.,-4.44089209850063E-15));
#1100=DIRECTION('ref_axis',(0.,-4.44089209850063E-15,1.));
#1101=DIRECTION('center_axis',(-1.,0.,0.));
#1102=DIRECTION('ref_axis',(0.,0.707106781186547,-0.707106781186548));
#1103=DIRECTION('center_axis',(0.,1.,0.));
#1104=DIRECTION('ref_axis',(-0.707106781186547,0.,0.707106781186548));
#1105=DIRECTION('center_axis',(0.,-1.,-2.77555756156289E-16));
#1106=DIRECTION('ref_axis',(0.,-2.77555756156289E-16,1.));
#1107=DIRECTION('',(0.,-1.,0.));
#1108=DIRECTION('center_axis',(1.,0.,0.));
#1109=DIRECTION('ref_axis',(0.,0.,1.));
#1110=DIRECTION('center_axis',(0.,1.11022302462516E-15,1.));
#1111=DIRECTION('ref_axis',(0.,1.,-1.11022302462516E-15));
#1112=DIRECTION('center_axis',(-1.,0.,0.));
#1113=DIRECTION('ref_axis',(0.,-0.707106781186548,-0.707106781186547));
#1114=DIRECTION('center_axis',(0.,9.52901657814212E-17,-1.));
#1115=DIRECTION('ref_axis',(-0.707106781186548,0.707106781186547,0.));
#1116=DIRECTION('center_axis',(0.,0.,1.));
#1117=DIRECTION('ref_axis',(0.,1.,0.));
#1118=DIRECTION('',(0.,-9.52901657814212E-17,1.));
#1119=DIRECTION('center_axis',(0.,2.2204460492503E-15,-1.));
#1120=DIRECTION('ref_axis',(0.,-1.,-2.2204460492503E-15));
#1121=DIRECTION('center_axis',(1.,0.,0.));
#1122=DIRECTION('ref_axis',(0.,-8.26946079742754E-16,1.));
#1123=DIRECTION('center_axis',(0.,0.,1.));
#1124=DIRECTION('ref_axis',(-0.707106781186548,-0.707106781186547,0.));
#1125=DIRECTION('center_axis',(-6.93889390390723E-17,0.,-1.));
#1126=DIRECTION('ref_axis',(0.,-1.,0.));
#1127=DIRECTION('',(0.,0.,-1.));
#1128=DIRECTION('center_axis',(0.,0.,1.));
#1129=DIRECTION('ref_axis',(-0.707106781186548,-0.707106781186547,0.));
#1130=DIRECTION('center_axis',(0.,2.77555756156289E-16,-1.));
#1131=DIRECTION('ref_axis',(0.,-1.,-2.77555756156289E-16));
#1132=DIRECTION('',(0.,0.,-1.));
#1133=DIRECTION('center_axis',(0.,-1.,0.));
#1134=DIRECTION('ref_axis',(-0.707106781186547,0.,-0.707106781186548));
#1135=DIRECTION('center_axis',(-3.46944695195361E-16,-1.,0.));
#1136=DIRECTION('ref_axis',(-1.,3.46944695195361E-16,0.));
#1137=DIRECTION('center_axis',(0.,1.,0.));
#1138=DIRECTION('ref_axis',(0.,0.,-1.));
#1139=DIRECTION('',(0.,1.,0.));
#1140=DIRECTION('center_axis',(1.,0.,0.));
#1141=DIRECTION('ref_axis',(0.,0.,1.));
#1142=DIRECTION('center_axis',(0.,3.05311331771918E-15,-1.));
#1143=DIRECTION('ref_axis',(0.,-1.,-3.05311331771918E-15));
#1144=DIRECTION('center_axis',(-1.,0.,0.));
#1145=DIRECTION('ref_axis',(0.,0.707106781186549,0.707106781186546));
#1146=DIRECTION('center_axis',(0.,0.,1.));
#1147=DIRECTION('ref_axis',(-0.707106781186546,-0.707106781186549,0.));
#1148=DIRECTION('center_axis',(0.,0.,1.));
#1149=DIRECTION('ref_axis',(-0.707106781186546,-0.707106781186549,0.));
#1150=DIRECTION('',(0.,0.,-1.));
#1151=DIRECTION('center_axis',(0.,-1.,0.));
#1152=DIRECTION('ref_axis',(-0.707106781186547,0.,-0.707106781186548));
#1153=DIRECTION('',(0.,1.,0.));
#1154=DIRECTION('center_axis',(0.,-1.,7.15148590763915E-18));
#1155=DIRECTION('ref_axis',(-1.,0.,0.));
#1156=DIRECTION('center_axis',(1.,0.,0.));
#1157=DIRECTION('ref_axis',(0.,1.,0.));
#1158=DIRECTION('center_axis',(1.,0.,0.));
#1159=DIRECTION('ref_axis',(0.,-0.707106781186547,-0.707106781186548));
#1160=DIRECTION('center_axis',(1.,-6.12323399573677E-17,-7.49879891330929E-33));
#1161=DIRECTION('ref_axis',(0.,-1.,-1.22464679914735E-16));
#1162=DIRECTION('center_axis',(1.,0.,0.));
#1163=DIRECTION('ref_axis',(0.,1.,0.));
#1164=DIRECTION('center_axis',(1.,0.,0.));
#1165=DIRECTION('ref_axis',(0.,1.,0.));
#1166=DIRECTION('center_axis',(0.,0.,1.));
#1167=DIRECTION('ref_axis',(0.,1.,0.));
#1168=DIRECTION('center_axis',(1.,0.,0.));
#1169=DIRECTION('ref_axis',(0.,1.,0.));
#1170=DIRECTION('',(1.,0.,0.));
#1171=DIRECTION('center_axis',(1.,0.,0.));
#1172=DIRECTION('ref_axis',(0.,1.,0.));
#1173=DIRECTION('center_axis',(-1.,0.,0.));
#1174=DIRECTION('ref_axis',(0.,1.,0.));
#1175=DIRECTION('center_axis',(-1.,0.,0.));
#1176=DIRECTION('ref_axis',(0.,1.,0.));
#1177=DIRECTION('center_axis',(0.,1.,1.22464679914735E-16));
#1178=DIRECTION('ref_axis',(0.,-1.22464679914735E-16,1.));
#1179=DIRECTION('center_axis',(1.,0.,0.));
#1180=DIRECTION('ref_axis',(0.,1.,0.));
#1181=DIRECTION('center_axis',(1.,0.,0.));
#1182=DIRECTION('ref_axis',(0.,1.,0.));
#1183=DIRECTION('center_axis',(1.,0.,0.));
#1184=DIRECTION('ref_axis',(0.,1.,0.));
#1185=DIRECTION('center_axis',(1.,0.,0.));
#1186=DIRECTION('ref_axis',(0.,1.,0.));
#1187=DIRECTION('',(1.,0.,0.));
#1188=DIRECTION('center_axis',(1.,0.,0.));
#1189=DIRECTION('ref_axis',(0.,1.,0.));
#1190=DIRECTION('center_axis',(-1.,0.,0.));
#1191=DIRECTION('ref_axis',(0.,1.,0.));
#1192=DIRECTION('center_axis',(-1.,0.,0.));
#1193=DIRECTION('ref_axis',(0.,1.,0.));
#1194=DIRECTION('center_axis',(0.,1.,1.22464679914735E-16));
#1195=DIRECTION('ref_axis',(0.,-1.22464679914735E-16,1.));
#1196=DIRECTION('center_axis',(1.,0.,0.));
#1197=DIRECTION('ref_axis',(0.,1.,0.));
#1198=DIRECTION('center_axis',(1.,0.,0.));
#1199=DIRECTION('ref_axis',(0.,1.,0.));
#1200=DIRECTION('',(1.,0.,0.));
#1201=DIRECTION('center_axis',(0.,0.,-1.));
#1202=DIRECTION('ref_axis',(0.,1.,0.));
#1203=DIRECTION('center_axis',(0.,0.,-1.));
#1204=DIRECTION('ref_axis',(0.707106781186546,-0.707106781186549,0.));
#1205=DIRECTION('',(-1.,0.,0.));
#1206=DIRECTION('',(-1.,0.,0.));
#1207=DIRECTION('',(0.,-1.,0.));
#1208=DIRECTION('center_axis',(0.,0.,1.));
#1209=DIRECTION('ref_axis',(0.,-1.,0.));
#1210=DIRECTION('center_axis',(0.,0.,-1.));
#1211=DIRECTION('ref_axis',(0.707106781186546,-0.707106781186549,0.));
#1212=DIRECTION('',(0.,-1.,0.));
#1213=DIRECTION('',(-1.,0.,0.));
#1214=DIRECTION('',(1.,0.,0.));
#1215=DIRECTION('center_axis',(0.,1.,0.));
#1216=DIRECTION('ref_axis',(0.,0.,1.));
#1217=DIRECTION('',(0.,0.,-1.));
#1218=DIRECTION('center_axis',(1.,0.,0.));
#1219=DIRECTION('ref_axis',(0.,1.,0.));
#1220=DIRECTION('',(0.,0.,1.));
#1221=DIRECTION('center_axis',(1.,0.,0.));
#1222=DIRECTION('ref_axis',(0.,0.707106781186547,-0.707106781186548));
#1223=DIRECTION('',(0.,1.,0.));
#1224=DIRECTION('center_axis',(1.,0.,0.));
#1225=DIRECTION('ref_axis',(0.,-0.707106781186548,-0.707106781186547));
#1226=DIRECTION('',(0.,9.52901657814212E-17,-1.));
#1227=DIRECTION('center_axis',(-1.,0.,0.));
#1228=DIRECTION('ref_axis',(0.,-8.26946079742754E-16,1.));
#1229=DIRECTION('',(0.,0.,1.));
#1230=DIRECTION('center_axis',(-1.,0.,0.));
#1231=DIRECTION('ref_axis',(0.,1.,0.));
#1232=DIRECTION('',(0.,-1.,0.));
#1233=DIRECTION('center_axis',(1.,0.,0.));
#1234=DIRECTION('ref_axis',(0.,0.707106781186549,0.707106781186546));
#1235=DIRECTION('',(0.,0.,-1.));
#1236=DIRECTION('center_axis',(0.,0.,-1.));
#1237=DIRECTION('ref_axis',(0.707106781186546,-0.707106781186549,0.));
#1238=DIRECTION('',(0.,0.,-1.));
#1239=DIRECTION('center_axis',(0.,-2.77555756156289E-16,1.));
#1240=DIRECTION('ref_axis',(0.,-1.,-2.77555756156289E-16));
#1241=DIRECTION('center_axis',(-1.,0.,0.));
#1242=DIRECTION('ref_axis',(0.,0.,1.));
#1243=DIRECTION('center_axis',(0.,1.,4.44089209850063E-15));
#1244=DIRECTION('ref_axis',(0.,-4.44089209850063E-15,1.));
#1245=DIRECTION('center_axis',(-1.,0.,0.));
#1246=DIRECTION('ref_axis',(0.,0.707106781186547,-0.707106781186548));
#1247=DIRECTION('center_axis',(0.,-1.,0.));
#1248=DIRECTION('ref_axis',(0.707106781186547,0.,0.707106781186548));
#1249=DIRECTION('center_axis',(0.,1.,2.77555756156289E-16));
#1250=DIRECTION('ref_axis',(0.,-2.77555756156289E-16,1.));
#1251=DIRECTION('',(0.,-1.,0.));
#1252=DIRECTION('center_axis',(-1.,0.,0.));
#1253=DIRECTION('ref_axis',(0.,0.,1.));
#1254=DIRECTION('center_axis',(0.,-1.11022302462516E-15,-1.));
#1255=DIRECTION('ref_axis',(0.,1.,-1.11022302462516E-15));
#1256=DIRECTION('center_axis',(-1.,0.,0.));
#1257=DIRECTION('ref_axis',(0.,-0.707106781186548,-0.707106781186547));
#1258=DIRECTION('center_axis',(0.,-9.52901657814212E-17,1.));
#1259=DIRECTION('ref_axis',(0.707106781186548,0.707106781186547,0.));
#1260=DIRECTION('center_axis',(0.,0.,-1.));
#1261=DIRECTION('ref_axis',(0.,1.,0.));
#1262=DIRECTION('',(0.,-9.52901657814212E-17,1.));
#1263=DIRECTION('center_axis',(0.,-2.2204460492503E-15,1.));
#1264=DIRECTION('ref_axis',(0.,-1.,-2.2204460492503E-15));
#1265=DIRECTION('center_axis',(1.,0.,0.));
#1266=DIRECTION('ref_axis',(0.,-8.26946079742754E-16,1.));
#1267=DIRECTION('center_axis',(0.,0.,-1.));
#1268=DIRECTION('ref_axis',(0.707106781186548,-0.707106781186547,0.));
#1269=DIRECTION('center_axis',(-6.93889390390723E-17,0.,1.));
#1270=DIRECTION('ref_axis',(0.,-1.,0.));
#1271=DIRECTION('',(0.,0.,-1.));
#1272=DIRECTION('center_axis',(0.,0.,-1.));
#1273=DIRECTION('ref_axis',(0.707106781186548,-0.707106781186547,0.));
#1274=DIRECTION('',(0.,0.,-1.));
#1275=DIRECTION('center_axis',(0.,-2.77555756156289E-16,1.));
#1276=DIRECTION('ref_axis',(0.,-1.,-2.77555756156289E-16));
#1277=DIRECTION('center_axis',(0.,1.,0.));
#1278=DIRECTION('ref_axis',(0.707106781186547,0.,-0.707106781186548));
#1279=DIRECTION('center_axis',(-3.46944695195361E-16,1.,0.));
#1280=DIRECTION('ref_axis',(1.,3.46944695195361E-16,0.));
#1281=DIRECTION('',(0.,1.,0.));
#1282=DIRECTION('center_axis',(0.,-1.,0.));
#1283=DIRECTION('ref_axis',(0.,0.,-1.));
#1284=DIRECTION('center_axis',(-1.,0.,0.));
#1285=DIRECTION('ref_axis',(0.,0.,1.));
#1286=DIRECTION('center_axis',(0.,-3.05311331771918E-15,1.));
#1287=DIRECTION('ref_axis',(0.,-1.,-3.05311331771918E-15));
#1288=DIRECTION('center_axis',(-1.,0.,0.));
#1289=DIRECTION('ref_axis',(0.,0.707106781186549,0.707106781186546));
#1290=DIRECTION('center_axis',(0.,0.,-1.));
#1291=DIRECTION('ref_axis',(0.707106781186546,-0.707106781186549,0.));
#1292=DIRECTION('',(0.,0.,-1.));
#1293=DIRECTION('center_axis',(0.,1.,0.));
#1294=DIRECTION('ref_axis',(0.707106781186547,0.,-0.707106781186548));
#1295=DIRECTION('center_axis',(0.,1.,-7.15148590763915E-18));
#1296=DIRECTION('ref_axis',(1.,0.,0.));
#1297=DIRECTION('',(0.,1.,0.));
#1298=DIRECTION('center_axis',(1.,0.,0.));
#1299=DIRECTION('ref_axis',(0.,1.,0.));
#1300=DIRECTION('center_axis',(1.,0.,0.));
#1301=DIRECTION('ref_axis',(0.,-0.707106781186547,-0.707106781186548));
#1302=DIRECTION('center_axis',(0.,-1.,0.));
#1303=DIRECTION('ref_axis',(0.,0.,-1.));
#1304=DIRECTION('',(1.,0.,0.));
#1305=DIRECTION('center_axis',(1.,0.,0.));
#1306=DIRECTION('ref_axis',(0.,1.77635683940025E-15,-1.));
#1307=DIRECTION('',(1.,0.,0.));
#1308=DIRECTION('center_axis',(0.,0.,1.));
#1309=DIRECTION('ref_axis',(0.,-1.,0.));
#1310=DIRECTION('',(1.,0.,0.));
#1311=DIRECTION('center_axis',(1.,0.,0.));
#1312=DIRECTION('ref_axis',(0.,-1.,1.11022302462516E-15));
#1313=DIRECTION('',(1.,0.,0.));
#1314=DIRECTION('center_axis',(0.,1.,9.52901657814212E-17));
#1315=DIRECTION('ref_axis',(0.,-9.52901657814212E-17,1.));
#1316=DIRECTION('',(1.,0.,0.));
#1317=DIRECTION('center_axis',(-1.,-6.12323399573677E-17,-7.49879891330929E-33));
#1318=DIRECTION('ref_axis',(0.,-1.,-1.22464679914735E-16));
#1319=DIRECTION('center_axis',(1.,0.,0.));
#1320=DIRECTION('ref_axis',(0.,1.,0.));
#1321=DIRECTION('center_axis',(0.,0.,-1.));
#1322=DIRECTION('ref_axis',(0.,1.,0.));
#1323=DIRECTION('center_axis',(1.,0.,0.));
#1324=DIRECTION('ref_axis',(0.,1.,0.));
#1325=DIRECTION('center_axis',(1.,0.,0.));
#1326=DIRECTION('ref_axis',(0.,1.,0.));
#1327=DIRECTION('',(-1.,0.,0.));
#1328=DIRECTION('center_axis',(1.,0.,0.));
#1329=DIRECTION('ref_axis',(0.,1.,0.));
#1330=DIRECTION('center_axis',(-1.,0.,0.));
#1331=DIRECTION('ref_axis',(0.,1.,0.));
#1332=DIRECTION('center_axis',(0.,-1.,-1.22464679914735E-16));
#1333=DIRECTION('ref_axis',(0.,-1.22464679914735E-16,1.));
#1334=DIRECTION('center_axis',(1.,0.,0.));
#1335=DIRECTION('ref_axis',(0.,1.,0.));
#1336=DIRECTION('center_axis',(-1.,0.,0.));
#1337=DIRECTION('ref_axis',(0.,1.,0.));
#1338=DIRECTION('center_axis',(1.,0.,0.));
#1339=DIRECTION('ref_axis',(0.,1.,0.));
#1340=DIRECTION('center_axis',(1.,0.,0.));
#1341=DIRECTION('ref_axis',(0.,1.,0.));
#1342=DIRECTION('',(-1.,0.,0.));
#1343=DIRECTION('center_axis',(1.,0.,0.));
#1344=DIRECTION('ref_axis',(0.,1.,0.));
#1345=DIRECTION('center_axis',(1.,0.,0.));
#1346=DIRECTION('ref_axis',(0.,1.,0.));
#1347=DIRECTION('center_axis',(-1.,0.,0.));
#1348=DIRECTION('ref_axis',(0.,1.,0.));
#1349=DIRECTION('center_axis',(-1.,0.,0.));
#1350=DIRECTION('ref_axis',(0.,1.,0.));
#1351=DIRECTION('center_axis',(0.,-1.,-1.22464679914735E-16));
#1352=DIRECTION('ref_axis',(0.,-1.22464679914735E-16,1.));
#1353=DIRECTION('center_axis',(1.,0.,0.));
#1354=DIRECTION('ref_axis',(0.,1.,0.));
#1355=DIRECTION('center_axis',(1.,0.,0.));
#1356=DIRECTION('ref_axis',(0.,1.,0.));
#1357=DIRECTION('',(-1.,0.,0.));
#1358=DIRECTION('center_axis',(1.,0.,0.));
#1359=DIRECTION('ref_axis',(0.,1.,-1.77635683940025E-15));
#1360=DIRECTION('',(1.,0.,0.));
#1361=DIRECTION('center_axis',(0.,-1.,0.));
#1362=DIRECTION('ref_axis',(0.,0.,-1.));
#1363=DIRECTION('',(-1.,0.,0.));
#1364=DIRECTION('center_axis',(1.,0.,0.));
#1365=DIRECTION('ref_axis',(0.,1.,2.44249065417534E-15));
#1366=DIRECTION('',(-1.,0.,0.));
#1367=DIRECTION('center_axis',(0.,0.,-1.));
#1368=DIRECTION('ref_axis',(0.,1.,0.));
#1369=DIRECTION('',(-1.,0.,0.));
#1370=DIRECTION('center_axis',(1.,0.,0.));
#1371=DIRECTION('ref_axis',(0.,-1.,7.7715611723761E-16));
#1372=DIRECTION('',(-1.,0.,0.));
#1373=DIRECTION('center_axis',(0.,-1.,0.));
#1374=DIRECTION('ref_axis',(0.,0.,-1.));
#1375=CARTESIAN_POINT('',(0.,0.,0.));
#1376=CARTESIAN_POINT('Origin',(-5.,45.,24.0118723258376));
#1377=CARTESIAN_POINT('',(-5.,95.,14.9998578593355));
#1378=CARTESIAN_POINT('',(-5.,89.,14.9998578593355));
#1379=CARTESIAN_POINT('',(-5.,70.,14.9998578593355));
#1380=CARTESIAN_POINT('',(-5.,95.,-15.0001421406645));
#1381=CARTESIAN_POINT('',(-5.,95.,-13.5801421406645));
#1382=CARTESIAN_POINT('',(-5.,89.,-15.0001421406645));
#1383=CARTESIAN_POINT('',(-5.,95.,-15.0001421406645));
#1384=CARTESIAN_POINT('',(-5.,89.,-9.99999999999999));
#1385=CARTESIAN_POINT('',(-5.,89.,-13.5801421406645));
#1386=CARTESIAN_POINT('',(-5.,80.,-0.999999999999999));
#1387=CARTESIAN_POINT('Origin',(-5.,80.,-10.));
#1388=CARTESIAN_POINT('',(-5.,1.73205080756888,-0.999999999999999));
#1389=CARTESIAN_POINT('',(-5.,22.5,-0.999999999999999));
#1390=CARTESIAN_POINT('',(-5.,-1.,1.73205080756888));
#1391=CARTESIAN_POINT('Origin',(-5.,0.,0.));
#1392=CARTESIAN_POINT('',(-5.,-0.999999999999985,56.6038867923396));
#1393=CARTESIAN_POINT('',(-5.,-1.,40.3078795590886));
#1394=CARTESIAN_POINT('',(-5.,0.999999999999997,56.6038867923396));
#1395=CARTESIAN_POINT('Origin',(-5.,4.9960036108132E-15,56.6038867923396));
#1396=CARTESIAN_POINT('',(-5.,0.999999999999999,10.));
#1397=CARTESIAN_POINT('',(-5.,1.,17.0059361629188));
#1398=CARTESIAN_POINT('',(-5.,10.,0.999999999999999));
#1399=CARTESIAN_POINT('Origin',(-5.,9.99999999999999,9.99999999999999));
#1400=CARTESIAN_POINT('',(-5.,80.,1.));
#1401=CARTESIAN_POINT('',(-5.,62.5,0.999999999999999));
#1402=CARTESIAN_POINT('',(-5.,89.,10.));
#1403=CARTESIAN_POINT('Origin',(-5.,80.,10.));
#1404=CARTESIAN_POINT('',(-5.,89.,20.2158650925866));
#1405=CARTESIAN_POINT('Origin',(-1.,89.,20.2158650925866));
#1406=CARTESIAN_POINT('',(-1.,85.,14.9998578593355));
#1407=CARTESIAN_POINT('Origin',(-1.,89.,14.9998578593355));
#1408=CARTESIAN_POINT('',(-1.,85.,10.));
#1409=CARTESIAN_POINT('Origin',(-1.,89.,10.));
#1410=CARTESIAN_POINT('',(-1.,85.,20.2158650925866));
#1411=CARTESIAN_POINT('Origin',(-1.,80.,10.));
#1412=CARTESIAN_POINT('',(-1.,80.,5.));
#1413=CARTESIAN_POINT('Origin',(-1.,80.,1.));
#1414=CARTESIAN_POINT('Origin',(-1.,80.,10.));
#1415=CARTESIAN_POINT('Origin',(-1.,62.5,0.999999999999999));
#1416=CARTESIAN_POINT('',(-1.,10.,5.));
#1417=CARTESIAN_POINT('Origin',(-1.,10.,0.999999999999999));
#1418=CARTESIAN_POINT('',(-1.,62.5,5.));
#1419=CARTESIAN_POINT('Origin',(-1.,9.99999999999999,9.99999999999999));
#1420=CARTESIAN_POINT('',(-1.,5.,10.));
#1421=CARTESIAN_POINT('Origin',(-1.,0.999999999999999,10.));
#1422=CARTESIAN_POINT('Origin',(-1.,9.99999999999999,9.99999999999999));
#1423=CARTESIAN_POINT('Origin',(-1.,1.,17.0059361629188));
#1424=CARTESIAN_POINT('',(-1.,5.,56.6038867923396));
#1425=CARTESIAN_POINT('Origin',(-1.,0.999999999999997,56.6038867923396));
#1426=CARTESIAN_POINT('',(-1.,5.,17.0059361629188));
#1427=CARTESIAN_POINT('Ctrl Pts',(-1.,5.,56.6038867923396));
#1428=CARTESIAN_POINT('Ctrl Pts',(-1.,4.99999999999999,61.6038867923397));
#1429=CARTESIAN_POINT('Ctrl Pts',(-1.,-1.21552413836156E-14,61.6038867923396));
#1430=CARTESIAN_POINT('Ctrl Pts',(-1.,-5.00000000000002,61.6038867923396));
#1431=CARTESIAN_POINT('Ctrl Pts',(-1.,-4.99999999999999,56.6038867923396));
#1432=CARTESIAN_POINT('Ctrl Pts',(-5.,5.,56.6038867923396));
#1433=CARTESIAN_POINT('Ctrl Pts',(-5.,4.99999999999999,61.6038867923397));
#1434=CARTESIAN_POINT('Ctrl Pts',(-5.,-1.21552413836156E-14,61.6038867923396));
#1435=CARTESIAN_POINT('Ctrl Pts',(-5.,-5.00000000000002,61.6038867923396));
#1436=CARTESIAN_POINT('Ctrl Pts',(-5.,-4.99999999999999,56.6038867923396));
#1437=CARTESIAN_POINT('Ctrl Pts',(-5.,0.999999999999993,56.6038867923396));
#1438=CARTESIAN_POINT('Ctrl Pts',(-5.,0.999999999999992,57.6038867923396));
#1439=CARTESIAN_POINT('Ctrl Pts',(-5.,1.56575461192748E-15,57.6038867923396));
#1440=CARTESIAN_POINT('Ctrl Pts',(-5.,-0.999999999999989,57.6038867923396));
#1441=CARTESIAN_POINT('Ctrl Pts',(-5.,-0.999999999999983,56.6038867923396));
#1442=CARTESIAN_POINT('',(-1.,-5.,56.6038867923396));
#1443=CARTESIAN_POINT('Origin',(-1.,-0.999999999999985,56.6038867923396));
#1444=CARTESIAN_POINT('Origin',(-1.,4.9960036108132E-15,56.6038867923396));
#1445=CARTESIAN_POINT('Origin',(-1.,-1.,40.3078795590886));
#1446=CARTESIAN_POINT('',(-1.,-5.,1.73205080756888));
#1447=CARTESIAN_POINT('Origin',(-1.,-1.,1.73205080756888));
#1448=CARTESIAN_POINT('',(-1.,-5.,40.3078795590886));
#1449=CARTESIAN_POINT('Origin',(-1.,-1.,40.3078795590886));
#1450=CARTESIAN_POINT('',(-4.87298334620742,-2.,-2.77555756156289E-16));
#1451=CARTESIAN_POINT('Ctrl Pts',(-5.,-1.00000000000009,1.73205080756882));
#1452=CARTESIAN_POINT('Ctrl Pts',(-5.,-1.15059396649613,1.64510534047399));
#1453=CARTESIAN_POINT('Ctrl Pts',(-4.99135420635515,-1.28808109937878,1.53883754307428));
#1454=CARTESIAN_POINT('Ctrl Pts',(-4.96104016584888,-1.58566673108599,1.2449397930064));
#1455=CARTESIAN_POINT('Ctrl Pts',(-4.93209963841503,-1.74150248744498,1.01943419491735));
#1456=CARTESIAN_POINT('Ctrl Pts',(-4.88731385298687,-1.94869650985943,0.524078474384401));
#1457=CARTESIAN_POINT('Ctrl Pts',(-4.87298334620742,-2.,0.254069662137912));
#1458=CARTESIAN_POINT('Ctrl Pts',(-4.87298334620742,-2.,0.));
#1459=CARTESIAN_POINT('',(-1.,-5.,-1.11022302462516E-15));
#1460=CARTESIAN_POINT('Origin',(-1.,-1.,0.));
#1461=CARTESIAN_POINT('',(-1.,-5.,40.3078795590886));
#1462=CARTESIAN_POINT('Origin',(-1.,22.5,-0.999999999999999));
#1463=CARTESIAN_POINT('',(-1.,1.73205080756888,-5.));
#1464=CARTESIAN_POINT('Origin',(-1.,1.73205080756888,-0.999999999999999));
#1465=CARTESIAN_POINT('',(-1.,80.,-5.));
#1466=CARTESIAN_POINT('Origin',(-1.,80.,-0.999999999999999));
#1467=CARTESIAN_POINT('',(-1.,22.5,-5.));
#1468=CARTESIAN_POINT('Origin',(-1.,80.,-10.));
#1469=CARTESIAN_POINT('',(-1.,85.,-10.));
#1470=CARTESIAN_POINT('Origin',(-1.,89.,-9.99999999999999));
#1471=CARTESIAN_POINT('Origin',(-1.,80.,-10.));
#1472=CARTESIAN_POINT('Origin',(-1.,89.,7.00593616291879));
#1473=CARTESIAN_POINT('',(-1.,85.,-15.0001421406645));
#1474=CARTESIAN_POINT('Origin',(-1.,89.,-15.0001421406645));
#1475=CARTESIAN_POINT('',(-1.,85.,-13.5801421406645));
#1476=CARTESIAN_POINT('Origin',(-1.,22.5,-0.999999999999999));
#1477=CARTESIAN_POINT('',(-4.87298334620742,-7.15148590763916E-18,-2.));
#1478=CARTESIAN_POINT('Ctrl Pts',(-4.87298334620742,6.93889390390723E-17,
-2.));
#1479=CARTESIAN_POINT('Ctrl Pts',(-4.87298334620742,0.254069662137912,-2.));
#1480=CARTESIAN_POINT('Ctrl Pts',(-4.88731385298687,0.524078474384401,-1.94869650985943));
#1481=CARTESIAN_POINT('Ctrl Pts',(-4.93209963841503,1.01943419491735,-1.74150248744498));
#1482=CARTESIAN_POINT('Ctrl Pts',(-4.96104016584888,1.2449397930064,-1.58566673108599));
#1483=CARTESIAN_POINT('Ctrl Pts',(-4.99135420635515,1.53883754307428,-1.28808109937878));
#1484=CARTESIAN_POINT('Ctrl Pts',(-5.,1.64510534047399,-1.15059396649613));
#1485=CARTESIAN_POINT('Ctrl Pts',(-5.,1.73205080756883,-1.00000000000009));
#1486=CARTESIAN_POINT('',(-1.,-2.86059436305566E-17,-5.));
#1487=CARTESIAN_POINT('',(-1.,22.5,-5.));
#1488=CARTESIAN_POINT('Origin',(-1.,0.,-0.999999999999999));
#1489=CARTESIAN_POINT('Ctrl Pts',(-1.,-5.,-4.9960036108132E-15));
#1490=CARTESIAN_POINT('Ctrl Pts',(-1.,-5.00000000000002,-5.00000000000002));
#1491=CARTESIAN_POINT('Ctrl Pts',(-1.,-4.71844785465692E-15,-5.));
#1492=CARTESIAN_POINT('Ctrl Pts',(-4.09838667696593,-5.,-4.9960036108132E-15));
#1493=CARTESIAN_POINT('Ctrl Pts',(-4.09838667696593,-5.00000000000002,-5.00000000000002));
#1494=CARTESIAN_POINT('Ctrl Pts',(-4.09838667696593,-4.71844785465692E-15,
-5.));
#1495=CARTESIAN_POINT('Ctrl Pts',(-4.87298334620742,-2.,-4.9960036108132E-15));
#1496=CARTESIAN_POINT('Ctrl Pts',(-4.87298334620742,-2.00000000000001,-2.00000000000001));
#1497=CARTESIAN_POINT('Ctrl Pts',(-4.87298334620742,-4.71844785465692E-15,
-2.));
#1498=CARTESIAN_POINT('Origin',(-4.87298334620742,-4.71844785465692E-15,
-4.9960036108132E-15));
#1499=CARTESIAN_POINT('Origin',(-1.,-4.71844785465692E-15,-4.9960036108132E-15));
#1500=CARTESIAN_POINT('Origin',(-54.6038867923396,0.,0.));
#1501=CARTESIAN_POINT('',(-54.6038867923396,-2.,-2.44929359829471E-16));
#1502=CARTESIAN_POINT('',(-54.6038867923396,2.,0.));
#1503=CARTESIAN_POINT('Origin',(-54.6038867923396,0.,0.));
#1504=CARTESIAN_POINT('Origin',(-54.6038867923396,0.,0.));
#1505=CARTESIAN_POINT('',(-56.6038867923396,1.22464679914735E-16,0.));
#1506=CARTESIAN_POINT('Origin',(-54.6038867923396,0.,0.));
#1507=CARTESIAN_POINT('Origin',(0.,0.,0.));
#1508=CARTESIAN_POINT('',(-44.6038867923396,-2.,-2.44929359829471E-16));
#1509=CARTESIAN_POINT('',(0.,-2.,-2.44929359829471E-16));
#1510=CARTESIAN_POINT('Origin',(-44.6038867923396,0.,0.));
#1511=CARTESIAN_POINT('Ctrl Pts',(-36.6038867923396,0.,2.5));
#1512=CARTESIAN_POINT('Ctrl Pts',(-36.6038867923396,-2.5,2.5));
#1513=CARTESIAN_POINT('Ctrl Pts',(-36.6038867923396,-2.5,0.));
#1514=CARTESIAN_POINT('Ctrl Pts',(-36.6038867923396,-2.5,-2.5));
#1515=CARTESIAN_POINT('Ctrl Pts',(-36.6038867923396,0.,-2.5));
#1516=CARTESIAN_POINT('Ctrl Pts',(-36.6038867923396,2.5,-2.5));
#1517=CARTESIAN_POINT('Ctrl Pts',(-36.6038867923396,2.5,0.));
#1518=CARTESIAN_POINT('Ctrl Pts',(-36.6038867923396,2.5,2.5));
#1519=CARTESIAN_POINT('Ctrl Pts',(-36.6038867923396,0.,2.5));
#1520=CARTESIAN_POINT('Ctrl Pts',(-36.6038867923396,0.,5.));
#1521=CARTESIAN_POINT('Ctrl Pts',(-36.6038867923396,-5.,5.));
#1522=CARTESIAN_POINT('Ctrl Pts',(-36.6038867923396,-5.,0.));
#1523=CARTESIAN_POINT('Ctrl Pts',(-36.6038867923396,-5.,-5.));
#1524=CARTESIAN_POINT('Ctrl Pts',(-36.6038867923396,0.,-5.));
#1525=CARTESIAN_POINT('Ctrl Pts',(-36.6038867923396,5.,-5.));
#1526=CARTESIAN_POINT('Ctrl Pts',(-36.6038867923396,5.,0.));
#1527=CARTESIAN_POINT('Ctrl Pts',(-36.6038867923396,5.,5.));
#1528=CARTESIAN_POINT('Ctrl Pts',(-36.6038867923396,0.,5.));
#1529=CARTESIAN_POINT('Ctrl Pts',(-39.1038867923396,0.,5.));
#1530=CARTESIAN_POINT('Ctrl Pts',(-39.1038867923396,-5.,5.));
#1531=CARTESIAN_POINT('Ctrl Pts',(-39.1038867923396,-5.,0.));
#1532=CARTESIAN_POINT('Ctrl Pts',(-39.1038867923396,-5.,-5.));
#1533=CARTESIAN_POINT('Ctrl Pts',(-39.1038867923396,0.,-5.));
#1534=CARTESIAN_POINT('Ctrl Pts',(-39.1038867923396,5.,-5.));
#1535=CARTESIAN_POINT('Ctrl Pts',(-39.1038867923396,5.,0.));
#1536=CARTESIAN_POINT('Ctrl Pts',(-39.1038867923396,5.,5.));
#1537=CARTESIAN_POINT('Ctrl Pts',(-39.1038867923396,0.,5.));
#1538=CARTESIAN_POINT('',(-39.1038867923396,-5.,6.12323399573677E-16));
#1539=CARTESIAN_POINT('',(-39.1038867923396,-6.12323399573677E-16,5.));
#1540=CARTESIAN_POINT('Origin',(-39.1038867923396,0.,0.));
#1541=CARTESIAN_POINT('Origin',(-39.1038867923396,0.,0.));
#1542=CARTESIAN_POINT('',(-36.6038867923396,-3.06161699786838E-16,2.5));
#1543=CARTESIAN_POINT('Origin',(-39.1038867923396,-3.06161699786838E-16,
2.5));
#1544=CARTESIAN_POINT('Origin',(-36.6038867923396,0.,0.));
#1545=CARTESIAN_POINT('Origin',(-36.6038867923396,0.,0.));
#1546=CARTESIAN_POINT('',(-42.1038867923396,-5.,-6.12323399573677E-16));
#1547=CARTESIAN_POINT('',(-42.1038867923396,-6.12323399573677E-16,5.));
#1548=CARTESIAN_POINT('Origin',(-42.1038867923396,0.,0.));
#1549=CARTESIAN_POINT('Origin',(-42.1038867923396,0.,0.));
#1550=CARTESIAN_POINT('',(-36.6038867923396,-5.,-6.12323399573677E-16));
#1551=CARTESIAN_POINT('Origin',(-36.6038867923396,0.,0.));
#1552=CARTESIAN_POINT('',(-36.6038867923396,-2.,2.44929359829471E-16));
#1553=CARTESIAN_POINT('Origin',(-36.6038867923396,0.,0.));
#1554=CARTESIAN_POINT('Ctrl Pts',(-42.1038867923396,0.,5.));
#1555=CARTESIAN_POINT('Ctrl Pts',(-42.1038867923396,-5.,5.));
#1556=CARTESIAN_POINT('Ctrl Pts',(-42.1038867923396,-5.,0.));
#1557=CARTESIAN_POINT('Ctrl Pts',(-42.1038867923396,-5.,-5.));
#1558=CARTESIAN_POINT('Ctrl Pts',(-42.1038867923396,0.,-5.));
#1559=CARTESIAN_POINT('Ctrl Pts',(-42.1038867923396,5.,-5.));
#1560=CARTESIAN_POINT('Ctrl Pts',(-42.1038867923396,5.,0.));
#1561=CARTESIAN_POINT('Ctrl Pts',(-42.1038867923396,5.,5.));
#1562=CARTESIAN_POINT('Ctrl Pts',(-42.1038867923396,0.,5.));
#1563=CARTESIAN_POINT('Ctrl Pts',(-44.6038867923396,0.,5.));
#1564=CARTESIAN_POINT('Ctrl Pts',(-44.6038867923396,-5.,5.));
#1565=CARTESIAN_POINT('Ctrl Pts',(-44.6038867923396,-5.,0.));
#1566=CARTESIAN_POINT('Ctrl Pts',(-44.6038867923396,-5.,-5.));
#1567=CARTESIAN_POINT('Ctrl Pts',(-44.6038867923396,0.,-5.));
#1568=CARTESIAN_POINT('Ctrl Pts',(-44.6038867923396,5.,-5.));
#1569=CARTESIAN_POINT('Ctrl Pts',(-44.6038867923396,5.,0.));
#1570=CARTESIAN_POINT('Ctrl Pts',(-44.6038867923396,5.,5.));
#1571=CARTESIAN_POINT('Ctrl Pts',(-44.6038867923396,0.,5.));
#1572=CARTESIAN_POINT('Ctrl Pts',(-44.6038867923396,0.,2.5));
#1573=CARTESIAN_POINT('Ctrl Pts',(-44.6038867923396,-2.5,2.5));
#1574=CARTESIAN_POINT('Ctrl Pts',(-44.6038867923396,-2.5,0.));
#1575=CARTESIAN_POINT('Ctrl Pts',(-44.6038867923396,-2.5,-2.5));
#1576=CARTESIAN_POINT('Ctrl Pts',(-44.6038867923396,0.,-2.5));
#1577=CARTESIAN_POINT('Ctrl Pts',(-44.6038867923396,2.5,-2.5));
#1578=CARTESIAN_POINT('Ctrl Pts',(-44.6038867923396,2.5,0.));
#1579=CARTESIAN_POINT('Ctrl Pts',(-44.6038867923396,2.5,2.5));
#1580=CARTESIAN_POINT('Ctrl Pts',(-44.6038867923396,0.,2.5));
#1581=CARTESIAN_POINT('',(-44.6038867923396,-3.06161699786838E-16,2.5));
#1582=CARTESIAN_POINT('Origin',(-44.6038867923396,0.,0.));
#1583=CARTESIAN_POINT('Origin',(-42.1038867923396,-3.06161699786838E-16,
2.5));
#1584=CARTESIAN_POINT('Origin',(-44.6038867923396,0.,0.));
#1585=CARTESIAN_POINT('Origin',(0.,0.,0.));
#1586=CARTESIAN_POINT('',(0.,-2.,-2.44929359829471E-16));
#1587=CARTESIAN_POINT('Origin',(0.,85.,-15.0001421406645));
#1588=CARTESIAN_POINT('',(5.,89.,-15.0001421406645));
#1589=CARTESIAN_POINT('',(1.,85.,-15.0001421406645));
#1590=CARTESIAN_POINT('Origin',(1.,89.,-15.0001421406645));
#1591=CARTESIAN_POINT('',(0.,85.,-15.0001421406645));
#1592=CARTESIAN_POINT('',(5.,95.,-15.0001421406645));
#1593=CARTESIAN_POINT('',(0.,95.,-15.0001421406645));
#1594=CARTESIAN_POINT('',(5.,95.,-15.0001421406645));
#1595=CARTESIAN_POINT('Origin',(0.,95.,14.9998578593355));
#1596=CARTESIAN_POINT('',(5.,89.,14.9998578593355));
#1597=CARTESIAN_POINT('',(1.,85.,14.9998578593355));
#1598=CARTESIAN_POINT('Origin',(1.,89.,14.9998578593355));
#1599=CARTESIAN_POINT('',(5.,95.,14.9998578593355));
#1600=CARTESIAN_POINT('',(5.,70.,14.9998578593355));
#1601=CARTESIAN_POINT('',(0.,95.,14.9998578593355));
#1602=CARTESIAN_POINT('',(0.,85.,14.9998578593355));
#1603=CARTESIAN_POINT('Origin',(0.,95.,-13.5801421406645));
#1604=CARTESIAN_POINT('',(5.,95.,-13.5801421406645));
#1605=CARTESIAN_POINT('Origin',(5.,45.,24.0118723258376));
#1606=CARTESIAN_POINT('',(5.,89.,10.));
#1607=CARTESIAN_POINT('',(5.,89.,20.2158650925866));
#1608=CARTESIAN_POINT('',(5.,80.,1.));
#1609=CARTESIAN_POINT('Origin',(5.,80.,10.));
#1610=CARTESIAN_POINT('',(5.,10.,0.999999999999999));
#1611=CARTESIAN_POINT('',(5.,62.5,0.999999999999999));
#1612=CARTESIAN_POINT('',(5.,0.999999999999999,10.));
#1613=CARTESIAN_POINT('Origin',(5.,9.99999999999999,9.99999999999999));
#1614=CARTESIAN_POINT('',(5.,0.999999999999997,56.6038867923396));
#1615=CARTESIAN_POINT('',(5.,1.,17.0059361629188));
#1616=CARTESIAN_POINT('',(5.,-0.999999999999985,56.6038867923396));
#1617=CARTESIAN_POINT('Origin',(5.,4.9960036108132E-15,56.6038867923396));
#1618=CARTESIAN_POINT('',(5.,-1.,1.73205080756888));
#1619=CARTESIAN_POINT('',(5.,-1.,40.3078795590886));
#1620=CARTESIAN_POINT('',(5.,1.73205080756888,-0.999999999999999));
#1621=CARTESIAN_POINT('Origin',(5.,0.,0.));
#1622=CARTESIAN_POINT('',(5.,80.,-0.999999999999999));
#1623=CARTESIAN_POINT('',(5.,22.5,-0.999999999999999));
#1624=CARTESIAN_POINT('',(5.,89.,-9.99999999999999));
#1625=CARTESIAN_POINT('Origin',(5.,80.,-10.));
#1626=CARTESIAN_POINT('',(5.,89.,-13.5801421406645));
#1627=CARTESIAN_POINT('Origin',(1.,89.,20.2158650925866));
#1628=CARTESIAN_POINT('',(1.,85.,10.));
#1629=CARTESIAN_POINT('',(1.,85.,20.2158650925866));
#1630=CARTESIAN_POINT('Origin',(1.,89.,10.));
#1631=CARTESIAN_POINT('Origin',(1.,80.,10.));
#1632=CARTESIAN_POINT('',(1.,80.,5.));
#1633=CARTESIAN_POINT('Origin',(1.,80.,1.));
#1634=CARTESIAN_POINT('Origin',(1.,80.,10.));
#1635=CARTESIAN_POINT('Origin',(1.,62.5,0.999999999999999));
#1636=CARTESIAN_POINT('',(1.,10.,5.));
#1637=CARTESIAN_POINT('Origin',(1.,10.,0.999999999999999));
#1638=CARTESIAN_POINT('',(1.,62.5,5.));
#1639=CARTESIAN_POINT('Origin',(1.,9.99999999999999,9.99999999999999));
#1640=CARTESIAN_POINT('',(1.,5.,10.));
#1641=CARTESIAN_POINT('Origin',(1.,0.999999999999999,10.));
#1642=CARTESIAN_POINT('Origin',(1.,9.99999999999999,9.99999999999999));
#1643=CARTESIAN_POINT('Origin',(1.,1.,17.0059361629188));
#1644=CARTESIAN_POINT('',(1.,5.,56.6038867923396));
#1645=CARTESIAN_POINT('Origin',(1.,0.999999999999997,56.6038867923396));
#1646=CARTESIAN_POINT('',(1.,5.,17.0059361629188));
#1647=CARTESIAN_POINT('Ctrl Pts',(1.,5.,56.6038867923396));
#1648=CARTESIAN_POINT('Ctrl Pts',(1.,5.00000000000003,61.6038867923396));
#1649=CARTESIAN_POINT('Ctrl Pts',(1.,2.2147248605242E-14,61.6038867923396));
#1650=CARTESIAN_POINT('Ctrl Pts',(1.,-4.99999999999998,61.6038867923397));
#1651=CARTESIAN_POINT('Ctrl Pts',(1.,-4.99999999999999,56.6038867923396));
#1652=CARTESIAN_POINT('Ctrl Pts',(5.,5.,56.6038867923396));
#1653=CARTESIAN_POINT('Ctrl Pts',(5.,5.00000000000003,61.6038867923396));
#1654=CARTESIAN_POINT('Ctrl Pts',(5.,2.2147248605242E-14,61.6038867923396));
#1655=CARTESIAN_POINT('Ctrl Pts',(5.,-4.99999999999998,61.6038867923397));
#1656=CARTESIAN_POINT('Ctrl Pts',(5.,-4.99999999999999,56.6038867923396));
#1657=CARTESIAN_POINT('Ctrl Pts',(5.,0.999999999999993,56.6038867923396));
#1658=CARTESIAN_POINT('Ctrl Pts',(5.,0.999999999999999,57.6038867923396));
#1659=CARTESIAN_POINT('Ctrl Pts',(5.,8.42625260969893E-15,57.6038867923396));
#1660=CARTESIAN_POINT('Ctrl Pts',(5.,-0.999999999999982,57.6038867923396));
#1661=CARTESIAN_POINT('Ctrl Pts',(5.,-0.999999999999983,56.6038867923396));
#1662=CARTESIAN_POINT('',(1.,-5.,56.6038867923396));
#1663=CARTESIAN_POINT('Origin',(1.,-0.999999999999985,56.6038867923396));
#1664=CARTESIAN_POINT('Origin',(1.,4.9960036108132E-15,56.6038867923396));
#1665=CARTESIAN_POINT('Origin',(1.,-1.,40.3078795590886));
#1666=CARTESIAN_POINT('',(1.,-5.,1.73205080756888));
#1667=CARTESIAN_POINT('Origin',(1.,-1.,1.73205080756888));
#1668=CARTESIAN_POINT('',(1.,-5.,40.3078795590886));
#1669=CARTESIAN_POINT('Origin',(1.,-1.,40.3078795590886));
#1670=CARTESIAN_POINT('',(4.87298334620742,-2.,-2.77555756156289E-16));
#1671=CARTESIAN_POINT('Ctrl Pts',(5.,-1.00000000000009,1.73205080756882));
#1672=CARTESIAN_POINT('Ctrl Pts',(5.,-1.15059396649613,1.64510534047399));
#1673=CARTESIAN_POINT('Ctrl Pts',(4.99135420635515,-1.28808109937878,1.53883754307428));
#1674=CARTESIAN_POINT('Ctrl Pts',(4.96104016584888,-1.58566673108599,1.2449397930064));
#1675=CARTESIAN_POINT('Ctrl Pts',(4.93209963841503,-1.74150248744498,1.01943419491735));
#1676=CARTESIAN_POINT('Ctrl Pts',(4.88731385298687,-1.94869650985943,0.524078474384401));
#1677=CARTESIAN_POINT('Ctrl Pts',(4.87298334620742,-2.,0.254069662137912));
#1678=CARTESIAN_POINT('Ctrl Pts',(4.87298334620742,-2.,0.));
#1679=CARTESIAN_POINT('',(1.,-5.,-1.11022302462516E-15));
#1680=CARTESIAN_POINT('',(1.,-5.,40.3078795590886));
#1681=CARTESIAN_POINT('Origin',(1.,-1.,0.));
#1682=CARTESIAN_POINT('Origin',(1.,22.5,-0.999999999999999));
#1683=CARTESIAN_POINT('',(1.,1.73205080756888,-5.));
#1684=CARTESIAN_POINT('Origin',(1.,1.73205080756888,-0.999999999999999));
#1685=CARTESIAN_POINT('',(1.,80.,-5.));
#1686=CARTESIAN_POINT('',(1.,22.5,-5.));
#1687=CARTESIAN_POINT('Origin',(1.,80.,-0.999999999999999));
#1688=CARTESIAN_POINT('Origin',(1.,80.,-10.));
#1689=CARTESIAN_POINT('',(1.,85.,-10.));
#1690=CARTESIAN_POINT('Origin',(1.,89.,-9.99999999999999));
#1691=CARTESIAN_POINT('Origin',(1.,80.,-10.));
#1692=CARTESIAN_POINT('Origin',(1.,89.,7.00593616291879));
#1693=CARTESIAN_POINT('',(1.,85.,-13.5801421406645));
#1694=CARTESIAN_POINT('Origin',(1.,22.5,-0.999999999999999));
#1695=CARTESIAN_POINT('',(4.87298334620742,-7.15148590763916E-18,-2.));
#1696=CARTESIAN_POINT('Ctrl Pts',(4.87298334620742,6.93889390390723E-17,
-2.));
#1697=CARTESIAN_POINT('Ctrl Pts',(4.87298334620742,0.254069662137912,-2.));
#1698=CARTESIAN_POINT('Ctrl Pts',(4.88731385298687,0.524078474384401,-1.94869650985943));
#1699=CARTESIAN_POINT('Ctrl Pts',(4.93209963841503,1.01943419491735,-1.74150248744498));
#1700=CARTESIAN_POINT('Ctrl Pts',(4.96104016584888,1.2449397930064,-1.58566673108599));
#1701=CARTESIAN_POINT('Ctrl Pts',(4.99135420635515,1.53883754307428,-1.28808109937878));
#1702=CARTESIAN_POINT('Ctrl Pts',(5.,1.64510534047399,-1.15059396649613));
#1703=CARTESIAN_POINT('Ctrl Pts',(5.,1.73205080756883,-1.00000000000009));
#1704=CARTESIAN_POINT('',(1.,-2.86059436305566E-17,-5.));
#1705=CARTESIAN_POINT('Origin',(1.,0.,-0.999999999999999));
#1706=CARTESIAN_POINT('',(1.,22.5,-5.));
#1707=CARTESIAN_POINT('Ctrl Pts',(1.,-5.,-4.9960036108132E-15));
#1708=CARTESIAN_POINT('Ctrl Pts',(1.,-5.00000000000002,-5.00000000000002));
#1709=CARTESIAN_POINT('Ctrl Pts',(1.,-4.71844785465692E-15,-5.));
#1710=CARTESIAN_POINT('Ctrl Pts',(4.09838667696593,-5.,-4.9960036108132E-15));
#1711=CARTESIAN_POINT('Ctrl Pts',(4.09838667696593,-5.00000000000002,-5.00000000000002));
#1712=CARTESIAN_POINT('Ctrl Pts',(4.09838667696593,-4.71844785465692E-15,
-5.));
#1713=CARTESIAN_POINT('Ctrl Pts',(4.87298334620742,-2.,-4.9960036108132E-15));
#1714=CARTESIAN_POINT('Ctrl Pts',(4.87298334620742,-2.00000000000001,-2.00000000000001));
#1715=CARTESIAN_POINT('Ctrl Pts',(4.87298334620742,-4.71844785465692E-15,
-2.));
#1716=CARTESIAN_POINT('Origin',(4.87298334620742,-4.71844785465692E-15,
-4.9960036108132E-15));
#1717=CARTESIAN_POINT('Origin',(1.,-4.71844785465692E-15,-4.9960036108132E-15));
#1718=CARTESIAN_POINT('Origin',(0.,85.,16.4198578593355));
#1719=CARTESIAN_POINT('',(0.,85.,10.));
#1720=CARTESIAN_POINT('Origin',(0.,80.,10.));
#1721=CARTESIAN_POINT('',(0.,80.,5.));
#1722=CARTESIAN_POINT('Origin',(0.,80.,5.));
#1723=CARTESIAN_POINT('',(0.,10.,5.));
#1724=CARTESIAN_POINT('Origin',(0.,9.99999999999999,9.99999999999999));
#1725=CARTESIAN_POINT('',(0.,5.,10.));
#1726=CARTESIAN_POINT('Origin',(0.,5.,10.));
#1727=CARTESIAN_POINT('',(0.,5.,56.6038867923396));
#1728=CARTESIAN_POINT('Origin',(54.6038867923396,0.,0.));
#1729=CARTESIAN_POINT('',(54.6038867923396,-2.,-2.44929359829471E-16));
#1730=CARTESIAN_POINT('',(54.6038867923396,2.,0.));
#1731=CARTESIAN_POINT('Origin',(54.6038867923396,0.,0.));
#1732=CARTESIAN_POINT('',(56.6038867923396,1.22464679914735E-16,0.));
#1733=CARTESIAN_POINT('Origin',(54.6038867923396,0.,0.));
#1734=CARTESIAN_POINT('Origin',(54.6038867923396,0.,0.));
#1735=CARTESIAN_POINT('Origin',(0.,0.,0.));
#1736=CARTESIAN_POINT('',(44.6038867923396,-2.,-2.44929359829471E-16));
#1737=CARTESIAN_POINT('',(0.,-2.,-2.44929359829471E-16));
#1738=CARTESIAN_POINT('Origin',(44.6038867923396,0.,0.));
#1739=CARTESIAN_POINT('Ctrl Pts',(36.6038867923396,0.,2.5));
#1740=CARTESIAN_POINT('Ctrl Pts',(36.6038867923396,-2.5,2.5));
#1741=CARTESIAN_POINT('Ctrl Pts',(36.6038867923396,-2.5,0.));
#1742=CARTESIAN_POINT('Ctrl Pts',(36.6038867923396,-2.5,-2.5));
#1743=CARTESIAN_POINT('Ctrl Pts',(36.6038867923396,0.,-2.5));
#1744=CARTESIAN_POINT('Ctrl Pts',(36.6038867923396,2.5,-2.5));
#1745=CARTESIAN_POINT('Ctrl Pts',(36.6038867923396,2.5,0.));
#1746=CARTESIAN_POINT('Ctrl Pts',(36.6038867923396,2.5,2.5));
#1747=CARTESIAN_POINT('Ctrl Pts',(36.6038867923396,0.,2.5));
#1748=CARTESIAN_POINT('Ctrl Pts',(36.6038867923396,0.,5.));
#1749=CARTESIAN_POINT('Ctrl Pts',(36.6038867923396,-5.,5.));
#1750=CARTESIAN_POINT('Ctrl Pts',(36.6038867923396,-5.,0.));
#1751=CARTESIAN_POINT('Ctrl Pts',(36.6038867923396,-5.,-5.));
#1752=CARTESIAN_POINT('Ctrl Pts',(36.6038867923396,0.,-5.));
#1753=CARTESIAN_POINT('Ctrl Pts',(36.6038867923396,5.,-5.));
#1754=CARTESIAN_POINT('Ctrl Pts',(36.6038867923396,5.,0.));
#1755=CARTESIAN_POINT('Ctrl Pts',(36.6038867923396,5.,5.));
#1756=CARTESIAN_POINT('Ctrl Pts',(36.6038867923396,0.,5.));
#1757=CARTESIAN_POINT('Ctrl Pts',(39.1038867923396,0.,5.));
#1758=CARTESIAN_POINT('Ctrl Pts',(39.1038867923396,-5.,5.));
#1759=CARTESIAN_POINT('Ctrl Pts',(39.1038867923396,-5.,0.));
#1760=CARTESIAN_POINT('Ctrl Pts',(39.1038867923396,-5.,-5.));
#1761=CARTESIAN_POINT('Ctrl Pts',(39.1038867923396,0.,-5.));
#1762=CARTESIAN_POINT('Ctrl Pts',(39.1038867923396,5.,-5.));
#1763=CARTESIAN_POINT('Ctrl Pts',(39.1038867923396,5.,0.));
#1764=CARTESIAN_POINT('Ctrl Pts',(39.1038867923396,5.,5.));
#1765=CARTESIAN_POINT('Ctrl Pts',(39.1038867923396,0.,5.));
#1766=CARTESIAN_POINT('',(39.1038867923396,-5.,6.12323399573677E-16));
#1767=CARTESIAN_POINT('',(39.1038867923396,-6.12323399573677E-16,5.));
#1768=CARTESIAN_POINT('Origin',(39.1038867923396,0.,0.));
#1769=CARTESIAN_POINT('',(36.6038867923396,-3.06161699786838E-16,2.5));
#1770=CARTESIAN_POINT('Origin',(39.1038867923396,-3.06161699786838E-16,
2.5));
#1771=CARTESIAN_POINT('Origin',(36.6038867923396,0.,0.));
#1772=CARTESIAN_POINT('Origin',(39.1038867923396,0.,0.));
#1773=CARTESIAN_POINT('Origin',(36.6038867923396,0.,0.));
#1774=CARTESIAN_POINT('',(42.1038867923396,-5.,-6.12323399573677E-16));
#1775=CARTESIAN_POINT('',(42.1038867923396,-6.12323399573677E-16,5.));
#1776=CARTESIAN_POINT('Origin',(42.1038867923396,0.,0.));
#1777=CARTESIAN_POINT('',(36.6038867923396,-5.,-6.12323399573677E-16));
#1778=CARTESIAN_POINT('Origin',(42.1038867923396,0.,0.));
#1779=CARTESIAN_POINT('Origin',(36.6038867923396,0.,0.));
#1780=CARTESIAN_POINT('',(36.6038867923396,-2.,2.44929359829471E-16));
#1781=CARTESIAN_POINT('Origin',(36.6038867923396,0.,0.));
#1782=CARTESIAN_POINT('Ctrl Pts',(42.1038867923396,0.,5.));
#1783=CARTESIAN_POINT('Ctrl Pts',(42.1038867923396,-5.,5.));
#1784=CARTESIAN_POINT('Ctrl Pts',(42.1038867923396,-5.,0.));
#1785=CARTESIAN_POINT('Ctrl Pts',(42.1038867923396,-5.,-5.));
#1786=CARTESIAN_POINT('Ctrl Pts',(42.1038867923396,0.,-5.));
#1787=CARTESIAN_POINT('Ctrl Pts',(42.1038867923396,5.,-5.));
#1788=CARTESIAN_POINT('Ctrl Pts',(42.1038867923396,5.,0.));
#1789=CARTESIAN_POINT('Ctrl Pts',(42.1038867923396,5.,5.));
#1790=CARTESIAN_POINT('Ctrl Pts',(42.1038867923396,0.,5.));
#1791=CARTESIAN_POINT('Ctrl Pts',(44.6038867923396,0.,5.));
#1792=CARTESIAN_POINT('Ctrl Pts',(44.6038867923396,-5.,5.));
#1793=CARTESIAN_POINT('Ctrl Pts',(44.6038867923396,-5.,0.));
#1794=CARTESIAN_POINT('Ctrl Pts',(44.6038867923396,-5.,-5.));
#1795=CARTESIAN_POINT('Ctrl Pts',(44.6038867923396,0.,-5.));
#1796=CARTESIAN_POINT('Ctrl Pts',(44.6038867923396,5.,-5.));
#1797=CARTESIAN_POINT('Ctrl Pts',(44.6038867923396,5.,0.));
#1798=CARTESIAN_POINT('Ctrl Pts',(44.6038867923396,5.,5.));
#1799=CARTESIAN_POINT('Ctrl Pts',(44.6038867923396,0.,5.));
#1800=CARTESIAN_POINT('Ctrl Pts',(44.6038867923396,0.,2.5));
#1801=CARTESIAN_POINT('Ctrl Pts',(44.6038867923396,-2.5,2.5));
#1802=CARTESIAN_POINT('Ctrl Pts',(44.6038867923396,-2.5,0.));
#1803=CARTESIAN_POINT('Ctrl Pts',(44.6038867923396,-2.5,-2.5));
#1804=CARTESIAN_POINT('Ctrl Pts',(44.6038867923396,0.,-2.5));
#1805=CARTESIAN_POINT('Ctrl Pts',(44.6038867923396,2.5,-2.5));
#1806=CARTESIAN_POINT('Ctrl Pts',(44.6038867923396,2.5,0.));
#1807=CARTESIAN_POINT('Ctrl Pts',(44.6038867923396,2.5,2.5));
#1808=CARTESIAN_POINT('Ctrl Pts',(44.6038867923396,0.,2.5));
#1809=CARTESIAN_POINT('',(44.6038867923396,-3.06161699786838E-16,2.5));
#1810=CARTESIAN_POINT('Origin',(44.6038867923396,0.,0.));
#1811=CARTESIAN_POINT('Origin',(42.1038867923396,-3.06161699786838E-16,
2.5));
#1812=CARTESIAN_POINT('Origin',(44.6038867923396,0.,0.));
#1813=CARTESIAN_POINT('Origin',(0.,0.,0.));
#1814=CARTESIAN_POINT('',(0.,-2.,-2.44929359829471E-16));
#1815=CARTESIAN_POINT('Origin',(0.,4.9960036108132E-15,56.6038867923396));
#1816=CARTESIAN_POINT('',(0.,-5.,56.6038867923396));
#1817=CARTESIAN_POINT('Origin',(0.,85.,-10.));
#1818=CARTESIAN_POINT('',(0.,85.,-10.));
#1819=CARTESIAN_POINT('Origin',(0.,80.,-10.));
#1820=CARTESIAN_POINT('',(0.,80.,-5.));
#1821=CARTESIAN_POINT('Origin',(0.,0.,-5.));
#1822=CARTESIAN_POINT('',(0.,-2.86059436305566E-17,-5.));
#1823=CARTESIAN_POINT('Origin',(0.,-4.71844785465692E-15,-4.9960036108132E-15));
#1824=CARTESIAN_POINT('',(0.,-5.,-1.11022302462516E-15));
#1825=CARTESIAN_POINT('Origin',(0.,-5.,56.6038867923396));
#1826=UNCERTAINTY_MEASURE_WITH_UNIT(LENGTH_MEASURE(0.01),#1830,
'DISTANCE_ACCURACY_VALUE',
'Maximum model space distance between geometric entities at asserted c
onnectivities');
#1827=UNCERTAINTY_MEASURE_WITH_UNIT(LENGTH_MEASURE(0.01),#1830,
'DISTANCE_ACCURACY_VALUE',
'Maximum model space distance between geometric entities at asserted c
onnectivities');
#1828=(
GEOMETRIC_REPRESENTATION_CONTEXT(3)
GLOBAL_UNCERTAINTY_ASSIGNED_CONTEXT((#1826))
GLOBAL_UNIT_ASSIGNED_CONTEXT((#1830,#1832,#1833))
REPRESENTATION_CONTEXT('','3D')
);
#1829=(
GEOMETRIC_REPRESENTATION_CONTEXT(3)
GLOBAL_UNCERTAINTY_ASSIGNED_CONTEXT((#1827))
GLOBAL_UNIT_ASSIGNED_CONTEXT((#1830,#1832,#1833))
REPRESENTATION_CONTEXT('','3D')
);
#1830=(
LENGTH_UNIT()
NAMED_UNIT(*)
SI_UNIT(.MILLI.,.METRE.)
);
#1831=(
LENGTH_UNIT()
NAMED_UNIT(*)
SI_UNIT($,.METRE.)
);
#1832=(
NAMED_UNIT(*)
PLANE_ANGLE_UNIT()
SI_UNIT($,.RADIAN.)
);
#1833=(
NAMED_UNIT(*)
SI_UNIT($,.STERADIAN.)
SOLID_ANGLE_UNIT()
);
#1834=SHAPE_DEFINITION_REPRESENTATION(#1835,#1836);
#1835=PRODUCT_DEFINITION_SHAPE('',$,#1838);
#1836=SHAPE_REPRESENTATION('',(#940),#1828);
#1837=PRODUCT_DEFINITION_CONTEXT('part definition',#1842,'design');
#1838=PRODUCT_DEFINITION('Hammer','Hammer',#1839,#1837);
#1839=PRODUCT_DEFINITION_FORMATION('',$,#1844);
#1840=PRODUCT_RELATED_PRODUCT_CATEGORY('Hammer','Hammer',(#1844));
#1841=APPLICATION_PROTOCOL_DEFINITION('international standard',
'automotive_design',2009,#1842);
#1842=APPLICATION_CONTEXT(
'Core Data for Automotive Mechanical Design Process');
#1843=PRODUCT_CONTEXT('part definition',#1842,'mechanical');
#1844=PRODUCT('Hammer','Hammer',$,(#1843));
#1845=PRESENTATION_STYLE_ASSIGNMENT((#1846));
#1846=SURFACE_STYLE_USAGE(.BOTH.,#1847);
#1847=SURFACE_SIDE_STYLE('',(#1848));
#1848=SURFACE_STYLE_FILL_AREA(#1849);
#1849=FILL_AREA_STYLE('Steel - Satin',(#1850));
#1850=FILL_AREA_STYLE_COLOUR('Steel - Satin',#1851);
#1851=COLOUR_RGB('Steel - Satin',0.627450980392157,0.627450980392157,0.627450980392157);
ENDSEC;
END-ISO-10303-21;
