ISO-10303-21;
HEADER;
/* Generated by software containing ST-Developer
 * from STEP Tools, Inc. (www.steptools.com) 
 */

FILE_DESCRIPTION(
/* description */ (''),
/* implementation_level */ '2;1');

FILE_NAME(
/* name */ 'soporte1.step',
/* time_stamp */ '2026-07-30T14:13:06-03:00',
/* author */ (''),
/* organization */ (''),
/* preprocessor_version */ 'ST-DEVELOPER v20.1',
/* originating_system */ 'Autodesk Translation Framework v14.24.0.0',
/* authorisation */ '');

FILE_SCHEMA (('AUTOMOTIVE_DESIGN { 1 0 10303 214 3 1 1 }'));
ENDSEC;

DATA;
#10=MECHANICAL_DESIGN_GEOMETRIC_PRESENTATION_REPRESENTATION('',(#13),#1310);
#11=SHAPE_REPRESENTATION_RELATIONSHIP('SRR','None',#1317,#12);
#12=ADVANCED_BREP_SHAPE_REPRESENTATION('',(#14),#1309);
#13=STYLED_ITEM('',(#1326),#14);
#14=MANIFOLD_SOLID_BREP('soporte1',#754);
#15=FACE_BOUND('',#273,.T.);
#16=FACE_BOUND('',#274,.T.);
#17=FACE_BOUND('',#276,.T.);
#18=FACE_BOUND('',#277,.T.);
#19=PLANE('',#809);
#20=PLANE('',#810);
#21=PLANE('',#811);
#22=PLANE('',#812);
#23=PLANE('',#813);
#24=PLANE('',#814);
#25=PLANE('',#815);
#26=PLANE('',#825);
#27=PLANE('',#829);
#28=PLANE('',#833);
#29=PLANE('',#837);
#30=PLANE('',#841);
#31=PLANE('',#845);
#32=PLANE('',#846);
#33=PLANE('',#850);
#34=PLANE('',#851);
#35=PLANE('',#852);
#36=TOROIDAL_SURFACE('',#789,9.998,4.999);
#37=TOROIDAL_SURFACE('',#797,9.998,4.999);
#38=LINE('',#1102,#103);
#39=LINE('',#1103,#104);
#40=LINE('',#1115,#105);
#41=LINE('',#1116,#106);
#42=LINE('',#1118,#107);
#43=LINE('',#1119,#108);
#44=LINE('',#1144,#109);
#45=LINE('',#1145,#110);
#46=LINE('',#1150,#111);
#47=LINE('',#1151,#112);
#48=LINE('',#1165,#113);
#49=LINE('',#1166,#114);
#50=LINE('',#1168,#115);
#51=LINE('',#1169,#116);
#52=LINE('',#1171,#117);
#53=LINE('',#1172,#118);
#54=LINE('',#1174,#119);
#55=LINE('',#1175,#120);
#56=LINE('',#1177,#121);
#57=LINE('',#1178,#122);
#58=LINE('',#1180,#123);
#59=LINE('',#1181,#124);
#60=LINE('',#1183,#125);
#61=LINE('',#1186,#126);
#62=LINE('',#1188,#127);
#63=LINE('',#1190,#128);
#64=LINE('',#1192,#129);
#65=LINE('',#1194,#130);
#66=LINE('',#1196,#131);
#67=LINE('',#1197,#132);
#68=LINE('',#1199,#133);
#69=LINE('',#1203,#134);
#70=LINE('',#1205,#135);
#71=LINE('',#1210,#136);
#72=LINE('',#1216,#137);
#73=LINE('',#1223,#138);
#74=LINE('',#1226,#139);
#75=LINE('',#1229,#140);
#76=LINE('',#1231,#141);
#77=LINE('',#1232,#142);
#78=LINE('',#1238,#143);
#79=LINE('',#1241,#144);
#80=LINE('',#1243,#145);
#81=LINE('',#1244,#146);
#82=LINE('',#1250,#147);
#83=LINE('',#1253,#148);
#84=LINE('',#1255,#149);
#85=LINE('',#1256,#150);
#86=LINE('',#1262,#151);
#87=LINE('',#1265,#152);
#88=LINE('',#1267,#153);
#89=LINE('',#1268,#154);
#90=LINE('',#1274,#155);
#91=LINE('',#1277,#156);
#92=LINE('',#1279,#157);
#93=LINE('',#1280,#158);
#94=LINE('',#1286,#159);
#95=LINE('',#1288,#160);
#96=LINE('',#1289,#161);
#97=LINE('',#1292,#162);
#98=LINE('',#1294,#163);
#99=LINE('',#1295,#164);
#100=LINE('',#1301,#165);
#101=LINE('',#1303,#166);
#102=LINE('',#1304,#167);
#103=VECTOR('',#867,10.);
#104=VECTOR('',#868,10.);
#105=VECTOR('',#881,10.);
#106=VECTOR('',#882,10.);
#107=VECTOR('',#885,10.);
#108=VECTOR('',#886,10.);
#109=VECTOR('',#915,10.);
#110=VECTOR('',#916,10.);
#111=VECTOR('',#921,10.);
#112=VECTOR('',#922,10.);
#113=VECTOR('',#937,10.);
#114=VECTOR('',#938,10.);
#115=VECTOR('',#941,10.);
#116=VECTOR('',#942,10.);
#117=VECTOR('',#945,10.);
#118=VECTOR('',#946,10.);
#119=VECTOR('',#949,10.);
#120=VECTOR('',#950,10.);
#121=VECTOR('',#953,10.);
#122=VECTOR('',#954,10.);
#123=VECTOR('',#957,10.);
#124=VECTOR('',#958,10.);
#125=VECTOR('',#961,10.);
#126=VECTOR('',#964,10.);
#127=VECTOR('',#965,10.);
#128=VECTOR('',#966,10.);
#129=VECTOR('',#967,10.);
#130=VECTOR('',#968,10.);
#131=VECTOR('',#969,10.);
#132=VECTOR('',#970,10.);
#133=VECTOR('',#973,10.);
#134=VECTOR('',#980,10.);
#135=VECTOR('',#983,10.);
#136=VECTOR('',#988,2.5);
#137=VECTOR('',#995,2.5);
#138=VECTOR('',#1002,10.);
#139=VECTOR('',#1005,10.);
#140=VECTOR('',#1008,10.);
#141=VECTOR('',#1009,10.);
#142=VECTOR('',#1010,10.);
#143=VECTOR('',#1017,10.);
#144=VECTOR('',#1020,10.);
#145=VECTOR('',#1021,10.);
#146=VECTOR('',#1022,10.);
#147=VECTOR('',#1029,10.);
#148=VECTOR('',#1032,10.);
#149=VECTOR('',#1033,10.);
#150=VECTOR('',#1034,10.);
#151=VECTOR('',#1041,10.);
#152=VECTOR('',#1044,10.);
#153=VECTOR('',#1045,10.);
#154=VECTOR('',#1046,10.);
#155=VECTOR('',#1053,10.);
#156=VECTOR('',#1056,10.);
#157=VECTOR('',#1057,10.);
#158=VECTOR('',#1058,10.);
#159=VECTOR('',#1065,10.);
#160=VECTOR('',#1068,10.);
#161=VECTOR('',#1069,10.);
#162=VECTOR('',#1072,10.);
#163=VECTOR('',#1073,10.);
#164=VECTOR('',#1074,10.);
#165=VECTOR('',#1081,10.);
#166=VECTOR('',#1084,10.);
#167=VECTOR('',#1085,10.);
#168=CYLINDRICAL_SURFACE('',#772,4.999);
#169=CYLINDRICAL_SURFACE('',#778,4.999);
#170=CYLINDRICAL_SURFACE('',#780,4.999);
#171=CYLINDRICAL_SURFACE('',#794,4.999);
#172=CYLINDRICAL_SURFACE('',#795,4.999);
#173=CYLINDRICAL_SURFACE('',#802,4.999);
#174=CYLINDRICAL_SURFACE('',#804,4.999);
#175=CYLINDRICAL_SURFACE('',#805,4.999);
#176=CYLINDRICAL_SURFACE('',#806,4.999);
#177=CYLINDRICAL_SURFACE('',#807,4.999);
#178=CYLINDRICAL_SURFACE('',#808,4.999);
#179=CYLINDRICAL_SURFACE('',#816,2.5);
#180=CYLINDRICAL_SURFACE('',#819,2.5);
#181=CYLINDRICAL_SURFACE('',#822,5.);
#182=CYLINDRICAL_SURFACE('',#826,10.);
#183=CYLINDRICAL_SURFACE('',#830,4.99999999999999);
#184=CYLINDRICAL_SURFACE('',#834,9.99999999999994);
#185=CYLINDRICAL_SURFACE('',#838,5.);
#186=CYLINDRICAL_SURFACE('',#842,10.);
#187=CYLINDRICAL_SURFACE('',#847,5.);
#188=FACE_OUTER_BOUND('',#231,.T.);
#189=FACE_OUTER_BOUND('',#232,.T.);
#190=FACE_OUTER_BOUND('',#233,.T.);
#191=FACE_OUTER_BOUND('',#234,.T.);
#192=FACE_OUTER_BOUND('',#235,.T.);
#193=FACE_OUTER_BOUND('',#236,.T.);
#194=FACE_OUTER_BOUND('',#237,.T.);
#195=FACE_OUTER_BOUND('',#238,.T.);
#196=FACE_OUTER_BOUND('',#239,.T.);
#197=FACE_OUTER_BOUND('',#240,.T.);
#198=FACE_OUTER_BOUND('',#241,.T.);
#199=FACE_OUTER_BOUND('',#242,.T.);
#200=FACE_OUTER_BOUND('',#243,.T.);
#201=FACE_OUTER_BOUND('',#244,.T.);
#202=FACE_OUTER_BOUND('',#245,.T.);
#203=FACE_OUTER_BOUND('',#246,.T.);
#204=FACE_OUTER_BOUND('',#247,.T.);
#205=FACE_OUTER_BOUND('',#248,.T.);
#206=FACE_OUTER_BOUND('',#249,.T.);
#207=FACE_OUTER_BOUND('',#250,.T.);
#208=FACE_OUTER_BOUND('',#251,.T.);
#209=FACE_OUTER_BOUND('',#252,.T.);
#210=FACE_OUTER_BOUND('',#253,.T.);
#211=FACE_OUTER_BOUND('',#254,.T.);
#212=FACE_OUTER_BOUND('',#255,.T.);
#213=FACE_OUTER_BOUND('',#256,.T.);
#214=FACE_OUTER_BOUND('',#257,.T.);
#215=FACE_OUTER_BOUND('',#258,.T.);
#216=FACE_OUTER_BOUND('',#259,.T.);
#217=FACE_OUTER_BOUND('',#260,.T.);
#218=FACE_OUTER_BOUND('',#261,.T.);
#219=FACE_OUTER_BOUND('',#262,.T.);
#220=FACE_OUTER_BOUND('',#263,.T.);
#221=FACE_OUTER_BOUND('',#264,.T.);
#222=FACE_OUTER_BOUND('',#265,.T.);
#223=FACE_OUTER_BOUND('',#266,.T.);
#224=FACE_OUTER_BOUND('',#267,.T.);
#225=FACE_OUTER_BOUND('',#268,.T.);
#226=FACE_OUTER_BOUND('',#269,.T.);
#227=FACE_OUTER_BOUND('',#270,.T.);
#228=FACE_OUTER_BOUND('',#271,.T.);
#229=FACE_OUTER_BOUND('',#272,.T.);
#230=FACE_OUTER_BOUND('',#275,.T.);
#231=EDGE_LOOP('',(#493,#494,#495));
#232=EDGE_LOOP('',(#496,#497,#498,#499));
#233=EDGE_LOOP('',(#500,#501,#502));
#234=EDGE_LOOP('',(#503,#504,#505,#506));
#235=EDGE_LOOP('',(#507,#508,#509,#510));
#236=EDGE_LOOP('',(#511,#512,#513));
#237=EDGE_LOOP('',(#514,#515,#516));
#238=EDGE_LOOP('',(#517,#518,#519,#520));
#239=EDGE_LOOP('',(#521,#522,#523,#524));
#240=EDGE_LOOP('',(#525,#526,#527,#528));
#241=EDGE_LOOP('',(#529,#530,#531,#532));
#242=EDGE_LOOP('',(#533,#534,#535,#536));
#243=EDGE_LOOP('',(#537,#538,#539,#540));
#244=EDGE_LOOP('',(#541,#542,#543,#544));
#245=EDGE_LOOP('',(#545,#546,#547,#548));
#246=EDGE_LOOP('',(#549,#550,#551,#552));
#247=EDGE_LOOP('',(#553,#554,#555,#556));
#248=EDGE_LOOP('',(#557,#558,#559,#560));
#249=EDGE_LOOP('',(#561,#562,#563,#564,#565,#566,#567,#568,#569,#570));
#250=EDGE_LOOP('',(#571,#572,#573,#574,#575,#576,#577));
#251=EDGE_LOOP('',(#578,#579,#580,#581));
#252=EDGE_LOOP('',(#582,#583,#584,#585));
#253=EDGE_LOOP('',(#586,#587,#588,#589));
#254=EDGE_LOOP('',(#590,#591,#592,#593,#594,#595,#596));
#255=EDGE_LOOP('',(#597,#598,#599,#600));
#256=EDGE_LOOP('',(#601,#602,#603,#604));
#257=EDGE_LOOP('',(#605,#606,#607,#608));
#258=EDGE_LOOP('',(#609,#610,#611,#612));
#259=EDGE_LOOP('',(#613,#614,#615,#616));
#260=EDGE_LOOP('',(#617,#618,#619,#620));
#261=EDGE_LOOP('',(#621,#622,#623,#624));
#262=EDGE_LOOP('',(#625,#626,#627,#628));
#263=EDGE_LOOP('',(#629,#630,#631,#632));
#264=EDGE_LOOP('',(#633,#634,#635,#636));
#265=EDGE_LOOP('',(#637,#638,#639,#640));
#266=EDGE_LOOP('',(#641,#642,#643,#644));
#267=EDGE_LOOP('',(#645,#646,#647,#648));
#268=EDGE_LOOP('',(#649,#650,#651,#652));
#269=EDGE_LOOP('',(#653,#654,#655,#656));
#270=EDGE_LOOP('',(#657,#658,#659,#660));
#271=EDGE_LOOP('',(#661,#662,#663,#664));
#272=EDGE_LOOP('',(#665,#666,#667,#668,#669,#670,#671,#672,#673,#674,#675,
#676,#677,#678,#679,#680));
#273=EDGE_LOOP('',(#681));
#274=EDGE_LOOP('',(#682));
#275=EDGE_LOOP('',(#683,#684,#685,#686,#687,#688,#689,#690,#691,#692,#693,
#694,#695,#696,#697,#698,#699,#700,#701,#702,#703,#704));
#276=EDGE_LOOP('',(#705));
#277=EDGE_LOOP('',(#706));
#278=CIRCLE('',#769,4.999);
#279=CIRCLE('',#770,4.999);
#280=CIRCLE('',#771,4.999);
#281=CIRCLE('',#773,4.999);
#282=CIRCLE('',#775,4.999);
#283=CIRCLE('',#776,4.999);
#284=CIRCLE('',#777,4.999);
#285=CIRCLE('',#779,4.999);
#286=CIRCLE('',#782,4.999);
#287=CIRCLE('',#783,4.999);
#288=CIRCLE('',#784,4.999);
#289=CIRCLE('',#786,4.999);
#290=CIRCLE('',#787,4.999);
#291=CIRCLE('',#788,4.999);
#292=CIRCLE('',#790,4.999);
#293=CIRCLE('',#791,4.999);
#294=CIRCLE('',#792,9.998);
#295=CIRCLE('',#793,4.999);
#296=CIRCLE('',#796,4.999);
#297=CIRCLE('',#798,4.999);
#298=CIRCLE('',#799,4.999);
#299=CIRCLE('',#800,9.998);
#300=CIRCLE('',#801,4.999);
#301=CIRCLE('',#803,4.999);
#302=CIRCLE('',#817,2.5);
#303=CIRCLE('',#818,2.5);
#304=CIRCLE('',#820,2.5);
#305=CIRCLE('',#821,2.5);
#306=CIRCLE('',#823,5.);
#307=CIRCLE('',#824,5.);
#308=CIRCLE('',#827,10.);
#309=CIRCLE('',#828,10.);
#310=CIRCLE('',#831,4.99999999999999);
#311=CIRCLE('',#832,4.99999999999999);
#312=CIRCLE('',#835,9.99999999999994);
#313=CIRCLE('',#836,9.99999999999994);
#314=CIRCLE('',#839,5.);
#315=CIRCLE('',#840,5.);
#316=CIRCLE('',#843,10.);
#317=CIRCLE('',#844,10.);
#318=CIRCLE('',#848,5.);
#319=CIRCLE('',#849,5.);
#320=VERTEX_POINT('',#1092);
#321=VERTEX_POINT('',#1093);
#322=VERTEX_POINT('',#1095);
#323=VERTEX_POINT('',#1099);
#324=VERTEX_POINT('',#1100);
#325=VERTEX_POINT('',#1105);
#326=VERTEX_POINT('',#1106);
#327=VERTEX_POINT('',#1108);
#328=VERTEX_POINT('',#1112);
#329=VERTEX_POINT('',#1113);
#330=VERTEX_POINT('',#1121);
#331=VERTEX_POINT('',#1122);
#332=VERTEX_POINT('',#1124);
#333=VERTEX_POINT('',#1128);
#334=VERTEX_POINT('',#1129);
#335=VERTEX_POINT('',#1131);
#336=VERTEX_POINT('',#1135);
#337=VERTEX_POINT('',#1136);
#338=VERTEX_POINT('',#1138);
#339=VERTEX_POINT('',#1140);
#340=VERTEX_POINT('',#1147);
#341=VERTEX_POINT('',#1148);
#342=VERTEX_POINT('',#1153);
#343=VERTEX_POINT('',#1154);
#344=VERTEX_POINT('',#1156);
#345=VERTEX_POINT('',#1158);
#346=VERTEX_POINT('',#1162);
#347=VERTEX_POINT('',#1163);
#348=VERTEX_POINT('',#1185);
#349=VERTEX_POINT('',#1187);
#350=VERTEX_POINT('',#1189);
#351=VERTEX_POINT('',#1191);
#352=VERTEX_POINT('',#1193);
#353=VERTEX_POINT('',#1195);
#354=VERTEX_POINT('',#1207);
#355=VERTEX_POINT('',#1209);
#356=VERTEX_POINT('',#1213);
#357=VERTEX_POINT('',#1215);
#358=VERTEX_POINT('',#1219);
#359=VERTEX_POINT('',#1220);
#360=VERTEX_POINT('',#1222);
#361=VERTEX_POINT('',#1224);
#362=VERTEX_POINT('',#1228);
#363=VERTEX_POINT('',#1230);
#364=VERTEX_POINT('',#1234);
#365=VERTEX_POINT('',#1236);
#366=VERTEX_POINT('',#1240);
#367=VERTEX_POINT('',#1242);
#368=VERTEX_POINT('',#1246);
#369=VERTEX_POINT('',#1248);
#370=VERTEX_POINT('',#1252);
#371=VERTEX_POINT('',#1254);
#372=VERTEX_POINT('',#1258);
#373=VERTEX_POINT('',#1260);
#374=VERTEX_POINT('',#1264);
#375=VERTEX_POINT('',#1266);
#376=VERTEX_POINT('',#1270);
#377=VERTEX_POINT('',#1272);
#378=VERTEX_POINT('',#1276);
#379=VERTEX_POINT('',#1278);
#380=VERTEX_POINT('',#1282);
#381=VERTEX_POINT('',#1284);
#382=VERTEX_POINT('',#1291);
#383=VERTEX_POINT('',#1293);
#384=VERTEX_POINT('',#1297);
#385=VERTEX_POINT('',#1299);
#386=EDGE_CURVE('',#320,#321,#278,.F.);
#387=EDGE_CURVE('',#322,#320,#279,.F.);
#388=EDGE_CURVE('',#321,#322,#280,.F.);
#389=EDGE_CURVE('',#323,#324,#281,.T.);
#390=EDGE_CURVE('',#324,#322,#38,.T.);
#391=EDGE_CURVE('',#320,#323,#39,.T.);
#392=EDGE_CURVE('',#325,#326,#282,.F.);
#393=EDGE_CURVE('',#327,#325,#283,.F.);
#394=EDGE_CURVE('',#326,#327,#284,.F.);
#395=EDGE_CURVE('',#328,#329,#285,.T.);
#396=EDGE_CURVE('',#329,#327,#40,.T.);
#397=EDGE_CURVE('',#325,#328,#41,.T.);
#398=EDGE_CURVE('',#321,#326,#42,.T.);
#399=EDGE_CURVE('',#327,#320,#43,.T.);
#400=EDGE_CURVE('',#330,#331,#286,.F.);
#401=EDGE_CURVE('',#332,#330,#287,.F.);
#402=EDGE_CURVE('',#331,#332,#288,.F.);
#403=EDGE_CURVE('',#333,#334,#289,.F.);
#404=EDGE_CURVE('',#335,#333,#290,.F.);
#405=EDGE_CURVE('',#334,#335,#291,.F.);
#406=EDGE_CURVE('',#336,#337,#292,.F.);
#407=EDGE_CURVE('',#338,#336,#293,.T.);
#408=EDGE_CURVE('',#338,#339,#294,.T.);
#409=EDGE_CURVE('',#337,#339,#295,.T.);
#410=EDGE_CURVE('',#330,#338,#44,.T.);
#411=EDGE_CURVE('',#336,#332,#45,.T.);
#412=EDGE_CURVE('',#340,#341,#296,.F.);
#413=EDGE_CURVE('',#341,#337,#46,.T.);
#414=EDGE_CURVE('',#339,#340,#47,.T.);
#415=EDGE_CURVE('',#342,#343,#297,.F.);
#416=EDGE_CURVE('',#344,#342,#298,.T.);
#417=EDGE_CURVE('',#344,#345,#299,.T.);
#418=EDGE_CURVE('',#343,#345,#300,.T.);
#419=EDGE_CURVE('',#346,#347,#301,.F.);
#420=EDGE_CURVE('',#347,#344,#48,.T.);
#421=EDGE_CURVE('',#342,#346,#49,.T.);
#422=EDGE_CURVE('',#333,#343,#50,.T.);
#423=EDGE_CURVE('',#345,#335,#51,.T.);
#424=EDGE_CURVE('',#337,#342,#52,.T.);
#425=EDGE_CURVE('',#343,#336,#53,.T.);
#426=EDGE_CURVE('',#326,#334,#54,.T.);
#427=EDGE_CURVE('',#335,#325,#55,.T.);
#428=EDGE_CURVE('',#334,#331,#56,.T.);
#429=EDGE_CURVE('',#332,#333,#57,.T.);
#430=EDGE_CURVE('',#331,#321,#58,.T.);
#431=EDGE_CURVE('',#322,#330,#59,.T.);
#432=EDGE_CURVE('',#329,#323,#60,.T.);
#433=EDGE_CURVE('',#348,#328,#61,.T.);
#434=EDGE_CURVE('',#348,#349,#62,.T.);
#435=EDGE_CURVE('',#349,#350,#63,.T.);
#436=EDGE_CURVE('',#351,#350,#64,.T.);
#437=EDGE_CURVE('',#352,#351,#65,.T.);
#438=EDGE_CURVE('',#352,#353,#66,.T.);
#439=EDGE_CURVE('',#353,#324,#67,.T.);
#440=EDGE_CURVE('',#348,#347,#68,.T.);
#441=EDGE_CURVE('',#346,#341,#69,.T.);
#442=EDGE_CURVE('',#340,#353,#70,.T.);
#443=EDGE_CURVE('',#354,#354,#302,.T.);
#444=EDGE_CURVE('',#354,#355,#71,.T.);
#445=EDGE_CURVE('',#355,#355,#303,.T.);
#446=EDGE_CURVE('',#356,#356,#304,.T.);
#447=EDGE_CURVE('',#356,#357,#72,.T.);
#448=EDGE_CURVE('',#357,#357,#305,.T.);
#449=EDGE_CURVE('',#358,#359,#306,.T.);
#450=EDGE_CURVE('',#358,#360,#73,.T.);
#451=EDGE_CURVE('',#361,#360,#307,.T.);
#452=EDGE_CURVE('',#359,#361,#74,.T.);
#453=EDGE_CURVE('',#362,#359,#75,.T.);
#454=EDGE_CURVE('',#363,#361,#76,.T.);
#455=EDGE_CURVE('',#362,#363,#77,.T.);
#456=EDGE_CURVE('',#362,#364,#308,.T.);
#457=EDGE_CURVE('',#365,#363,#309,.T.);
#458=EDGE_CURVE('',#364,#365,#78,.T.);
#459=EDGE_CURVE('',#366,#364,#79,.T.);
#460=EDGE_CURVE('',#367,#365,#80,.T.);
#461=EDGE_CURVE('',#366,#367,#81,.T.);
#462=EDGE_CURVE('',#368,#366,#310,.T.);
#463=EDGE_CURVE('',#369,#367,#311,.T.);
#464=EDGE_CURVE('',#368,#369,#82,.T.);
#465=EDGE_CURVE('',#368,#370,#83,.T.);
#466=EDGE_CURVE('',#371,#369,#84,.T.);
#467=EDGE_CURVE('',#370,#371,#85,.T.);
#468=EDGE_CURVE('',#370,#372,#312,.T.);
#469=EDGE_CURVE('',#373,#371,#313,.T.);
#470=EDGE_CURVE('',#372,#373,#86,.T.);
#471=EDGE_CURVE('',#372,#374,#87,.T.);
#472=EDGE_CURVE('',#375,#373,#88,.T.);
#473=EDGE_CURVE('',#374,#375,#89,.T.);
#474=EDGE_CURVE('',#374,#376,#314,.T.);
#475=EDGE_CURVE('',#377,#375,#315,.T.);
#476=EDGE_CURVE('',#376,#377,#90,.T.);
#477=EDGE_CURVE('',#378,#376,#91,.T.);
#478=EDGE_CURVE('',#379,#377,#92,.T.);
#479=EDGE_CURVE('',#378,#379,#93,.T.);
#480=EDGE_CURVE('',#380,#378,#316,.T.);
#481=EDGE_CURVE('',#381,#379,#317,.T.);
#482=EDGE_CURVE('',#380,#381,#94,.T.);
#483=EDGE_CURVE('',#349,#380,#95,.T.);
#484=EDGE_CURVE('',#350,#381,#96,.T.);
#485=EDGE_CURVE('',#382,#352,#97,.T.);
#486=EDGE_CURVE('',#383,#351,#98,.T.);
#487=EDGE_CURVE('',#382,#383,#99,.T.);
#488=EDGE_CURVE('',#384,#382,#318,.T.);
#489=EDGE_CURVE('',#385,#383,#319,.T.);
#490=EDGE_CURVE('',#384,#385,#100,.T.);
#491=EDGE_CURVE('',#358,#384,#101,.T.);
#492=EDGE_CURVE('',#360,#385,#102,.T.);
#493=ORIENTED_EDGE('',*,*,#386,.F.);
#494=ORIENTED_EDGE('',*,*,#387,.F.);
#495=ORIENTED_EDGE('',*,*,#388,.F.);
#496=ORIENTED_EDGE('',*,*,#389,.T.);
#497=ORIENTED_EDGE('',*,*,#390,.T.);
#498=ORIENTED_EDGE('',*,*,#387,.T.);
#499=ORIENTED_EDGE('',*,*,#391,.T.);
#500=ORIENTED_EDGE('',*,*,#392,.F.);
#501=ORIENTED_EDGE('',*,*,#393,.F.);
#502=ORIENTED_EDGE('',*,*,#394,.F.);
#503=ORIENTED_EDGE('',*,*,#395,.T.);
#504=ORIENTED_EDGE('',*,*,#396,.T.);
#505=ORIENTED_EDGE('',*,*,#393,.T.);
#506=ORIENTED_EDGE('',*,*,#397,.T.);
#507=ORIENTED_EDGE('',*,*,#386,.T.);
#508=ORIENTED_EDGE('',*,*,#398,.T.);
#509=ORIENTED_EDGE('',*,*,#394,.T.);
#510=ORIENTED_EDGE('',*,*,#399,.T.);
#511=ORIENTED_EDGE('',*,*,#400,.F.);
#512=ORIENTED_EDGE('',*,*,#401,.F.);
#513=ORIENTED_EDGE('',*,*,#402,.F.);
#514=ORIENTED_EDGE('',*,*,#403,.F.);
#515=ORIENTED_EDGE('',*,*,#404,.F.);
#516=ORIENTED_EDGE('',*,*,#405,.F.);
#517=ORIENTED_EDGE('',*,*,#406,.F.);
#518=ORIENTED_EDGE('',*,*,#407,.F.);
#519=ORIENTED_EDGE('',*,*,#408,.T.);
#520=ORIENTED_EDGE('',*,*,#409,.F.);
#521=ORIENTED_EDGE('',*,*,#401,.T.);
#522=ORIENTED_EDGE('',*,*,#410,.T.);
#523=ORIENTED_EDGE('',*,*,#407,.T.);
#524=ORIENTED_EDGE('',*,*,#411,.T.);
#525=ORIENTED_EDGE('',*,*,#412,.T.);
#526=ORIENTED_EDGE('',*,*,#413,.T.);
#527=ORIENTED_EDGE('',*,*,#409,.T.);
#528=ORIENTED_EDGE('',*,*,#414,.T.);
#529=ORIENTED_EDGE('',*,*,#415,.F.);
#530=ORIENTED_EDGE('',*,*,#416,.F.);
#531=ORIENTED_EDGE('',*,*,#417,.T.);
#532=ORIENTED_EDGE('',*,*,#418,.F.);
#533=ORIENTED_EDGE('',*,*,#419,.T.);
#534=ORIENTED_EDGE('',*,*,#420,.T.);
#535=ORIENTED_EDGE('',*,*,#416,.T.);
#536=ORIENTED_EDGE('',*,*,#421,.T.);
#537=ORIENTED_EDGE('',*,*,#404,.T.);
#538=ORIENTED_EDGE('',*,*,#422,.T.);
#539=ORIENTED_EDGE('',*,*,#418,.T.);
#540=ORIENTED_EDGE('',*,*,#423,.T.);
#541=ORIENTED_EDGE('',*,*,#406,.T.);
#542=ORIENTED_EDGE('',*,*,#424,.T.);
#543=ORIENTED_EDGE('',*,*,#415,.T.);
#544=ORIENTED_EDGE('',*,*,#425,.T.);
#545=ORIENTED_EDGE('',*,*,#392,.T.);
#546=ORIENTED_EDGE('',*,*,#426,.T.);
#547=ORIENTED_EDGE('',*,*,#405,.T.);
#548=ORIENTED_EDGE('',*,*,#427,.T.);
#549=ORIENTED_EDGE('',*,*,#403,.T.);
#550=ORIENTED_EDGE('',*,*,#428,.T.);
#551=ORIENTED_EDGE('',*,*,#402,.T.);
#552=ORIENTED_EDGE('',*,*,#429,.T.);
#553=ORIENTED_EDGE('',*,*,#400,.T.);
#554=ORIENTED_EDGE('',*,*,#430,.T.);
#555=ORIENTED_EDGE('',*,*,#388,.T.);
#556=ORIENTED_EDGE('',*,*,#431,.T.);
#557=ORIENTED_EDGE('',*,*,#391,.F.);
#558=ORIENTED_EDGE('',*,*,#399,.F.);
#559=ORIENTED_EDGE('',*,*,#396,.F.);
#560=ORIENTED_EDGE('',*,*,#432,.T.);
#561=ORIENTED_EDGE('',*,*,#389,.F.);
#562=ORIENTED_EDGE('',*,*,#432,.F.);
#563=ORIENTED_EDGE('',*,*,#395,.F.);
#564=ORIENTED_EDGE('',*,*,#433,.F.);
#565=ORIENTED_EDGE('',*,*,#434,.T.);
#566=ORIENTED_EDGE('',*,*,#435,.T.);
#567=ORIENTED_EDGE('',*,*,#436,.F.);
#568=ORIENTED_EDGE('',*,*,#437,.F.);
#569=ORIENTED_EDGE('',*,*,#438,.T.);
#570=ORIENTED_EDGE('',*,*,#439,.T.);
#571=ORIENTED_EDGE('',*,*,#397,.F.);
#572=ORIENTED_EDGE('',*,*,#427,.F.);
#573=ORIENTED_EDGE('',*,*,#423,.F.);
#574=ORIENTED_EDGE('',*,*,#417,.F.);
#575=ORIENTED_EDGE('',*,*,#420,.F.);
#576=ORIENTED_EDGE('',*,*,#440,.F.);
#577=ORIENTED_EDGE('',*,*,#433,.T.);
#578=ORIENTED_EDGE('',*,*,#398,.F.);
#579=ORIENTED_EDGE('',*,*,#430,.F.);
#580=ORIENTED_EDGE('',*,*,#428,.F.);
#581=ORIENTED_EDGE('',*,*,#426,.F.);
#582=ORIENTED_EDGE('',*,*,#422,.F.);
#583=ORIENTED_EDGE('',*,*,#429,.F.);
#584=ORIENTED_EDGE('',*,*,#411,.F.);
#585=ORIENTED_EDGE('',*,*,#425,.F.);
#586=ORIENTED_EDGE('',*,*,#413,.F.);
#587=ORIENTED_EDGE('',*,*,#441,.F.);
#588=ORIENTED_EDGE('',*,*,#421,.F.);
#589=ORIENTED_EDGE('',*,*,#424,.F.);
#590=ORIENTED_EDGE('',*,*,#390,.F.);
#591=ORIENTED_EDGE('',*,*,#439,.F.);
#592=ORIENTED_EDGE('',*,*,#442,.F.);
#593=ORIENTED_EDGE('',*,*,#414,.F.);
#594=ORIENTED_EDGE('',*,*,#408,.F.);
#595=ORIENTED_EDGE('',*,*,#410,.F.);
#596=ORIENTED_EDGE('',*,*,#431,.F.);
#597=ORIENTED_EDGE('',*,*,#443,.F.);
#598=ORIENTED_EDGE('',*,*,#444,.T.);
#599=ORIENTED_EDGE('',*,*,#445,.T.);
#600=ORIENTED_EDGE('',*,*,#444,.F.);
#601=ORIENTED_EDGE('',*,*,#446,.F.);
#602=ORIENTED_EDGE('',*,*,#447,.T.);
#603=ORIENTED_EDGE('',*,*,#448,.T.);
#604=ORIENTED_EDGE('',*,*,#447,.F.);
#605=ORIENTED_EDGE('',*,*,#449,.F.);
#606=ORIENTED_EDGE('',*,*,#450,.T.);
#607=ORIENTED_EDGE('',*,*,#451,.F.);
#608=ORIENTED_EDGE('',*,*,#452,.F.);
#609=ORIENTED_EDGE('',*,*,#453,.T.);
#610=ORIENTED_EDGE('',*,*,#452,.T.);
#611=ORIENTED_EDGE('',*,*,#454,.F.);
#612=ORIENTED_EDGE('',*,*,#455,.F.);
#613=ORIENTED_EDGE('',*,*,#456,.F.);
#614=ORIENTED_EDGE('',*,*,#455,.T.);
#615=ORIENTED_EDGE('',*,*,#457,.F.);
#616=ORIENTED_EDGE('',*,*,#458,.F.);
#617=ORIENTED_EDGE('',*,*,#459,.T.);
#618=ORIENTED_EDGE('',*,*,#458,.T.);
#619=ORIENTED_EDGE('',*,*,#460,.F.);
#620=ORIENTED_EDGE('',*,*,#461,.F.);
#621=ORIENTED_EDGE('',*,*,#462,.T.);
#622=ORIENTED_EDGE('',*,*,#461,.T.);
#623=ORIENTED_EDGE('',*,*,#463,.F.);
#624=ORIENTED_EDGE('',*,*,#464,.F.);
#625=ORIENTED_EDGE('',*,*,#465,.F.);
#626=ORIENTED_EDGE('',*,*,#464,.T.);
#627=ORIENTED_EDGE('',*,*,#466,.F.);
#628=ORIENTED_EDGE('',*,*,#467,.F.);
#629=ORIENTED_EDGE('',*,*,#468,.F.);
#630=ORIENTED_EDGE('',*,*,#467,.T.);
#631=ORIENTED_EDGE('',*,*,#469,.F.);
#632=ORIENTED_EDGE('',*,*,#470,.F.);
#633=ORIENTED_EDGE('',*,*,#471,.F.);
#634=ORIENTED_EDGE('',*,*,#470,.T.);
#635=ORIENTED_EDGE('',*,*,#472,.F.);
#636=ORIENTED_EDGE('',*,*,#473,.F.);
#637=ORIENTED_EDGE('',*,*,#474,.F.);
#638=ORIENTED_EDGE('',*,*,#473,.T.);
#639=ORIENTED_EDGE('',*,*,#475,.F.);
#640=ORIENTED_EDGE('',*,*,#476,.F.);
#641=ORIENTED_EDGE('',*,*,#477,.T.);
#642=ORIENTED_EDGE('',*,*,#476,.T.);
#643=ORIENTED_EDGE('',*,*,#478,.F.);
#644=ORIENTED_EDGE('',*,*,#479,.F.);
#645=ORIENTED_EDGE('',*,*,#480,.T.);
#646=ORIENTED_EDGE('',*,*,#479,.T.);
#647=ORIENTED_EDGE('',*,*,#481,.F.);
#648=ORIENTED_EDGE('',*,*,#482,.F.);
#649=ORIENTED_EDGE('',*,*,#483,.T.);
#650=ORIENTED_EDGE('',*,*,#482,.T.);
#651=ORIENTED_EDGE('',*,*,#484,.F.);
#652=ORIENTED_EDGE('',*,*,#435,.F.);
#653=ORIENTED_EDGE('',*,*,#485,.T.);
#654=ORIENTED_EDGE('',*,*,#437,.T.);
#655=ORIENTED_EDGE('',*,*,#486,.F.);
#656=ORIENTED_EDGE('',*,*,#487,.F.);
#657=ORIENTED_EDGE('',*,*,#488,.T.);
#658=ORIENTED_EDGE('',*,*,#487,.T.);
#659=ORIENTED_EDGE('',*,*,#489,.F.);
#660=ORIENTED_EDGE('',*,*,#490,.F.);
#661=ORIENTED_EDGE('',*,*,#491,.T.);
#662=ORIENTED_EDGE('',*,*,#490,.T.);
#663=ORIENTED_EDGE('',*,*,#492,.F.);
#664=ORIENTED_EDGE('',*,*,#450,.F.);
#665=ORIENTED_EDGE('',*,*,#492,.T.);
#666=ORIENTED_EDGE('',*,*,#489,.T.);
#667=ORIENTED_EDGE('',*,*,#486,.T.);
#668=ORIENTED_EDGE('',*,*,#436,.T.);
#669=ORIENTED_EDGE('',*,*,#484,.T.);
#670=ORIENTED_EDGE('',*,*,#481,.T.);
#671=ORIENTED_EDGE('',*,*,#478,.T.);
#672=ORIENTED_EDGE('',*,*,#475,.T.);
#673=ORIENTED_EDGE('',*,*,#472,.T.);
#674=ORIENTED_EDGE('',*,*,#469,.T.);
#675=ORIENTED_EDGE('',*,*,#466,.T.);
#676=ORIENTED_EDGE('',*,*,#463,.T.);
#677=ORIENTED_EDGE('',*,*,#460,.T.);
#678=ORIENTED_EDGE('',*,*,#457,.T.);
#679=ORIENTED_EDGE('',*,*,#454,.T.);
#680=ORIENTED_EDGE('',*,*,#451,.T.);
#681=ORIENTED_EDGE('',*,*,#446,.T.);
#682=ORIENTED_EDGE('',*,*,#443,.T.);
#683=ORIENTED_EDGE('',*,*,#442,.T.);
#684=ORIENTED_EDGE('',*,*,#438,.F.);
#685=ORIENTED_EDGE('',*,*,#485,.F.);
#686=ORIENTED_EDGE('',*,*,#488,.F.);
#687=ORIENTED_EDGE('',*,*,#491,.F.);
#688=ORIENTED_EDGE('',*,*,#449,.T.);
#689=ORIENTED_EDGE('',*,*,#453,.F.);
#690=ORIENTED_EDGE('',*,*,#456,.T.);
#691=ORIENTED_EDGE('',*,*,#459,.F.);
#692=ORIENTED_EDGE('',*,*,#462,.F.);
#693=ORIENTED_EDGE('',*,*,#465,.T.);
#694=ORIENTED_EDGE('',*,*,#468,.T.);
#695=ORIENTED_EDGE('',*,*,#471,.T.);
#696=ORIENTED_EDGE('',*,*,#474,.T.);
#697=ORIENTED_EDGE('',*,*,#477,.F.);
#698=ORIENTED_EDGE('',*,*,#480,.F.);
#699=ORIENTED_EDGE('',*,*,#483,.F.);
#700=ORIENTED_EDGE('',*,*,#434,.F.);
#701=ORIENTED_EDGE('',*,*,#440,.T.);
#702=ORIENTED_EDGE('',*,*,#419,.F.);
#703=ORIENTED_EDGE('',*,*,#441,.T.);
#704=ORIENTED_EDGE('',*,*,#412,.F.);
#705=ORIENTED_EDGE('',*,*,#448,.F.);
#706=ORIENTED_EDGE('',*,*,#445,.F.);
#707=SPHERICAL_SURFACE('',#768,4.999);
#708=SPHERICAL_SURFACE('',#774,4.999);
#709=SPHERICAL_SURFACE('',#781,4.999);
#710=SPHERICAL_SURFACE('',#785,4.999);
#711=ADVANCED_FACE('',(#188),#707,.T.);
#712=ADVANCED_FACE('',(#189),#168,.T.);
#713=ADVANCED_FACE('',(#190),#708,.T.);
#714=ADVANCED_FACE('',(#191),#169,.T.);
#715=ADVANCED_FACE('',(#192),#170,.T.);
#716=ADVANCED_FACE('',(#193),#709,.T.);
#717=ADVANCED_FACE('',(#194),#710,.T.);
#718=ADVANCED_FACE('',(#195),#36,.T.);
#719=ADVANCED_FACE('',(#196),#171,.T.);
#720=ADVANCED_FACE('',(#197),#172,.T.);
#721=ADVANCED_FACE('',(#198),#37,.T.);
#722=ADVANCED_FACE('',(#199),#173,.T.);
#723=ADVANCED_FACE('',(#200),#174,.T.);
#724=ADVANCED_FACE('',(#201),#175,.F.);
#725=ADVANCED_FACE('',(#202),#176,.T.);
#726=ADVANCED_FACE('',(#203),#177,.T.);
#727=ADVANCED_FACE('',(#204),#178,.T.);
#728=ADVANCED_FACE('',(#205),#19,.T.);
#729=ADVANCED_FACE('',(#206),#20,.T.);
#730=ADVANCED_FACE('',(#207),#21,.T.);
#731=ADVANCED_FACE('',(#208),#22,.T.);
#732=ADVANCED_FACE('',(#209),#23,.T.);
#733=ADVANCED_FACE('',(#210),#24,.T.);
#734=ADVANCED_FACE('',(#211),#25,.T.);
#735=ADVANCED_FACE('',(#212),#179,.F.);
#736=ADVANCED_FACE('',(#213),#180,.F.);
#737=ADVANCED_FACE('',(#214),#181,.F.);
#738=ADVANCED_FACE('',(#215),#26,.T.);
#739=ADVANCED_FACE('',(#216),#182,.F.);
#740=ADVANCED_FACE('',(#217),#27,.T.);
#741=ADVANCED_FACE('',(#218),#183,.T.);
#742=ADVANCED_FACE('',(#219),#28,.T.);
#743=ADVANCED_FACE('',(#220),#184,.F.);
#744=ADVANCED_FACE('',(#221),#29,.T.);
#745=ADVANCED_FACE('',(#222),#185,.F.);
#746=ADVANCED_FACE('',(#223),#30,.T.);
#747=ADVANCED_FACE('',(#224),#186,.T.);
#748=ADVANCED_FACE('',(#225),#31,.T.);
#749=ADVANCED_FACE('',(#226),#32,.T.);
#750=ADVANCED_FACE('',(#227),#187,.T.);
#751=ADVANCED_FACE('',(#228),#33,.T.);
#752=ADVANCED_FACE('',(#229,#15,#16),#34,.T.);
#753=ADVANCED_FACE('',(#230,#17,#18),#35,.F.);
#754=CLOSED_SHELL('',(#711,#712,#713,#714,#715,#716,#717,#718,#719,#720,
#721,#722,#723,#724,#725,#726,#727,#728,#729,#730,#731,#732,#733,#734,#735,
#736,#737,#738,#739,#740,#741,#742,#743,#744,#745,#746,#747,#748,#749,#750,
#751,#752,#753));
#755=DERIVED_UNIT_ELEMENT(#757,1.);
#756=DERIVED_UNIT_ELEMENT(#1312,-3.);
#757=(
MASS_UNIT()
NAMED_UNIT(*)
SI_UNIT(.KILO.,.GRAM.)
);
#758=DERIVED_UNIT((#755,#756));
#759=MEASURE_REPRESENTATION_ITEM('density measure',
POSITIVE_RATIO_MEASURE(7850.),#758);
#760=PROPERTY_DEFINITION_REPRESENTATION(#765,#762);
#761=PROPERTY_DEFINITION_REPRESENTATION(#766,#763);
#762=REPRESENTATION('material name',(#764),#1309);
#763=REPRESENTATION('density',(#759),#1309);
#764=DESCRIPTIVE_REPRESENTATION_ITEM('Steel','Steel');
#765=PROPERTY_DEFINITION('material property','material name',#1319);
#766=PROPERTY_DEFINITION('material property','density of part',#1319);
#767=AXIS2_PLACEMENT_3D('',#1090,#853,#854);
#768=AXIS2_PLACEMENT_3D('',#1091,#855,#856);
#769=AXIS2_PLACEMENT_3D('',#1094,#857,#858);
#770=AXIS2_PLACEMENT_3D('',#1096,#859,#860);
#771=AXIS2_PLACEMENT_3D('',#1097,#861,#862);
#772=AXIS2_PLACEMENT_3D('',#1098,#863,#864);
#773=AXIS2_PLACEMENT_3D('',#1101,#865,#866);
#774=AXIS2_PLACEMENT_3D('',#1104,#869,#870);
#775=AXIS2_PLACEMENT_3D('',#1107,#871,#872);
#776=AXIS2_PLACEMENT_3D('',#1109,#873,#874);
#777=AXIS2_PLACEMENT_3D('',#1110,#875,#876);
#778=AXIS2_PLACEMENT_3D('',#1111,#877,#878);
#779=AXIS2_PLACEMENT_3D('',#1114,#879,#880);
#780=AXIS2_PLACEMENT_3D('',#1117,#883,#884);
#781=AXIS2_PLACEMENT_3D('',#1120,#887,#888);
#782=AXIS2_PLACEMENT_3D('',#1123,#889,#890);
#783=AXIS2_PLACEMENT_3D('',#1125,#891,#892);
#784=AXIS2_PLACEMENT_3D('',#1126,#893,#894);
#785=AXIS2_PLACEMENT_3D('',#1127,#895,#896);
#786=AXIS2_PLACEMENT_3D('',#1130,#897,#898);
#787=AXIS2_PLACEMENT_3D('',#1132,#899,#900);
#788=AXIS2_PLACEMENT_3D('',#1133,#901,#902);
#789=AXIS2_PLACEMENT_3D('',#1134,#903,#904);
#790=AXIS2_PLACEMENT_3D('',#1137,#905,#906);
#791=AXIS2_PLACEMENT_3D('',#1139,#907,#908);
#792=AXIS2_PLACEMENT_3D('',#1141,#909,#910);
#793=AXIS2_PLACEMENT_3D('',#1142,#911,#912);
#794=AXIS2_PLACEMENT_3D('',#1143,#913,#914);
#795=AXIS2_PLACEMENT_3D('',#1146,#917,#918);
#796=AXIS2_PLACEMENT_3D('',#1149,#919,#920);
#797=AXIS2_PLACEMENT_3D('',#1152,#923,#924);
#798=AXIS2_PLACEMENT_3D('',#1155,#925,#926);
#799=AXIS2_PLACEMENT_3D('',#1157,#927,#928);
#800=AXIS2_PLACEMENT_3D('',#1159,#929,#930);
#801=AXIS2_PLACEMENT_3D('',#1160,#931,#932);
#802=AXIS2_PLACEMENT_3D('',#1161,#933,#934);
#803=AXIS2_PLACEMENT_3D('',#1164,#935,#936);
#804=AXIS2_PLACEMENT_3D('',#1167,#939,#940);
#805=AXIS2_PLACEMENT_3D('',#1170,#943,#944);
#806=AXIS2_PLACEMENT_3D('',#1173,#947,#948);
#807=AXIS2_PLACEMENT_3D('',#1176,#951,#952);
#808=AXIS2_PLACEMENT_3D('',#1179,#955,#956);
#809=AXIS2_PLACEMENT_3D('',#1182,#959,#960);
#810=AXIS2_PLACEMENT_3D('',#1184,#962,#963);
#811=AXIS2_PLACEMENT_3D('',#1198,#971,#972);
#812=AXIS2_PLACEMENT_3D('',#1200,#974,#975);
#813=AXIS2_PLACEMENT_3D('',#1201,#976,#977);
#814=AXIS2_PLACEMENT_3D('',#1202,#978,#979);
#815=AXIS2_PLACEMENT_3D('',#1204,#981,#982);
#816=AXIS2_PLACEMENT_3D('',#1206,#984,#985);
#817=AXIS2_PLACEMENT_3D('',#1208,#986,#987);
#818=AXIS2_PLACEMENT_3D('',#1211,#989,#990);
#819=AXIS2_PLACEMENT_3D('',#1212,#991,#992);
#820=AXIS2_PLACEMENT_3D('',#1214,#993,#994);
#821=AXIS2_PLACEMENT_3D('',#1217,#996,#997);
#822=AXIS2_PLACEMENT_3D('',#1218,#998,#999);
#823=AXIS2_PLACEMENT_3D('',#1221,#1000,#1001);
#824=AXIS2_PLACEMENT_3D('',#1225,#1003,#1004);
#825=AXIS2_PLACEMENT_3D('',#1227,#1006,#1007);
#826=AXIS2_PLACEMENT_3D('',#1233,#1011,#1012);
#827=AXIS2_PLACEMENT_3D('',#1235,#1013,#1014);
#828=AXIS2_PLACEMENT_3D('',#1237,#1015,#1016);
#829=AXIS2_PLACEMENT_3D('',#1239,#1018,#1019);
#830=AXIS2_PLACEMENT_3D('',#1245,#1023,#1024);
#831=AXIS2_PLACEMENT_3D('',#1247,#1025,#1026);
#832=AXIS2_PLACEMENT_3D('',#1249,#1027,#1028);
#833=AXIS2_PLACEMENT_3D('',#1251,#1030,#1031);
#834=AXIS2_PLACEMENT_3D('',#1257,#1035,#1036);
#835=AXIS2_PLACEMENT_3D('',#1259,#1037,#1038);
#836=AXIS2_PLACEMENT_3D('',#1261,#1039,#1040);
#837=AXIS2_PLACEMENT_3D('',#1263,#1042,#1043);
#838=AXIS2_PLACEMENT_3D('',#1269,#1047,#1048);
#839=AXIS2_PLACEMENT_3D('',#1271,#1049,#1050);
#840=AXIS2_PLACEMENT_3D('',#1273,#1051,#1052);
#841=AXIS2_PLACEMENT_3D('',#1275,#1054,#1055);
#842=AXIS2_PLACEMENT_3D('',#1281,#1059,#1060);
#843=AXIS2_PLACEMENT_3D('',#1283,#1061,#1062);
#844=AXIS2_PLACEMENT_3D('',#1285,#1063,#1064);
#845=AXIS2_PLACEMENT_3D('',#1287,#1066,#1067);
#846=AXIS2_PLACEMENT_3D('',#1290,#1070,#1071);
#847=AXIS2_PLACEMENT_3D('',#1296,#1075,#1076);
#848=AXIS2_PLACEMENT_3D('',#1298,#1077,#1078);
#849=AXIS2_PLACEMENT_3D('',#1300,#1079,#1080);
#850=AXIS2_PLACEMENT_3D('',#1302,#1082,#1083);
#851=AXIS2_PLACEMENT_3D('',#1305,#1086,#1087);
#852=AXIS2_PLACEMENT_3D('',#1306,#1088,#1089);
#853=DIRECTION('axis',(0.,0.,1.));
#854=DIRECTION('refdir',(1.,0.,0.));
#855=DIRECTION('center_axis',(-0.408248290463863,-0.408248290463864,-0.816496580927726));
#856=DIRECTION('ref_axis',(-0.577350269189626,-0.577350269189627,0.577350269189625));
#857=DIRECTION('center_axis',(0.,-1.,0.));
#858=DIRECTION('ref_axis',(-1.,0.,0.));
#859=DIRECTION('center_axis',(0.,0.,1.));
#860=DIRECTION('ref_axis',(0.,-1.,0.));
#861=DIRECTION('center_axis',(-1.,-4.44178045459154E-16,0.));
#862=DIRECTION('ref_axis',(0.,0.,1.));
#863=DIRECTION('center_axis',(0.,0.,1.));
#864=DIRECTION('ref_axis',(-0.707106781186547,-0.707106781186547,0.));
#865=DIRECTION('center_axis',(0.,0.,1.));
#866=DIRECTION('ref_axis',(-0.707106781186547,-0.707106781186547,0.));
#867=DIRECTION('',(0.,0.,1.));
#868=DIRECTION('',(0.,0.,-1.));
#869=DIRECTION('center_axis',(-0.408248290463863,-0.816496580927726,0.408248290463863));
#870=DIRECTION('ref_axis',(-0.577350269189625,0.577350269189627,0.577350269189625));
#871=DIRECTION('center_axis',(-1.,0.,0.));
#872=DIRECTION('ref_axis',(0.,1.,0.));
#873=DIRECTION('center_axis',(0.,0.,1.));
#874=DIRECTION('ref_axis',(-1.,0.,0.));
#875=DIRECTION('center_axis',(0.,1.,0.));
#876=DIRECTION('ref_axis',(0.,0.,1.));
#877=DIRECTION('center_axis',(0.,0.,1.));
#878=DIRECTION('ref_axis',(-0.707106781186547,0.707106781186548,0.));
#879=DIRECTION('center_axis',(0.,0.,1.));
#880=DIRECTION('ref_axis',(-0.707106781186547,0.707106781186548,0.));
#881=DIRECTION('',(0.,0.,1.));
#882=DIRECTION('',(0.,0.,-1.));
#883=DIRECTION('center_axis',(0.,-1.,0.));
#884=DIRECTION('ref_axis',(-0.707106781186547,0.,0.707106781186548));
#885=DIRECTION('',(0.,1.,0.));
#886=DIRECTION('',(0.,-1.,0.));
#887=DIRECTION('center_axis',(-0.408248290463863,-0.816496580927726,-0.408248290463863));
#888=DIRECTION('ref_axis',(0.577350269189625,-0.577350269189627,0.577350269189625));
#889=DIRECTION('center_axis',(1.,0.,0.));
#890=DIRECTION('ref_axis',(0.,-1.,0.));
#891=DIRECTION('center_axis',(0.,0.,1.));
#892=DIRECTION('ref_axis',(1.,0.,0.));
#893=DIRECTION('center_axis',(0.,-1.,0.));
#894=DIRECTION('ref_axis',(0.,0.,1.));
#895=DIRECTION('center_axis',(0.408248290463863,0.408248290463864,-0.816496580927726));
#896=DIRECTION('ref_axis',(0.577350269189626,0.577350269189627,0.577350269189625));
#897=DIRECTION('center_axis',(0.,1.,0.));
#898=DIRECTION('ref_axis',(1.,0.,0.));
#899=DIRECTION('center_axis',(0.,0.,1.));
#900=DIRECTION('ref_axis',(0.,1.,0.));
#901=DIRECTION('center_axis',(1.,4.44178045459154E-16,0.));
#902=DIRECTION('ref_axis',(0.,0.,1.));
#903=DIRECTION('center_axis',(0.,1.,0.));
#904=DIRECTION('ref_axis',(0.,0.,1.));
#905=DIRECTION('center_axis',(0.,1.,0.));
#906=DIRECTION('ref_axis',(-1.,0.,0.));
#907=DIRECTION('center_axis',(0.,0.,1.));
#908=DIRECTION('ref_axis',(0.,-1.,0.));
#909=DIRECTION('center_axis',(0.,-1.,0.));
#910=DIRECTION('ref_axis',(-0.707106781186548,0.,-0.707106781186547));
#911=DIRECTION('center_axis',(1.,0.,0.));
#912=DIRECTION('ref_axis',(0.,0.,1.));
#913=DIRECTION('center_axis',(0.,0.,1.));
#914=DIRECTION('ref_axis',(0.707106781186547,-0.707106781186548,0.));
#915=DIRECTION('',(0.,0.,-1.));
#916=DIRECTION('',(0.,0.,1.));
#917=DIRECTION('center_axis',(-1.,0.,0.));
#918=DIRECTION('ref_axis',(0.,-0.707106781186548,0.707106781186547));
#919=DIRECTION('center_axis',(1.,0.,0.));
#920=DIRECTION('ref_axis',(0.,-0.707106781186548,0.707106781186547));
#921=DIRECTION('',(-1.,0.,0.));
#922=DIRECTION('',(1.,0.,0.));
#923=DIRECTION('center_axis',(0.,-1.,0.));
#924=DIRECTION('ref_axis',(0.,0.,-1.));
#925=DIRECTION('center_axis',(0.,-1.,0.));
#926=DIRECTION('ref_axis',(0.,0.,-1.));
#927=DIRECTION('center_axis',(1.,0.,0.));
#928=DIRECTION('ref_axis',(0.,1.,0.));
#929=DIRECTION('center_axis',(0.,1.,0.));
#930=DIRECTION('ref_axis',(-0.707106781186548,0.,-0.707106781186547));
#931=DIRECTION('center_axis',(0.,0.,1.));
#932=DIRECTION('ref_axis',(1.,0.,0.));
#933=DIRECTION('center_axis',(-1.,0.,0.));
#934=DIRECTION('ref_axis',(0.,0.707106781186548,0.707106781186547));
#935=DIRECTION('center_axis',(1.,0.,0.));
#936=DIRECTION('ref_axis',(0.,0.707106781186548,0.707106781186547));
#937=DIRECTION('',(-1.,0.,0.));
#938=DIRECTION('',(1.,0.,0.));
#939=DIRECTION('center_axis',(0.,0.,1.));
#940=DIRECTION('ref_axis',(0.707106781186547,0.707106781186547,0.));
#941=DIRECTION('',(0.,0.,-1.));
#942=DIRECTION('',(0.,0.,1.));
#943=DIRECTION('center_axis',(0.,-1.,0.));
#944=DIRECTION('ref_axis',(-0.707106781186548,0.,-0.707106781186547));
#945=DIRECTION('',(0.,1.,0.));
#946=DIRECTION('',(0.,-1.,0.));
#947=DIRECTION('center_axis',(-1.,0.,0.));
#948=DIRECTION('ref_axis',(0.,0.707106781186547,0.707106781186547));
#949=DIRECTION('',(1.,0.,0.));
#950=DIRECTION('',(-1.,0.,0.));
#951=DIRECTION('center_axis',(0.,1.,0.));
#952=DIRECTION('ref_axis',(0.707106781186547,0.,0.707106781186548));
#953=DIRECTION('',(0.,-1.,0.));
#954=DIRECTION('',(0.,1.,0.));
#955=DIRECTION('center_axis',(1.,0.,0.));
#956=DIRECTION('ref_axis',(0.,-0.707106781186547,0.707106781186547));
#957=DIRECTION('',(-1.,0.,0.));
#958=DIRECTION('',(1.,0.,0.));
#959=DIRECTION('center_axis',(-1.,0.,0.));
#960=DIRECTION('ref_axis',(0.,0.,1.));
#961=DIRECTION('',(0.,-1.,0.));
#962=DIRECTION('center_axis',(0.,0.,-1.));
#963=DIRECTION('ref_axis',(0.,1.,0.));
#964=DIRECTION('',(-1.,0.,0.));
#965=DIRECTION('',(0.,1.,0.));
#966=DIRECTION('',(1.,0.,0.));
#967=DIRECTION('',(0.,1.,0.));
#968=DIRECTION('',(1.,0.,0.));
#969=DIRECTION('',(0.,1.,0.));
#970=DIRECTION('',(-1.,0.,0.));
#971=DIRECTION('center_axis',(0.,1.,0.));
#972=DIRECTION('ref_axis',(0.,0.,-1.));
#973=DIRECTION('',(0.,0.,1.));
#974=DIRECTION('center_axis',(0.,0.,1.));
#975=DIRECTION('ref_axis',(1.,0.,0.));
#976=DIRECTION('center_axis',(1.,0.,0.));
#977=DIRECTION('ref_axis',(0.,1.,0.));
#978=DIRECTION('center_axis',(0.,0.,1.));
#979=DIRECTION('ref_axis',(0.,1.,0.));
#980=DIRECTION('',(0.,-1.,0.));
#981=DIRECTION('center_axis',(0.,-1.,0.));
#982=DIRECTION('ref_axis',(0.,0.,1.));
#983=DIRECTION('',(0.,0.,-1.));
#984=DIRECTION('center_axis',(1.,0.,0.));
#985=DIRECTION('ref_axis',(0.,1.,0.));
#986=DIRECTION('center_axis',(-1.,0.,0.));
#987=DIRECTION('ref_axis',(0.,1.,0.));
#988=DIRECTION('',(-1.,0.,0.));
#989=DIRECTION('center_axis',(-1.,0.,0.));
#990=DIRECTION('ref_axis',(0.,1.,0.));
#991=DIRECTION('center_axis',(1.,0.,0.));
#992=DIRECTION('ref_axis',(0.,1.,0.));
#993=DIRECTION('center_axis',(-1.,0.,0.));
#994=DIRECTION('ref_axis',(0.,1.,0.));
#995=DIRECTION('',(-1.,0.,0.));
#996=DIRECTION('center_axis',(-1.,0.,0.));
#997=DIRECTION('ref_axis',(0.,1.,0.));
#998=DIRECTION('center_axis',(1.,0.,0.));
#999=DIRECTION('ref_axis',(0.,-2.22044604925031E-16,-1.));
#1000=DIRECTION('center_axis',(1.,0.,0.));
#1001=DIRECTION('ref_axis',(0.,-2.22044604925031E-16,-1.));
#1002=DIRECTION('',(1.,0.,0.));
#1003=DIRECTION('center_axis',(-1.,0.,0.));
#1004=DIRECTION('ref_axis',(0.,-2.22044604925031E-16,-1.));
#1005=DIRECTION('',(1.,0.,0.));
#1006=DIRECTION('center_axis',(0.,-0.707106781186548,0.707106781186547));
#1007=DIRECTION('ref_axis',(0.,-0.707106781186547,-0.707106781186548));
#1008=DIRECTION('',(0.,-0.707106781186547,-0.707106781186548));
#1009=DIRECTION('',(0.,-0.707106781186547,-0.707106781186548));
#1010=DIRECTION('',(1.,0.,0.));
#1011=DIRECTION('center_axis',(1.,0.,0.));
#1012=DIRECTION('ref_axis',(0.,0.707106781186548,-0.707106781186547));
#1013=DIRECTION('center_axis',(1.,0.,0.));
#1014=DIRECTION('ref_axis',(0.,0.707106781186548,-0.707106781186547));
#1015=DIRECTION('center_axis',(-1.,0.,0.));
#1016=DIRECTION('ref_axis',(0.,0.707106781186548,-0.707106781186547));
#1017=DIRECTION('',(1.,0.,0.));
#1018=DIRECTION('center_axis',(0.,-1.,0.));
#1019=DIRECTION('ref_axis',(0.,0.,-1.));
#1020=DIRECTION('',(0.,0.,-1.));
#1021=DIRECTION('',(0.,0.,-1.));
#1022=DIRECTION('',(1.,0.,0.));
#1023=DIRECTION('center_axis',(1.,0.,0.));
#1024=DIRECTION('ref_axis',(0.,7.45057799362093E-9,1.));
#1025=DIRECTION('center_axis',(1.,0.,0.));
#1026=DIRECTION('ref_axis',(0.,1.,-1.49011611938477E-8));
#1027=DIRECTION('center_axis',(1.,0.,0.));
#1028=DIRECTION('ref_axis',(0.,1.,-1.49011611938477E-8));
#1029=DIRECTION('',(1.,0.,0.));
#1030=DIRECTION('center_axis',(0.,1.,-2.48352677704326E-8));
#1031=DIRECTION('ref_axis',(0.,2.48352677704326E-8,1.));
#1032=DIRECTION('',(0.,-2.48352677704326E-8,-1.));
#1033=DIRECTION('',(0.,2.48352677704326E-8,1.));
#1034=DIRECTION('',(1.,0.,0.));
#1035=DIRECTION('center_axis',(1.,0.,0.));
#1036=DIRECTION('ref_axis',(0.,-1.,2.48352693965616E-8));
#1037=DIRECTION('center_axis',(1.,0.,0.));
#1038=DIRECTION('ref_axis',(0.,-1.,2.48352693965616E-8));
#1039=DIRECTION('center_axis',(-1.,0.,0.));
#1040=DIRECTION('ref_axis',(0.,-1.,2.48352693965616E-8));
#1041=DIRECTION('',(1.,0.,0.));
#1042=DIRECTION('center_axis',(0.,0.707106781186548,0.707106781186548));
#1043=DIRECTION('ref_axis',(0.,-0.707106781186548,0.707106781186548));
#1044=DIRECTION('',(0.,0.707106781186547,-0.707106781186547));
#1045=DIRECTION('',(0.,-0.707106781186547,0.707106781186547));
#1046=DIRECTION('',(1.,0.,0.));
#1047=DIRECTION('center_axis',(1.,0.,0.));
#1048=DIRECTION('ref_axis',(0.,-0.707106781186548,-0.707106781186547));
#1049=DIRECTION('center_axis',(1.,0.,0.));
#1050=DIRECTION('ref_axis',(0.,-0.707106781186548,-0.707106781186547));
#1051=DIRECTION('center_axis',(-1.,0.,0.));
#1052=DIRECTION('ref_axis',(0.,-0.707106781186548,-0.707106781186547));
#1053=DIRECTION('',(1.,0.,0.));
#1054=DIRECTION('center_axis',(0.,-2.3416910744932E-16,1.));
#1055=DIRECTION('ref_axis',(0.,-1.,-2.3416910744932E-16));
#1056=DIRECTION('',(0.,-1.,-2.3416910744932E-16));
#1057=DIRECTION('',(0.,-1.,-2.3416910744932E-16));
#1058=DIRECTION('',(1.,0.,0.));
#1059=DIRECTION('center_axis',(1.,0.,0.));
#1060=DIRECTION('ref_axis',(0.,1.,-7.7715611723761E-16));
#1061=DIRECTION('center_axis',(1.,0.,0.));
#1062=DIRECTION('ref_axis',(0.,1.,-7.7715611723761E-16));
#1063=DIRECTION('center_axis',(1.,0.,0.));
#1064=DIRECTION('ref_axis',(0.,1.,-7.7715611723761E-16));
#1065=DIRECTION('',(1.,0.,0.));
#1066=DIRECTION('center_axis',(0.,1.,0.));
#1067=DIRECTION('ref_axis',(0.,0.,1.));
#1068=DIRECTION('',(0.,0.,1.));
#1069=DIRECTION('',(0.,0.,1.));
#1070=DIRECTION('center_axis',(0.,-1.,0.));
#1071=DIRECTION('ref_axis',(0.,0.,-1.));
#1072=DIRECTION('',(0.,0.,-1.));
#1073=DIRECTION('',(0.,0.,-1.));
#1074=DIRECTION('',(1.,0.,0.));
#1075=DIRECTION('center_axis',(1.,0.,0.));
#1076=DIRECTION('ref_axis',(0.,6.66133814775095E-16,1.));
#1077=DIRECTION('center_axis',(1.,0.,0.));
#1078=DIRECTION('ref_axis',(0.,6.66133814775095E-16,1.));
#1079=DIRECTION('center_axis',(1.,0.,0.));
#1080=DIRECTION('ref_axis',(0.,6.66133814775095E-16,1.));
#1081=DIRECTION('',(1.,0.,0.));
#1082=DIRECTION('center_axis',(0.,3.79053850793408E-16,1.));
#1083=DIRECTION('ref_axis',(0.,-1.,3.79053850793408E-16));
#1084=DIRECTION('',(0.,-1.,3.79053850793408E-16));
#1085=DIRECTION('',(0.,-1.,3.79053850793408E-16));
#1086=DIRECTION('center_axis',(1.,0.,0.));
#1087=DIRECTION('ref_axis',(0.,1.,0.));
#1088=DIRECTION('center_axis',(1.,0.,0.));
#1089=DIRECTION('ref_axis',(0.,1.,0.));
#1090=CARTESIAN_POINT('',(0.,0.,0.));
#1091=CARTESIAN_POINT('Origin',(15.999,74.9990011920929,35.0009997764826));
#1092=CARTESIAN_POINT('',(11.,74.9990011920929,35.0009997764826));
#1093=CARTESIAN_POINT('',(15.999,74.9990011920929,39.9999997764826));
#1094=CARTESIAN_POINT('Origin',(15.999,74.9990011920929,35.0009997764826));
#1095=CARTESIAN_POINT('',(15.999,70.0000011920929,35.0009997764826));
#1096=CARTESIAN_POINT('Origin',(15.999,74.9990011920929,35.0009997764826));
#1097=CARTESIAN_POINT('Origin',(15.999,74.9990011920929,35.0009997764826));
#1098=CARTESIAN_POINT('Origin',(15.999,74.9990011920929,-12.5000002235174));
#1099=CARTESIAN_POINT('',(11.,74.9990011920929,-15.0000002235174));
#1100=CARTESIAN_POINT('',(15.999,70.0000011920929,-15.0000002235174));
#1101=CARTESIAN_POINT('Origin',(15.999,74.9990011920929,-15.));
#1102=CARTESIAN_POINT('',(15.999,70.0000011920929,-12.5000002235174));
#1103=CARTESIAN_POINT('',(11.,74.9990011920929,-12.5000002235174));
#1104=CARTESIAN_POINT('Origin',(15.999,75.0010011920929,35.0009997764826));
#1105=CARTESIAN_POINT('',(15.999,80.0000011920929,35.0009997764826));
#1106=CARTESIAN_POINT('',(15.999,75.0010011920929,39.9999997764826));
#1107=CARTESIAN_POINT('Origin',(15.999,75.0010011920929,35.0009997764826));
#1108=CARTESIAN_POINT('',(11.,75.0010011920929,35.0009997764826));
#1109=CARTESIAN_POINT('Origin',(15.999,75.0010011920929,35.0009997764826));
#1110=CARTESIAN_POINT('Origin',(15.999,75.0010011920929,35.0009997764826));
#1111=CARTESIAN_POINT('Origin',(15.999,75.0010011920929,-7.50000022351742));
#1112=CARTESIAN_POINT('',(15.999,80.0000011920929,-15.0000002235174));
#1113=CARTESIAN_POINT('',(11.,75.0010011920929,-15.0000002235174));
#1114=CARTESIAN_POINT('Origin',(15.999,75.0010011920929,-15.));
#1115=CARTESIAN_POINT('',(11.,75.0010011920929,-7.50000022351742));
#1116=CARTESIAN_POINT('',(15.999,80.0000011920929,-7.50000022351742));
#1117=CARTESIAN_POINT('Origin',(15.999,75.0000011920929,35.0009997764826));
#1118=CARTESIAN_POINT('',(15.999,75.0000011920929,39.9999997764826));
#1119=CARTESIAN_POINT('',(11.,75.0000011920929,35.0009997764826));
#1120=CARTESIAN_POINT('Origin',(16.001,74.9990011920929,35.0009997764826));
#1121=CARTESIAN_POINT('',(16.001,70.0000011920929,35.0009997764826));
#1122=CARTESIAN_POINT('',(16.001,74.9990011920929,39.9999997764826));
#1123=CARTESIAN_POINT('Origin',(16.001,74.9990011920929,35.0009997764826));
#1124=CARTESIAN_POINT('',(21.,74.9990011920929,35.0009997764826));
#1125=CARTESIAN_POINT('Origin',(16.001,74.9990011920929,35.0009997764826));
#1126=CARTESIAN_POINT('Origin',(16.001,74.9990011920929,35.0009997764826));
#1127=CARTESIAN_POINT('Origin',(16.001,75.0010011920929,35.0009997764826));
#1128=CARTESIAN_POINT('',(21.,75.0010011920929,35.0009997764826));
#1129=CARTESIAN_POINT('',(16.001,75.0010011920929,39.9999997764826));
#1130=CARTESIAN_POINT('Origin',(16.001,75.0010011920929,35.0009997764826));
#1131=CARTESIAN_POINT('',(16.001,80.0000011920929,35.0009997764826));
#1132=CARTESIAN_POINT('Origin',(16.001,75.0010011920929,35.0009997764826));
#1133=CARTESIAN_POINT('Origin',(16.001,75.0010011920929,35.0009997764826));
#1134=CARTESIAN_POINT('Origin',(25.999,74.9990011920929,-0.0010002235174178));
#1135=CARTESIAN_POINT('',(21.,74.9990011920929,-0.0010002235174178));
#1136=CARTESIAN_POINT('',(25.999,74.9990011920929,-5.00000022351742));
#1137=CARTESIAN_POINT('Origin',(25.999,74.9990011920929,-0.0010002235174178));
#1138=CARTESIAN_POINT('',(16.001,70.0000011920929,-0.0010002235174178));
#1139=CARTESIAN_POINT('Origin',(16.001,74.9990011920929,-0.0010002235174178));
#1140=CARTESIAN_POINT('',(25.999,70.0000011920929,-9.99900022351742));
#1141=CARTESIAN_POINT('Origin',(25.999,70.0000011920929,-0.0010002235174178));
#1142=CARTESIAN_POINT('Origin',(25.999,74.9990011920929,-9.99900022351742));
#1143=CARTESIAN_POINT('Origin',(16.001,74.9990011920929,-10.0000002235174));
#1144=CARTESIAN_POINT('',(16.001,70.0000011920929,-10.0000002235174));
#1145=CARTESIAN_POINT('',(21.,74.9990011920929,-10.0000002235174));
#1146=CARTESIAN_POINT('Origin',(46.,74.9990011920929,-9.99900022351742));
#1147=CARTESIAN_POINT('',(46.,70.0000011920929,-9.99900022351742));
#1148=CARTESIAN_POINT('',(46.,74.9990011920929,-5.00000022351742));
#1149=CARTESIAN_POINT('Origin',(46.,74.9990011920929,-9.99900022351742));
#1150=CARTESIAN_POINT('',(46.,74.9990011920929,-5.00000022351742));
#1151=CARTESIAN_POINT('',(46.,70.0000011920929,-9.99900022351742));
#1152=CARTESIAN_POINT('Origin',(25.999,75.0010011920929,-0.0010002235174178));
#1153=CARTESIAN_POINT('',(25.999,75.0010011920929,-5.00000022351742));
#1154=CARTESIAN_POINT('',(21.,75.0010011920929,-0.0010002235174178));
#1155=CARTESIAN_POINT('Origin',(25.999,75.0010011920929,-0.0010002235174178));
#1156=CARTESIAN_POINT('',(25.999,80.0000011920929,-9.99900022351742));
#1157=CARTESIAN_POINT('Origin',(25.999,75.0010011920929,-9.99900022351742));
#1158=CARTESIAN_POINT('',(16.001,80.0000011920929,-0.0010002235174178));
#1159=CARTESIAN_POINT('Origin',(25.999,80.0000011920929,-0.0010002235174178));
#1160=CARTESIAN_POINT('Origin',(16.001,75.0010011920929,-0.0010002235174178));
#1161=CARTESIAN_POINT('Origin',(46.,75.0010011920929,-9.99900022351742));
#1162=CARTESIAN_POINT('',(46.,75.0010011920929,-5.00000022351742));
#1163=CARTESIAN_POINT('',(46.,80.0000011920929,-9.99900022351742));
#1164=CARTESIAN_POINT('Origin',(46.,75.0010011920929,-9.99900022351742));
#1165=CARTESIAN_POINT('',(46.,80.0000011920929,-9.99900022351742));
#1166=CARTESIAN_POINT('',(46.,75.0010011920929,-5.00000022351742));
#1167=CARTESIAN_POINT('Origin',(16.001,75.0010011920929,-5.00000022351742));
#1168=CARTESIAN_POINT('',(21.,75.0010011920929,-5.00000022351742));
#1169=CARTESIAN_POINT('',(16.001,80.0000011920929,-5.00000022351742));
#1170=CARTESIAN_POINT('Origin',(25.999,70.0000011920929,-0.0010002235174178));
#1171=CARTESIAN_POINT('',(25.999,70.0000011920929,-5.00000022351742));
#1172=CARTESIAN_POINT('',(21.,70.0000011920929,-0.0010002235174178));
#1173=CARTESIAN_POINT('Origin',(31.,75.0010011920929,35.0009997764826));
#1174=CARTESIAN_POINT('',(31.,75.0010011920929,39.9999997764826));
#1175=CARTESIAN_POINT('',(31.,80.0000011920929,35.0009997764826));
#1176=CARTESIAN_POINT('Origin',(16.001,72.5000011920929,35.0009997764826));
#1177=CARTESIAN_POINT('',(16.001,72.5000011920929,39.9999997764826));
#1178=CARTESIAN_POINT('',(21.,72.5000011920929,35.0009997764826));
#1179=CARTESIAN_POINT('Origin',(31.,74.9990011920929,35.0009997764826));
#1180=CARTESIAN_POINT('',(31.,74.9990011920929,39.9999997764826));
#1181=CARTESIAN_POINT('',(31.,70.0000011920929,35.0009997764826));
#1182=CARTESIAN_POINT('Origin',(11.,75.0000011920929,-10.0000002235174));
#1183=CARTESIAN_POINT('',(11.,80.0000011920929,-15.0000002235174));
#1184=CARTESIAN_POINT('Origin',(46.,-10.,-15.));
#1185=CARTESIAN_POINT('',(46.,80.0000011920929,-15.0000002235174));
#1186=CARTESIAN_POINT('',(46.,80.0000011920929,-15.0000002235174));
#1187=CARTESIAN_POINT('',(46.,100.,-15.));
#1188=CARTESIAN_POINT('',(46.,-10.,-15.));
#1189=CARTESIAN_POINT('',(56.,100.,-15.));
#1190=CARTESIAN_POINT('',(46.,100.,-15.));
#1191=CARTESIAN_POINT('',(56.,-10.,-15.));
#1192=CARTESIAN_POINT('',(56.,-10.,-15.));
#1193=CARTESIAN_POINT('',(46.,-10.,-15.));
#1194=CARTESIAN_POINT('',(46.,-10.,-15.));
#1195=CARTESIAN_POINT('',(46.,70.0000011920929,-15.0000002235174));
#1196=CARTESIAN_POINT('',(46.,-10.,-15.));
#1197=CARTESIAN_POINT('',(46.,70.0000011920929,-15.0000002235174));
#1198=CARTESIAN_POINT('Origin',(46.,80.0000011920929,-5.00000022351742));
#1199=CARTESIAN_POINT('',(46.,80.0000011920929,5.0000000372529));
#1200=CARTESIAN_POINT('Origin',(16.,75.0000011920929,39.9999997764826));
#1201=CARTESIAN_POINT('Origin',(21.,70.0000011920929,-5.00000022351742));
#1202=CARTESIAN_POINT('Origin',(46.,70.0000011920929,-5.00000022351742));
#1203=CARTESIAN_POINT('',(46.,57.5000005960464,-5.00000022351742));
#1204=CARTESIAN_POINT('Origin',(46.,70.0000011920929,-15.0000002235174));
#1205=CARTESIAN_POINT('',(46.,70.0000011920929,3.72529007641731E-8));
#1206=CARTESIAN_POINT('Origin',(46.,25.000000372529,40.0000005960464));
#1207=CARTESIAN_POINT('',(56.,22.500000372529,40.0000005960464));
#1208=CARTESIAN_POINT('Origin',(56.,25.000000372529,40.0000005960464));
#1209=CARTESIAN_POINT('',(46.,22.500000372529,40.0000005960464));
#1210=CARTESIAN_POINT('',(46.,22.500000372529,40.0000005960464));
#1211=CARTESIAN_POINT('Origin',(46.,25.000000372529,40.0000005960464));
#1212=CARTESIAN_POINT('Origin',(46.,0.,0.));
#1213=CARTESIAN_POINT('',(56.,-2.5,-3.06161699786838E-16));
#1214=CARTESIAN_POINT('Origin',(56.,0.,0.));
#1215=CARTESIAN_POINT('',(46.,-2.5,-3.06161699786838E-16));
#1216=CARTESIAN_POINT('',(46.,-2.5,-3.06161699786838E-16));
#1217=CARTESIAN_POINT('Origin',(46.,0.,0.));
#1218=CARTESIAN_POINT('Origin',(46.,-2.07106781186547,10.));
#1219=CARTESIAN_POINT('',(46.,-2.07106781186547,5.));
#1220=CARTESIAN_POINT('',(46.,1.46446609406727,6.46446609406726));
#1221=CARTESIAN_POINT('Origin',(46.,-2.07106781186547,10.));
#1222=CARTESIAN_POINT('',(56.,-2.07106781186547,5.));
#1223=CARTESIAN_POINT('',(46.,-2.07106781186547,5.));
#1224=CARTESIAN_POINT('',(56.,1.46446609406727,6.46446609406726));
#1225=CARTESIAN_POINT('Origin',(56.,-2.07106781186547,10.));
#1226=CARTESIAN_POINT('',(46.,1.46446609406727,6.46446609406726));
#1227=CARTESIAN_POINT('Origin',(46.,17.0710678118655,22.0710678118655));
#1228=CARTESIAN_POINT('',(46.,17.0710678118655,22.0710678118655));
#1229=CARTESIAN_POINT('',(46.,17.0710678118655,22.0710678118655));
#1230=CARTESIAN_POINT('',(56.,17.0710678118655,22.0710678118655));
#1231=CARTESIAN_POINT('',(56.,17.0710678118655,22.0710678118655));
#1232=CARTESIAN_POINT('',(46.,17.0710678118655,22.0710678118655));
#1233=CARTESIAN_POINT('Origin',(46.,9.99999999999997,29.142135623731));
#1234=CARTESIAN_POINT('',(46.,20.,29.142135623731));
#1235=CARTESIAN_POINT('Origin',(46.,9.99999999999997,29.142135623731));
#1236=CARTESIAN_POINT('',(56.,20.,29.142135623731));
#1237=CARTESIAN_POINT('Origin',(56.,9.99999999999997,29.142135623731));
#1238=CARTESIAN_POINT('',(46.,20.,29.142135623731));
#1239=CARTESIAN_POINT('Origin',(46.,20.,40.0000005960464));
#1240=CARTESIAN_POINT('',(46.,20.,40.0000005960464));
#1241=CARTESIAN_POINT('',(46.,20.,40.0000005960464));
#1242=CARTESIAN_POINT('',(56.,20.,40.0000005960464));
#1243=CARTESIAN_POINT('',(56.,20.,40.0000005960464));
#1244=CARTESIAN_POINT('',(46.,20.,40.0000005960464));
#1245=CARTESIAN_POINT('Origin',(46.,25.000000372529,40.0000005960464));
#1246=CARTESIAN_POINT('',(46.,30.000000372529,40.0000005215406));
#1247=CARTESIAN_POINT('Origin',(46.,25.000000372529,40.0000005960464));
#1248=CARTESIAN_POINT('',(56.,30.000000372529,40.0000005215406));
#1249=CARTESIAN_POINT('Origin',(56.,25.000000372529,40.0000005960464));
#1250=CARTESIAN_POINT('',(46.,30.000000372529,40.0000005215406));
#1251=CARTESIAN_POINT('Origin',(46.,30.000000102871,29.1421357692126));
#1252=CARTESIAN_POINT('',(46.,30.000000102871,29.1421357692126));
#1253=CARTESIAN_POINT('',(46.,30.000000372529,40.0000005960464));
#1254=CARTESIAN_POINT('',(56.,30.000000102871,29.1421357692126));
#1255=CARTESIAN_POINT('',(56.,30.000000372529,40.0000005960464));
#1256=CARTESIAN_POINT('',(46.,30.000000102871,29.1421357692126));
#1257=CARTESIAN_POINT('Origin',(46.,40.000000102871,29.1421355208599));
#1258=CARTESIAN_POINT('',(46.,32.9289322910056,22.0710677089944));
#1259=CARTESIAN_POINT('Origin',(46.,40.000000102871,29.1421355208599));
#1260=CARTESIAN_POINT('',(56.,32.9289322910056,22.0710677089944));
#1261=CARTESIAN_POINT('Origin',(56.,40.000000102871,29.1421355208599));
#1262=CARTESIAN_POINT('',(46.,32.9289322910056,22.0710677089944));
#1263=CARTESIAN_POINT('Origin',(46.,48.5355339059327,6.46446609406726));
#1264=CARTESIAN_POINT('',(46.,48.5355339059327,6.46446609406726));
#1265=CARTESIAN_POINT('',(46.,32.9289322910056,22.0710677089944));
#1266=CARTESIAN_POINT('',(56.,48.5355339059327,6.46446609406726));
#1267=CARTESIAN_POINT('',(56.,32.9289322910056,22.0710677089944));
#1268=CARTESIAN_POINT('',(46.,48.5355339059327,6.46446609406726));
#1269=CARTESIAN_POINT('Origin',(46.,52.0710678118655,10.));
#1270=CARTESIAN_POINT('',(46.,52.0710678118655,5.));
#1271=CARTESIAN_POINT('Origin',(46.,52.0710678118655,10.));
#1272=CARTESIAN_POINT('',(56.,52.0710678118655,5.));
#1273=CARTESIAN_POINT('Origin',(56.,52.0710678118655,10.));
#1274=CARTESIAN_POINT('',(46.,52.0710678118655,5.));
#1275=CARTESIAN_POINT('Origin',(46.,90.,5.00000000000001));
#1276=CARTESIAN_POINT('',(46.,90.,5.00000000000001));
#1277=CARTESIAN_POINT('',(46.,90.,5.00000000000001));
#1278=CARTESIAN_POINT('',(56.,90.,5.00000000000001));
#1279=CARTESIAN_POINT('',(56.,90.,5.00000000000001));
#1280=CARTESIAN_POINT('',(46.,90.,5.00000000000001));
#1281=CARTESIAN_POINT('Origin',(46.,90.,-4.99999999999999));
#1282=CARTESIAN_POINT('',(46.,100.,-5.));
#1283=CARTESIAN_POINT('Origin',(46.,90.,-4.99999999999999));
#1284=CARTESIAN_POINT('',(56.,100.,-5.));
#1285=CARTESIAN_POINT('Origin',(56.,90.,-4.99999999999999));
#1286=CARTESIAN_POINT('',(46.,100.,-5.));
#1287=CARTESIAN_POINT('Origin',(46.,100.,-15.));
#1288=CARTESIAN_POINT('',(46.,100.,-15.));
#1289=CARTESIAN_POINT('',(56.,100.,-15.));
#1290=CARTESIAN_POINT('Origin',(46.,-10.,0.));
#1291=CARTESIAN_POINT('',(46.,-10.,1.416384724412E-15));
#1292=CARTESIAN_POINT('',(46.,-10.,0.));
#1293=CARTESIAN_POINT('',(56.,-10.,1.416384724412E-15));
#1294=CARTESIAN_POINT('',(56.,-10.,0.));
#1295=CARTESIAN_POINT('',(46.,-10.,1.416384724412E-15));
#1296=CARTESIAN_POINT('Origin',(46.,-5.,5.55111512312578E-15));
#1297=CARTESIAN_POINT('',(46.,-5.,5.));
#1298=CARTESIAN_POINT('Origin',(46.,-5.,5.55111512312578E-15));
#1299=CARTESIAN_POINT('',(56.,-5.,5.));
#1300=CARTESIAN_POINT('Origin',(56.,-5.,5.55111512312578E-15));
#1301=CARTESIAN_POINT('',(46.,-5.,5.));
#1302=CARTESIAN_POINT('Origin',(46.,-2.07106781186547,5.));
#1303=CARTESIAN_POINT('',(46.,-2.07106781186547,5.));
#1304=CARTESIAN_POINT('',(56.,-2.07106781186547,5.));
#1305=CARTESIAN_POINT('Origin',(56.,45.,15.0000002980232));
#1306=CARTESIAN_POINT('Origin',(46.,45.,15.0000002980232));
#1307=UNCERTAINTY_MEASURE_WITH_UNIT(LENGTH_MEASURE(0.01),#1311,
'DISTANCE_ACCURACY_VALUE',
'Maximum model space distance between geometric entities at asserted c
onnectivities');
#1308=UNCERTAINTY_MEASURE_WITH_UNIT(LENGTH_MEASURE(0.01),#1311,
'DISTANCE_ACCURACY_VALUE',
'Maximum model space distance between geometric entities at asserted c
onnectivities');
#1309=(
GEOMETRIC_REPRESENTATION_CONTEXT(3)
GLOBAL_UNCERTAINTY_ASSIGNED_CONTEXT((#1307))
GLOBAL_UNIT_ASSIGNED_CONTEXT((#1311,#1313,#1314))
REPRESENTATION_CONTEXT('','3D')
);
#1310=(
GEOMETRIC_REPRESENTATION_CONTEXT(3)
GLOBAL_UNCERTAINTY_ASSIGNED_CONTEXT((#1308))
GLOBAL_UNIT_ASSIGNED_CONTEXT((#1311,#1313,#1314))
REPRESENTATION_CONTEXT('','3D')
);
#1311=(
LENGTH_UNIT()
NAMED_UNIT(*)
SI_UNIT(.MILLI.,.METRE.)
);
#1312=(
LENGTH_UNIT()
NAMED_UNIT(*)
SI_UNIT($,.METRE.)
);
#1313=(
NAMED_UNIT(*)
PLANE_ANGLE_UNIT()
SI_UNIT($,.RADIAN.)
);
#1314=(
NAMED_UNIT(*)
SI_UNIT($,.STERADIAN.)
SOLID_ANGLE_UNIT()
);
#1315=SHAPE_DEFINITION_REPRESENTATION(#1316,#1317);
#1316=PRODUCT_DEFINITION_SHAPE('',$,#1319);
#1317=SHAPE_REPRESENTATION('',(#767),#1309);
#1318=PRODUCT_DEFINITION_CONTEXT('part definition',#1323,'design');
#1319=PRODUCT_DEFINITION('soporte1','soporte1',#1320,#1318);
#1320=PRODUCT_DEFINITION_FORMATION('',$,#1325);
#1321=PRODUCT_RELATED_PRODUCT_CATEGORY('soporte1','soporte1',(#1325));
#1322=APPLICATION_PROTOCOL_DEFINITION('international standard',
'automotive_design',2009,#1323);
#1323=APPLICATION_CONTEXT(
'Core Data for Automotive Mechanical Design Process');
#1324=PRODUCT_CONTEXT('part definition',#1323,'mechanical');
#1325=PRODUCT('soporte1','soporte1',$,(#1324));
#1326=PRESENTATION_STYLE_ASSIGNMENT((#1327));
#1327=SURFACE_STYLE_USAGE(.BOTH.,#1328);
#1328=SURFACE_SIDE_STYLE('',(#1329));
#1329=SURFACE_STYLE_FILL_AREA(#1330);
#1330=FILL_AREA_STYLE('Steel - Satin',(#1331));
#1331=FILL_AREA_STYLE_COLOUR('Steel - Satin',#1332);
#1332=COLOUR_RGB('Steel - Satin',0.627450980392157,0.627450980392157,0.627450980392157);
ENDSEC;
END-ISO-10303-21;
