ISO-10303-21;
HEADER;
/* Generated by software containing ST-Developer
 * from STEP Tools, Inc. (www.steptools.com) 
 */

FILE_DESCRIPTION(
/* description */ (''),
/* implementation_level */ '2;1');

FILE_NAME(
/* name */ 'Leva.step',
/* time_stamp */ '2026-07-30T14:13:01-03:00',
/* author */ (''),
/* organization */ (''),
/* preprocessor_version */ 'ST-DEVELOPER v20.1',
/* originating_system */ 'Autodesk Translation Framework v14.24.0.0',
/* authorisation */ '');

FILE_SCHEMA (('AUTOMOTIVE_DESIGN { 1 0 10303 214 3 1 1 }'));
ENDSEC;

DATA;
#10=MECHANICAL_DESIGN_GEOMETRIC_PRESENTATION_REPRESENTATION('',(#13),#853);
#11=SHAPE_REPRESENTATION_RELATIONSHIP('SRR','None',#860,#12);
#12=ADVANCED_BREP_SHAPE_REPRESENTATION('',(#14),#852);
#13=STYLED_ITEM('',(#869),#14);
#14=MANIFOLD_SOLID_BREP('Leva',#424);
#15=(
BOUNDED_SURFACE()
B_SPLINE_SURFACE(2,2,((#798,#799,#800,#801,#802,#803,#804),(#805,#806,#807,
#808,#809,#810,#811),(#812,#813,#814,#815,#816,#817,#818)),
 .UNSPECIFIED.,.F.,.F.,.F.)
B_SPLINE_SURFACE_WITH_KNOTS((3,3),(3,2,2,3),(-3.14159265358979,-1.57079632679488),
(-1.59224755558311,-0.530749185194372,0.530749185194371,1.59224755558311),
 .UNSPECIFIED.)
GEOMETRIC_REPRESENTATION_ITEM()
RATIONAL_B_SPLINE_SURFACE(((1.,0.8624280903182,1.,0.8624280903182,1.,0.8624280903182,
1.),(0.707106781186541,0.609828750949758,0.707106781186541,0.609828750949758,
0.707106781186541,0.609828750949758,0.707106781186541),(1.,0.8624280903182,
1.,0.8624280903182,1.,0.8624280903182,1.)))
REPRESENTATION_ITEM('')
SURFACE()
);
#16=SPHERICAL_SURFACE('',#481,2.);
#17=TOROIDAL_SURFACE('',#450,3.,2.);
#18=TOROIDAL_SURFACE('',#456,3.,2.);
#19=TOROIDAL_SURFACE('',#467,3.,2.);
#20=TOROIDAL_SURFACE('',#473,3.,2.);
#21=TOROIDAL_SURFACE('',#486,18.,4.);
#22=TOROIDAL_SURFACE('',#494,18.,4.);
#23=FACE_BOUND('',#68,.T.);
#24=FACE_BOUND('',#70,.T.);
#25=FACE_BOUND('',#76,.T.);
#26=FACE_BOUND('',#78,.T.);
#27=FACE_BOUND('',#91,.T.);
#28=FACE_BOUND('',#98,.T.);
#29=PLANE('',#444);
#30=PLANE('',#447);
#31=PLANE('',#461);
#32=PLANE('',#464);
#33=PLANE('',#483);
#34=PLANE('',#490);
#35=PLANE('',#498);
#36=PLANE('',#501);
#37=FACE_OUTER_BOUND('',#65,.T.);
#38=FACE_OUTER_BOUND('',#66,.T.);
#39=FACE_OUTER_BOUND('',#67,.T.);
#40=FACE_OUTER_BOUND('',#69,.T.);
#41=FACE_OUTER_BOUND('',#71,.T.);
#42=FACE_OUTER_BOUND('',#72,.T.);
#43=FACE_OUTER_BOUND('',#73,.T.);
#44=FACE_OUTER_BOUND('',#74,.T.);
#45=FACE_OUTER_BOUND('',#75,.T.);
#46=FACE_OUTER_BOUND('',#77,.T.);
#47=FACE_OUTER_BOUND('',#79,.T.);
#48=FACE_OUTER_BOUND('',#80,.T.);
#49=FACE_OUTER_BOUND('',#81,.T.);
#50=FACE_OUTER_BOUND('',#82,.T.);
#51=FACE_OUTER_BOUND('',#83,.T.);
#52=FACE_OUTER_BOUND('',#84,.T.);
#53=FACE_OUTER_BOUND('',#85,.T.);
#54=FACE_OUTER_BOUND('',#86,.T.);
#55=FACE_OUTER_BOUND('',#87,.T.);
#56=FACE_OUTER_BOUND('',#88,.T.);
#57=FACE_OUTER_BOUND('',#89,.T.);
#58=FACE_OUTER_BOUND('',#90,.T.);
#59=FACE_OUTER_BOUND('',#92,.T.);
#60=FACE_OUTER_BOUND('',#93,.T.);
#61=FACE_OUTER_BOUND('',#94,.T.);
#62=FACE_OUTER_BOUND('',#95,.T.);
#63=FACE_OUTER_BOUND('',#96,.T.);
#64=FACE_OUTER_BOUND('',#97,.T.);
#65=EDGE_LOOP('',(#268,#269,#270,#271,#272,#273,#274));
#66=EDGE_LOOP('',(#275,#276,#277,#278,#279));
#67=EDGE_LOOP('',(#280));
#68=EDGE_LOOP('',(#281));
#69=EDGE_LOOP('',(#282));
#70=EDGE_LOOP('',(#283));
#71=EDGE_LOOP('',(#284,#285,#286,#287,#288));
#72=EDGE_LOOP('',(#289,#290,#291,#292,#293));
#73=EDGE_LOOP('',(#294,#295,#296,#297));
#74=EDGE_LOOP('',(#298,#299,#300,#301,#302));
#75=EDGE_LOOP('',(#303));
#76=EDGE_LOOP('',(#304));
#77=EDGE_LOOP('',(#305));
#78=EDGE_LOOP('',(#306));
#79=EDGE_LOOP('',(#307,#308,#309,#310,#311));
#80=EDGE_LOOP('',(#312,#313,#314,#315,#316));
#81=EDGE_LOOP('',(#317,#318,#319,#320));
#82=EDGE_LOOP('',(#321,#322,#323,#324));
#83=EDGE_LOOP('',(#325,#326,#327,#328));
#84=EDGE_LOOP('',(#329,#330,#331,#332));
#85=EDGE_LOOP('',(#333,#334,#335,#336));
#86=EDGE_LOOP('',(#337));
#87=EDGE_LOOP('',(#338,#339,#340,#341));
#88=EDGE_LOOP('',(#342,#343,#344,#345));
#89=EDGE_LOOP('',(#346,#347,#348));
#90=EDGE_LOOP('',(#349,#350,#351,#352,#353,#354));
#91=EDGE_LOOP('',(#355));
#92=EDGE_LOOP('',(#356,#357,#358,#359));
#93=EDGE_LOOP('',(#360,#361,#362,#363));
#94=EDGE_LOOP('',(#364,#365,#366,#367));
#95=EDGE_LOOP('',(#368,#369,#370,#371));
#96=EDGE_LOOP('',(#372,#373,#374,#375,#376,#377));
#97=EDGE_LOOP('',(#378,#379,#380,#381,#382));
#98=EDGE_LOOP('',(#383));
#99=LINE('',#666,#114);
#100=LINE('',#681,#115);
#101=LINE('',#709,#116);
#102=LINE('',#730,#117);
#103=LINE('',#737,#118);
#104=LINE('',#758,#119);
#105=LINE('',#763,#120);
#106=LINE('',#767,#121);
#107=LINE('',#772,#122);
#108=LINE('',#791,#123);
#109=LINE('',#794,#124);
#110=LINE('',#836,#125);
#111=LINE('',#839,#126);
#112=LINE('',#844,#127);
#113=LINE('',#846,#128);
#114=VECTOR('',#508,10.);
#115=VECTOR('',#511,10.);
#116=VECTOR('',#516,10.);
#117=VECTOR('',#543,5.);
#118=VECTOR('',#552,2.);
#119=VECTOR('',#579,5.);
#120=VECTOR('',#586,2.);
#121=VECTOR('',#591,2.);
#122=VECTOR('',#598,2.);
#123=VECTOR('',#607,10.);
#124=VECTOR('',#610,10.);
#125=VECTOR('',#625,10.);
#126=VECTOR('',#628,10.);
#127=VECTOR('',#637,10.);
#128=VECTOR('',#640,10.);
#129=B_SPLINE_CURVE_WITH_KNOTS('',3,(#653,#654,#655,#656,#657,#658,#659,
#660,#661,#662,#663,#664),.UNSPECIFIED.,.F.,.F.,(4,2,2,2,2,4),(-0.0116366577294109,
0.,0.237793150301699,0.392235651457773,0.545825261321234,0.621002106550143),
 .UNSPECIFIED.);
#130=B_SPLINE_CURVE_WITH_KNOTS('',3,(#670,#671,#672,#673,#674,#675,#676,
#677,#678,#679),.UNSPECIFIED.,.F.,.F.,(4,2,2,2,4),(-0.00148528908246626,
0.,0.586878395180792,0.880802141795111,0.978509297099545),.UNSPECIFIED.);
#131=B_SPLINE_CURVE_WITH_KNOTS('',3,(#682,#683,#684,#685,#686,#687,#688,
#689,#690,#691),.UNSPECIFIED.,.F.,.F.,(4,2,2,2,4),(-3.27208258244323,-3.27065515262461,
-2.84538267213519,-2.50865342523739,-2.31593212915519),.UNSPECIFIED.);
#132=B_SPLINE_CURVE_WITH_KNOTS('',3,(#694,#695,#696,#697,#698,#699,#700,
#701,#702,#703,#704,#705),.UNSPECIFIED.,.F.,.F.,(4,2,2,2,2,4),(-0.00291638433531077,
0.,0.159434237049385,0.315564374048768,0.471511688638214,0.627518475821714),
 .UNSPECIFIED.);
#133=B_SPLINE_CURVE_WITH_KNOTS('',3,(#780,#781,#782,#783,#784,#785,#786,
#787,#788,#789),.UNSPECIFIED.,.F.,.F.,(4,2,2,2,4),(0.645320400776287,0.80589228299683,
0.966464165217373,1.11635741200348,1.26625065878958),.UNSPECIFIED.);
#134=B_SPLINE_CURVE_WITH_KNOTS('',3,(#825,#826,#827,#828,#829,#830,#831,
#832,#833,#834),.UNSPECIFIED.,.F.,.F.,(4,2,2,2,4),(0.645320400776287,0.80589228299683,
0.966464165217373,1.11635741200348,1.26625065878958),.UNSPECIFIED.);
#135=CIRCLE('',#439,17.6742673680956);
#136=CIRCLE('',#440,17.6742673680956);
#137=CIRCLE('',#442,52.8480221162466);
#138=CIRCLE('',#443,52.8480221162466);
#139=CIRCLE('',#445,3.);
#140=CIRCLE('',#446,2.);
#141=CIRCLE('',#448,3.);
#142=CIRCLE('',#449,2.);
#143=CIRCLE('',#451,2.);
#144=CIRCLE('',#452,5.);
#145=CIRCLE('',#453,5.);
#146=CIRCLE('',#455,5.);
#147=CIRCLE('',#457,2.);
#148=CIRCLE('',#459,2.);
#149=CIRCLE('',#460,2.);
#150=CIRCLE('',#462,3.);
#151=CIRCLE('',#463,2.);
#152=CIRCLE('',#465,3.);
#153=CIRCLE('',#466,2.);
#154=CIRCLE('',#468,2.);
#155=CIRCLE('',#469,5.);
#156=CIRCLE('',#470,5.);
#157=CIRCLE('',#472,5.);
#158=CIRCLE('',#474,2.);
#159=CIRCLE('',#476,2.);
#160=CIRCLE('',#478,2.);
#161=CIRCLE('',#480,2.);
#162=CIRCLE('',#482,2.);
#163=CIRCLE('',#485,4.);
#164=CIRCLE('',#487,18.);
#165=CIRCLE('',#488,14.);
#166=CIRCLE('',#489,4.);
#167=CIRCLE('',#491,23.4814506417057);
#168=CIRCLE('',#493,4.);
#169=CIRCLE('',#495,18.);
#170=CIRCLE('',#496,14.);
#171=CIRCLE('',#500,23.4814506417057);
#172=VERTEX_POINT('',#649);
#173=VERTEX_POINT('',#650);
#174=VERTEX_POINT('',#652);
#175=VERTEX_POINT('',#665);
#176=VERTEX_POINT('',#667);
#177=VERTEX_POINT('',#669);
#178=VERTEX_POINT('',#680);
#179=VERTEX_POINT('',#693);
#180=VERTEX_POINT('',#706);
#181=VERTEX_POINT('',#708);
#182=VERTEX_POINT('',#712);
#183=VERTEX_POINT('',#714);
#184=VERTEX_POINT('',#717);
#185=VERTEX_POINT('',#719);
#186=VERTEX_POINT('',#722);
#187=VERTEX_POINT('',#724);
#188=VERTEX_POINT('',#728);
#189=VERTEX_POINT('',#734);
#190=VERTEX_POINT('',#735);
#191=VERTEX_POINT('',#740);
#192=VERTEX_POINT('',#742);
#193=VERTEX_POINT('',#745);
#194=VERTEX_POINT('',#747);
#195=VERTEX_POINT('',#750);
#196=VERTEX_POINT('',#752);
#197=VERTEX_POINT('',#756);
#198=VERTEX_POINT('',#762);
#199=VERTEX_POINT('',#766);
#200=VERTEX_POINT('',#770);
#201=VERTEX_POINT('',#774);
#202=VERTEX_POINT('',#778);
#203=VERTEX_POINT('',#779);
#204=VERTEX_POINT('',#790);
#205=VERTEX_POINT('',#792);
#206=VERTEX_POINT('',#823);
#207=VERTEX_POINT('',#824);
#208=VERTEX_POINT('',#835);
#209=VERTEX_POINT('',#837);
#210=EDGE_CURVE('',#172,#173,#135,.T.);
#211=EDGE_CURVE('',#174,#173,#129,.T.);
#212=EDGE_CURVE('',#174,#175,#99,.T.);
#213=EDGE_CURVE('',#176,#175,#136,.T.);
#214=EDGE_CURVE('',#177,#176,#130,.T.);
#215=EDGE_CURVE('',#178,#177,#100,.T.);
#216=EDGE_CURVE('',#178,#172,#131,.T.);
#217=EDGE_CURVE('',#174,#179,#132,.T.);
#218=EDGE_CURVE('',#179,#180,#137,.T.);
#219=EDGE_CURVE('',#180,#181,#101,.T.);
#220=EDGE_CURVE('',#175,#181,#138,.T.);
#221=EDGE_CURVE('',#182,#182,#139,.T.);
#222=EDGE_CURVE('',#183,#183,#140,.T.);
#223=EDGE_CURVE('',#184,#184,#141,.T.);
#224=EDGE_CURVE('',#185,#185,#142,.T.);
#225=EDGE_CURVE('',#182,#186,#143,.T.);
#226=EDGE_CURVE('',#186,#187,#144,.T.);
#227=EDGE_CURVE('',#187,#186,#145,.T.);
#228=EDGE_CURVE('',#188,#188,#146,.T.);
#229=EDGE_CURVE('',#188,#187,#102,.T.);
#230=EDGE_CURVE('',#184,#188,#147,.T.);
#231=EDGE_CURVE('',#189,#190,#148,.T.);
#232=EDGE_CURVE('',#189,#185,#103,.T.);
#233=EDGE_CURVE('',#190,#189,#149,.T.);
#234=EDGE_CURVE('',#191,#191,#150,.T.);
#235=EDGE_CURVE('',#192,#192,#151,.T.);
#236=EDGE_CURVE('',#193,#193,#152,.T.);
#237=EDGE_CURVE('',#194,#194,#153,.T.);
#238=EDGE_CURVE('',#191,#195,#154,.T.);
#239=EDGE_CURVE('',#196,#195,#155,.T.);
#240=EDGE_CURVE('',#195,#196,#156,.T.);
#241=EDGE_CURVE('',#197,#197,#157,.T.);
#242=EDGE_CURVE('',#197,#196,#104,.T.);
#243=EDGE_CURVE('',#193,#197,#158,.T.);
#244=EDGE_CURVE('',#194,#198,#105,.T.);
#245=EDGE_CURVE('',#198,#198,#159,.T.);
#246=EDGE_CURVE('',#183,#199,#106,.T.);
#247=EDGE_CURVE('',#199,#199,#160,.T.);
#248=EDGE_CURVE('',#200,#200,#161,.T.);
#249=EDGE_CURVE('',#200,#192,#107,.T.);
#250=EDGE_CURVE('',#190,#201,#162,.T.);
#251=EDGE_CURVE('',#202,#203,#133,.T.);
#252=EDGE_CURVE('',#204,#202,#108,.T.);
#253=EDGE_CURVE('',#205,#204,#163,.T.);
#254=EDGE_CURVE('',#203,#205,#109,.T.);
#255=EDGE_CURVE('',#172,#204,#164,.T.);
#256=EDGE_CURVE('',#205,#178,#165,.T.);
#257=EDGE_CURVE('',#179,#173,#166,.T.);
#258=EDGE_CURVE('',#180,#202,#167,.T.);
#259=EDGE_CURVE('',#206,#207,#134,.T.);
#260=EDGE_CURVE('',#207,#208,#110,.T.);
#261=EDGE_CURVE('',#208,#209,#168,.T.);
#262=EDGE_CURVE('',#209,#206,#111,.T.);
#263=EDGE_CURVE('',#176,#209,#169,.T.);
#264=EDGE_CURVE('',#208,#177,#170,.T.);
#265=EDGE_CURVE('',#205,#208,#112,.T.);
#266=EDGE_CURVE('',#203,#207,#113,.T.);
#267=EDGE_CURVE('',#181,#206,#171,.T.);
#268=ORIENTED_EDGE('',*,*,#210,.T.);
#269=ORIENTED_EDGE('',*,*,#211,.F.);
#270=ORIENTED_EDGE('',*,*,#212,.T.);
#271=ORIENTED_EDGE('',*,*,#213,.F.);
#272=ORIENTED_EDGE('',*,*,#214,.F.);
#273=ORIENTED_EDGE('',*,*,#215,.F.);
#274=ORIENTED_EDGE('',*,*,#216,.T.);
#275=ORIENTED_EDGE('',*,*,#212,.F.);
#276=ORIENTED_EDGE('',*,*,#217,.T.);
#277=ORIENTED_EDGE('',*,*,#218,.T.);
#278=ORIENTED_EDGE('',*,*,#219,.T.);
#279=ORIENTED_EDGE('',*,*,#220,.F.);
#280=ORIENTED_EDGE('',*,*,#221,.F.);
#281=ORIENTED_EDGE('',*,*,#222,.F.);
#282=ORIENTED_EDGE('',*,*,#223,.F.);
#283=ORIENTED_EDGE('',*,*,#224,.F.);
#284=ORIENTED_EDGE('',*,*,#221,.T.);
#285=ORIENTED_EDGE('',*,*,#225,.T.);
#286=ORIENTED_EDGE('',*,*,#226,.T.);
#287=ORIENTED_EDGE('',*,*,#227,.T.);
#288=ORIENTED_EDGE('',*,*,#225,.F.);
#289=ORIENTED_EDGE('',*,*,#228,.F.);
#290=ORIENTED_EDGE('',*,*,#229,.T.);
#291=ORIENTED_EDGE('',*,*,#226,.F.);
#292=ORIENTED_EDGE('',*,*,#227,.F.);
#293=ORIENTED_EDGE('',*,*,#229,.F.);
#294=ORIENTED_EDGE('',*,*,#223,.T.);
#295=ORIENTED_EDGE('',*,*,#230,.T.);
#296=ORIENTED_EDGE('',*,*,#228,.T.);
#297=ORIENTED_EDGE('',*,*,#230,.F.);
#298=ORIENTED_EDGE('',*,*,#231,.F.);
#299=ORIENTED_EDGE('',*,*,#232,.T.);
#300=ORIENTED_EDGE('',*,*,#224,.T.);
#301=ORIENTED_EDGE('',*,*,#232,.F.);
#302=ORIENTED_EDGE('',*,*,#233,.F.);
#303=ORIENTED_EDGE('',*,*,#234,.T.);
#304=ORIENTED_EDGE('',*,*,#235,.F.);
#305=ORIENTED_EDGE('',*,*,#236,.T.);
#306=ORIENTED_EDGE('',*,*,#237,.F.);
#307=ORIENTED_EDGE('',*,*,#234,.F.);
#308=ORIENTED_EDGE('',*,*,#238,.T.);
#309=ORIENTED_EDGE('',*,*,#239,.F.);
#310=ORIENTED_EDGE('',*,*,#240,.F.);
#311=ORIENTED_EDGE('',*,*,#238,.F.);
#312=ORIENTED_EDGE('',*,*,#241,.T.);
#313=ORIENTED_EDGE('',*,*,#242,.T.);
#314=ORIENTED_EDGE('',*,*,#239,.T.);
#315=ORIENTED_EDGE('',*,*,#240,.T.);
#316=ORIENTED_EDGE('',*,*,#242,.F.);
#317=ORIENTED_EDGE('',*,*,#236,.F.);
#318=ORIENTED_EDGE('',*,*,#243,.T.);
#319=ORIENTED_EDGE('',*,*,#241,.F.);
#320=ORIENTED_EDGE('',*,*,#243,.F.);
#321=ORIENTED_EDGE('',*,*,#237,.T.);
#322=ORIENTED_EDGE('',*,*,#244,.T.);
#323=ORIENTED_EDGE('',*,*,#245,.T.);
#324=ORIENTED_EDGE('',*,*,#244,.F.);
#325=ORIENTED_EDGE('',*,*,#222,.T.);
#326=ORIENTED_EDGE('',*,*,#246,.T.);
#327=ORIENTED_EDGE('',*,*,#247,.F.);
#328=ORIENTED_EDGE('',*,*,#246,.F.);
#329=ORIENTED_EDGE('',*,*,#248,.F.);
#330=ORIENTED_EDGE('',*,*,#249,.T.);
#331=ORIENTED_EDGE('',*,*,#235,.T.);
#332=ORIENTED_EDGE('',*,*,#249,.F.);
#333=ORIENTED_EDGE('',*,*,#231,.T.);
#334=ORIENTED_EDGE('',*,*,#250,.T.);
#335=ORIENTED_EDGE('',*,*,#250,.F.);
#336=ORIENTED_EDGE('',*,*,#233,.T.);
#337=ORIENTED_EDGE('',*,*,#245,.F.);
#338=ORIENTED_EDGE('',*,*,#251,.F.);
#339=ORIENTED_EDGE('',*,*,#252,.F.);
#340=ORIENTED_EDGE('',*,*,#253,.F.);
#341=ORIENTED_EDGE('',*,*,#254,.F.);
#342=ORIENTED_EDGE('',*,*,#255,.F.);
#343=ORIENTED_EDGE('',*,*,#216,.F.);
#344=ORIENTED_EDGE('',*,*,#256,.F.);
#345=ORIENTED_EDGE('',*,*,#253,.T.);
#346=ORIENTED_EDGE('',*,*,#211,.T.);
#347=ORIENTED_EDGE('',*,*,#257,.F.);
#348=ORIENTED_EDGE('',*,*,#217,.F.);
#349=ORIENTED_EDGE('',*,*,#255,.T.);
#350=ORIENTED_EDGE('',*,*,#252,.T.);
#351=ORIENTED_EDGE('',*,*,#258,.F.);
#352=ORIENTED_EDGE('',*,*,#218,.F.);
#353=ORIENTED_EDGE('',*,*,#257,.T.);
#354=ORIENTED_EDGE('',*,*,#210,.F.);
#355=ORIENTED_EDGE('',*,*,#248,.T.);
#356=ORIENTED_EDGE('',*,*,#259,.T.);
#357=ORIENTED_EDGE('',*,*,#260,.T.);
#358=ORIENTED_EDGE('',*,*,#261,.T.);
#359=ORIENTED_EDGE('',*,*,#262,.T.);
#360=ORIENTED_EDGE('',*,*,#214,.T.);
#361=ORIENTED_EDGE('',*,*,#263,.T.);
#362=ORIENTED_EDGE('',*,*,#261,.F.);
#363=ORIENTED_EDGE('',*,*,#264,.T.);
#364=ORIENTED_EDGE('',*,*,#264,.F.);
#365=ORIENTED_EDGE('',*,*,#265,.F.);
#366=ORIENTED_EDGE('',*,*,#256,.T.);
#367=ORIENTED_EDGE('',*,*,#215,.T.);
#368=ORIENTED_EDGE('',*,*,#260,.F.);
#369=ORIENTED_EDGE('',*,*,#266,.F.);
#370=ORIENTED_EDGE('',*,*,#254,.T.);
#371=ORIENTED_EDGE('',*,*,#265,.T.);
#372=ORIENTED_EDGE('',*,*,#259,.F.);
#373=ORIENTED_EDGE('',*,*,#267,.F.);
#374=ORIENTED_EDGE('',*,*,#219,.F.);
#375=ORIENTED_EDGE('',*,*,#258,.T.);
#376=ORIENTED_EDGE('',*,*,#251,.T.);
#377=ORIENTED_EDGE('',*,*,#266,.T.);
#378=ORIENTED_EDGE('',*,*,#220,.T.);
#379=ORIENTED_EDGE('',*,*,#267,.T.);
#380=ORIENTED_EDGE('',*,*,#262,.F.);
#381=ORIENTED_EDGE('',*,*,#263,.F.);
#382=ORIENTED_EDGE('',*,*,#213,.T.);
#383=ORIENTED_EDGE('',*,*,#247,.T.);
#384=CYLINDRICAL_SURFACE('',#438,17.6742673680956);
#385=CYLINDRICAL_SURFACE('',#441,52.8480221162466);
#386=CYLINDRICAL_SURFACE('',#454,5.);
#387=CYLINDRICAL_SURFACE('',#458,2.);
#388=CYLINDRICAL_SURFACE('',#471,5.);
#389=CYLINDRICAL_SURFACE('',#475,2.);
#390=CYLINDRICAL_SURFACE('',#477,2.);
#391=CYLINDRICAL_SURFACE('',#479,2.);
#392=CYLINDRICAL_SURFACE('',#484,4.);
#393=CYLINDRICAL_SURFACE('',#492,4.);
#394=CYLINDRICAL_SURFACE('',#497,14.);
#395=CYLINDRICAL_SURFACE('',#499,23.4814506417057);
#396=ADVANCED_FACE('',(#37),#384,.T.);
#397=ADVANCED_FACE('',(#38),#385,.T.);
#398=ADVANCED_FACE('',(#39,#23),#29,.T.);
#399=ADVANCED_FACE('',(#40,#24),#30,.T.);
#400=ADVANCED_FACE('',(#41),#17,.T.);
#401=ADVANCED_FACE('',(#42),#386,.T.);
#402=ADVANCED_FACE('',(#43),#18,.T.);
#403=ADVANCED_FACE('',(#44),#387,.T.);
#404=ADVANCED_FACE('',(#45,#25),#31,.F.);
#405=ADVANCED_FACE('',(#46,#26),#32,.F.);
#406=ADVANCED_FACE('',(#47),#19,.T.);
#407=ADVANCED_FACE('',(#48),#388,.T.);
#408=ADVANCED_FACE('',(#49),#20,.T.);
#409=ADVANCED_FACE('',(#50),#389,.T.);
#410=ADVANCED_FACE('',(#51),#390,.T.);
#411=ADVANCED_FACE('',(#52),#391,.T.);
#412=ADVANCED_FACE('',(#53),#16,.T.);
#413=ADVANCED_FACE('',(#54),#33,.F.);
#414=ADVANCED_FACE('',(#55),#392,.T.);
#415=ADVANCED_FACE('',(#56),#21,.T.);
#416=ADVANCED_FACE('',(#57),#15,.F.);
#417=ADVANCED_FACE('',(#58,#27),#34,.F.);
#418=ADVANCED_FACE('',(#59),#393,.T.);
#419=ADVANCED_FACE('',(#60),#22,.T.);
#420=ADVANCED_FACE('',(#61),#394,.F.);
#421=ADVANCED_FACE('',(#62),#35,.T.);
#422=ADVANCED_FACE('',(#63),#395,.T.);
#423=ADVANCED_FACE('',(#64,#28),#36,.T.);
#424=CLOSED_SHELL('',(#396,#397,#398,#399,#400,#401,#402,#403,#404,#405,
#406,#407,#408,#409,#410,#411,#412,#413,#414,#415,#416,#417,#418,#419,#420,
#421,#422,#423));
#425=DERIVED_UNIT_ELEMENT(#427,1.);
#426=DERIVED_UNIT_ELEMENT(#855,-3.);
#427=(
MASS_UNIT()
NAMED_UNIT(*)
SI_UNIT(.KILO.,.GRAM.)
);
#428=DERIVED_UNIT((#425,#426));
#429=MEASURE_REPRESENTATION_ITEM('density measure',
POSITIVE_RATIO_MEASURE(7850.),#428);
#430=PROPERTY_DEFINITION_REPRESENTATION(#435,#432);
#431=PROPERTY_DEFINITION_REPRESENTATION(#436,#433);
#432=REPRESENTATION('material name',(#434),#852);
#433=REPRESENTATION('density',(#429),#852);
#434=DESCRIPTIVE_REPRESENTATION_ITEM('Steel','Steel');
#435=PROPERTY_DEFINITION('material property','material name',#862);
#436=PROPERTY_DEFINITION('material property','density of part',#862);
#437=AXIS2_PLACEMENT_3D('',#647,#502,#503);
#438=AXIS2_PLACEMENT_3D('',#648,#504,#505);
#439=AXIS2_PLACEMENT_3D('',#651,#506,#507);
#440=AXIS2_PLACEMENT_3D('',#668,#509,#510);
#441=AXIS2_PLACEMENT_3D('',#692,#512,#513);
#442=AXIS2_PLACEMENT_3D('',#707,#514,#515);
#443=AXIS2_PLACEMENT_3D('',#710,#517,#518);
#444=AXIS2_PLACEMENT_3D('',#711,#519,#520);
#445=AXIS2_PLACEMENT_3D('',#713,#521,#522);
#446=AXIS2_PLACEMENT_3D('',#715,#523,#524);
#447=AXIS2_PLACEMENT_3D('',#716,#525,#526);
#448=AXIS2_PLACEMENT_3D('',#718,#527,#528);
#449=AXIS2_PLACEMENT_3D('',#720,#529,#530);
#450=AXIS2_PLACEMENT_3D('',#721,#531,#532);
#451=AXIS2_PLACEMENT_3D('',#723,#533,#534);
#452=AXIS2_PLACEMENT_3D('',#725,#535,#536);
#453=AXIS2_PLACEMENT_3D('',#726,#537,#538);
#454=AXIS2_PLACEMENT_3D('',#727,#539,#540);
#455=AXIS2_PLACEMENT_3D('',#729,#541,#542);
#456=AXIS2_PLACEMENT_3D('',#731,#544,#545);
#457=AXIS2_PLACEMENT_3D('',#732,#546,#547);
#458=AXIS2_PLACEMENT_3D('',#733,#548,#549);
#459=AXIS2_PLACEMENT_3D('',#736,#550,#551);
#460=AXIS2_PLACEMENT_3D('',#738,#553,#554);
#461=AXIS2_PLACEMENT_3D('',#739,#555,#556);
#462=AXIS2_PLACEMENT_3D('',#741,#557,#558);
#463=AXIS2_PLACEMENT_3D('',#743,#559,#560);
#464=AXIS2_PLACEMENT_3D('',#744,#561,#562);
#465=AXIS2_PLACEMENT_3D('',#746,#563,#564);
#466=AXIS2_PLACEMENT_3D('',#748,#565,#566);
#467=AXIS2_PLACEMENT_3D('',#749,#567,#568);
#468=AXIS2_PLACEMENT_3D('',#751,#569,#570);
#469=AXIS2_PLACEMENT_3D('',#753,#571,#572);
#470=AXIS2_PLACEMENT_3D('',#754,#573,#574);
#471=AXIS2_PLACEMENT_3D('',#755,#575,#576);
#472=AXIS2_PLACEMENT_3D('',#757,#577,#578);
#473=AXIS2_PLACEMENT_3D('',#759,#580,#581);
#474=AXIS2_PLACEMENT_3D('',#760,#582,#583);
#475=AXIS2_PLACEMENT_3D('',#761,#584,#585);
#476=AXIS2_PLACEMENT_3D('',#764,#587,#588);
#477=AXIS2_PLACEMENT_3D('',#765,#589,#590);
#478=AXIS2_PLACEMENT_3D('',#768,#592,#593);
#479=AXIS2_PLACEMENT_3D('',#769,#594,#595);
#480=AXIS2_PLACEMENT_3D('',#771,#596,#597);
#481=AXIS2_PLACEMENT_3D('',#773,#599,#600);
#482=AXIS2_PLACEMENT_3D('',#775,#601,#602);
#483=AXIS2_PLACEMENT_3D('',#776,#603,#604);
#484=AXIS2_PLACEMENT_3D('',#777,#605,#606);
#485=AXIS2_PLACEMENT_3D('',#793,#608,#609);
#486=AXIS2_PLACEMENT_3D('',#795,#611,#612);
#487=AXIS2_PLACEMENT_3D('',#796,#613,#614);
#488=AXIS2_PLACEMENT_3D('',#797,#615,#616);
#489=AXIS2_PLACEMENT_3D('',#819,#617,#618);
#490=AXIS2_PLACEMENT_3D('',#820,#619,#620);
#491=AXIS2_PLACEMENT_3D('',#821,#621,#622);
#492=AXIS2_PLACEMENT_3D('',#822,#623,#624);
#493=AXIS2_PLACEMENT_3D('',#838,#626,#627);
#494=AXIS2_PLACEMENT_3D('',#840,#629,#630);
#495=AXIS2_PLACEMENT_3D('',#841,#631,#632);
#496=AXIS2_PLACEMENT_3D('',#842,#633,#634);
#497=AXIS2_PLACEMENT_3D('',#843,#635,#636);
#498=AXIS2_PLACEMENT_3D('',#845,#638,#639);
#499=AXIS2_PLACEMENT_3D('',#847,#641,#642);
#500=AXIS2_PLACEMENT_3D('',#848,#643,#644);
#501=AXIS2_PLACEMENT_3D('',#849,#645,#646);
#502=DIRECTION('axis',(0.,0.,1.));
#503=DIRECTION('refdir',(1.,0.,0.));
#504=DIRECTION('center_axis',(1.,0.,0.));
#505=DIRECTION('ref_axis',(0.,-0.820893622254466,0.571081133414458));
#506=DIRECTION('center_axis',(1.,0.,0.));
#507=DIRECTION('ref_axis',(0.,0.897015457262116,0.441999173565786));
#508=DIRECTION('',(1.,0.,0.));
#509=DIRECTION('center_axis',(1.,0.,0.));
#510=DIRECTION('ref_axis',(0.,0.897015457262116,0.441999173565786));
#511=DIRECTION('',(1.,0.,0.));
#512=DIRECTION('center_axis',(1.,0.,0.));
#513=DIRECTION('ref_axis',(0.,-0.144918085664981,-0.989443656024534));
#514=DIRECTION('center_axis',(1.,0.,0.));
#515=DIRECTION('ref_axis',(0.,-0.144918085664981,-0.989443656024534));
#516=DIRECTION('',(1.,0.,0.));
#517=DIRECTION('center_axis',(1.,0.,0.));
#518=DIRECTION('ref_axis',(0.,-0.144918085664981,-0.989443656024534));
#519=DIRECTION('center_axis',(-1.,0.,2.22044604925031E-16));
#520=DIRECTION('ref_axis',(2.22044604925031E-16,0.,1.));
#521=DIRECTION('center_axis',(1.,0.,-2.22044604925031E-16));
#522=DIRECTION('ref_axis',(2.22044604925031E-16,0.,1.));
#523=DIRECTION('center_axis',(-1.,0.,2.22044604925031E-16));
#524=DIRECTION('ref_axis',(0.,1.,0.));
#525=DIRECTION('center_axis',(1.,0.,-2.22044604925031E-16));
#526=DIRECTION('ref_axis',(-2.22044604925031E-16,0.,-1.));
#527=DIRECTION('center_axis',(-1.,0.,2.22044604925031E-16));
#528=DIRECTION('ref_axis',(2.22044604925031E-16,0.,1.));
#529=DIRECTION('center_axis',(1.,0.,-2.22044604925031E-16));
#530=DIRECTION('ref_axis',(0.,1.,0.));
#531=DIRECTION('center_axis',(-1.,0.,2.22044604925031E-16));
#532=DIRECTION('ref_axis',(0.,0.,1.));
#533=DIRECTION('center_axis',(0.,-1.,0.));
#534=DIRECTION('ref_axis',(0.,0.,-1.));
#535=DIRECTION('center_axis',(-1.,0.,2.22044604925031E-16));
#536=DIRECTION('ref_axis',(2.22044604925031E-16,0.,1.));
#537=DIRECTION('center_axis',(-1.,0.,2.22044604925031E-16));
#538=DIRECTION('ref_axis',(2.22044604925031E-16,0.,1.));
#539=DIRECTION('center_axis',(1.,0.,-2.22044604925031E-16));
#540=DIRECTION('ref_axis',(-2.22044604925031E-16,0.,-1.));
#541=DIRECTION('center_axis',(1.,0.,-2.22044604925031E-16));
#542=DIRECTION('ref_axis',(2.22044604925031E-16,0.,1.));
#543=DIRECTION('',(-1.,0.,2.22044604925031E-16));
#544=DIRECTION('center_axis',(1.,0.,-2.22044604925031E-16));
#545=DIRECTION('ref_axis',(0.,0.,-1.));
#546=DIRECTION('center_axis',(0.,-1.,0.));
#547=DIRECTION('ref_axis',(0.,0.,1.));
#548=DIRECTION('center_axis',(1.,0.,0.));
#549=DIRECTION('ref_axis',(0.,1.,0.));
#550=DIRECTION('center_axis',(1.,0.,0.));
#551=DIRECTION('ref_axis',(0.,1.,0.));
#552=DIRECTION('',(-1.,0.,0.));
#553=DIRECTION('center_axis',(1.,0.,0.));
#554=DIRECTION('ref_axis',(0.,1.,0.));
#555=DIRECTION('center_axis',(-1.,0.,-2.22044604925031E-16));
#556=DIRECTION('ref_axis',(-2.22044604925031E-16,0.,1.));
#557=DIRECTION('center_axis',(1.,0.,2.22044604925031E-16));
#558=DIRECTION('ref_axis',(-2.22044604925031E-16,0.,1.));
#559=DIRECTION('center_axis',(1.,0.,2.22044604925031E-16));
#560=DIRECTION('ref_axis',(0.,1.,0.));
#561=DIRECTION('center_axis',(1.,0.,2.22044604925031E-16));
#562=DIRECTION('ref_axis',(2.22044604925031E-16,0.,-1.));
#563=DIRECTION('center_axis',(-1.,0.,-2.22044604925031E-16));
#564=DIRECTION('ref_axis',(-2.22044604925031E-16,0.,1.));
#565=DIRECTION('center_axis',(-1.,0.,-2.22044604925031E-16));
#566=DIRECTION('ref_axis',(0.,1.,0.));
#567=DIRECTION('center_axis',(1.,0.,2.22044604925031E-16));
#568=DIRECTION('ref_axis',(0.,0.,1.));
#569=DIRECTION('center_axis',(0.,1.,0.));
#570=DIRECTION('ref_axis',(0.,0.,-1.));
#571=DIRECTION('center_axis',(-1.,0.,-2.22044604925031E-16));
#572=DIRECTION('ref_axis',(-2.22044604925031E-16,0.,1.));
#573=DIRECTION('center_axis',(-1.,0.,-2.22044604925031E-16));
#574=DIRECTION('ref_axis',(-2.22044604925031E-16,0.,1.));
#575=DIRECTION('center_axis',(1.,0.,2.22044604925031E-16));
#576=DIRECTION('ref_axis',(2.22044604925031E-16,0.,-1.));
#577=DIRECTION('center_axis',(1.,0.,2.22044604925031E-16));
#578=DIRECTION('ref_axis',(-2.22044604925031E-16,0.,1.));
#579=DIRECTION('',(1.,0.,2.22044604925031E-16));
#580=DIRECTION('center_axis',(-1.,0.,-2.22044604925031E-16));
#581=DIRECTION('ref_axis',(0.,0.,-1.));
#582=DIRECTION('center_axis',(0.,1.,0.));
#583=DIRECTION('ref_axis',(0.,0.,1.));
#584=DIRECTION('center_axis',(1.,0.,0.));
#585=DIRECTION('ref_axis',(0.,1.,0.));
#586=DIRECTION('',(-1.,0.,0.));
#587=DIRECTION('center_axis',(1.,0.,0.));
#588=DIRECTION('ref_axis',(0.,1.,0.));
#589=DIRECTION('center_axis',(1.,0.,0.));
#590=DIRECTION('ref_axis',(0.,1.,0.));
#591=DIRECTION('',(-1.,0.,0.));
#592=DIRECTION('center_axis',(-1.,0.,0.));
#593=DIRECTION('ref_axis',(0.,1.,0.));
#594=DIRECTION('center_axis',(1.,0.,0.));
#595=DIRECTION('ref_axis',(0.,1.,0.));
#596=DIRECTION('center_axis',(1.,0.,0.));
#597=DIRECTION('ref_axis',(0.,1.,0.));
#598=DIRECTION('',(-1.,0.,0.));
#599=DIRECTION('center_axis',(-1.,0.,0.));
#600=DIRECTION('ref_axis',(0.,-1.,0.));
#601=DIRECTION('center_axis',(0.,0.,-1.));
#602=DIRECTION('ref_axis',(0.,1.,0.));
#603=DIRECTION('center_axis',(1.,0.,0.));
#604=DIRECTION('ref_axis',(0.,1.,0.));
#605=DIRECTION('center_axis',(0.,1.,0.));
#606=DIRECTION('ref_axis',(-0.707106781186548,0.,0.707106781186547));
#607=DIRECTION('',(0.,1.,0.));
#608=DIRECTION('center_axis',(0.,-1.,0.));
#609=DIRECTION('ref_axis',(0.,0.,1.));
#610=DIRECTION('',(0.,-1.,0.));
#611=DIRECTION('center_axis',(1.,0.,0.));
#612=DIRECTION('ref_axis',(0.,0.,1.));
#613=DIRECTION('center_axis',(1.,0.,0.));
#614=DIRECTION('ref_axis',(0.,-0.528204897002203,-0.849116945292515));
#615=DIRECTION('center_axis',(-1.,0.,0.));
#616=DIRECTION('ref_axis',(0.,-0.528204897002203,-0.849116945292515));
#617=DIRECTION('center_axis',(1.,0.,0.));
#618=DIRECTION('ref_axis',(0.,-0.102494062300609,-0.994733616197381));
#619=DIRECTION('center_axis',(1.,0.,0.));
#620=DIRECTION('ref_axis',(0.,1.,0.));
#621=DIRECTION('center_axis',(1.,0.,0.));
#622=DIRECTION('ref_axis',(0.,0.044060825567127,-0.999028850259262));
#623=DIRECTION('center_axis',(0.,-1.,0.));
#624=DIRECTION('ref_axis',(0.707106781186548,0.,0.707106781186547));
#625=DIRECTION('',(0.,-1.,0.));
#626=DIRECTION('center_axis',(0.,1.,0.));
#627=DIRECTION('ref_axis',(0.,0.,1.));
#628=DIRECTION('',(0.,1.,0.));
#629=DIRECTION('center_axis',(-1.,0.,0.));
#630=DIRECTION('ref_axis',(0.,0.,1.));
#631=DIRECTION('center_axis',(1.,0.,0.));
#632=DIRECTION('ref_axis',(0.,-0.528204897002203,-0.849116945292515));
#633=DIRECTION('center_axis',(-1.,0.,0.));
#634=DIRECTION('ref_axis',(0.,-0.528204897002203,-0.849116945292515));
#635=DIRECTION('center_axis',(1.,0.,0.));
#636=DIRECTION('ref_axis',(0.,-0.897015457262115,-0.441999173565786));
#637=DIRECTION('',(1.,0.,0.));
#638=DIRECTION('center_axis',(0.,0.,1.));
#639=DIRECTION('ref_axis',(0.,-1.,0.));
#640=DIRECTION('',(1.,0.,0.));
#641=DIRECTION('center_axis',(1.,0.,0.));
#642=DIRECTION('ref_axis',(0.,0.044060825567127,-0.999028850259262));
#643=DIRECTION('center_axis',(1.,0.,0.));
#644=DIRECTION('ref_axis',(0.,0.044060825567127,-0.999028850259262));
#645=DIRECTION('center_axis',(1.,0.,0.));
#646=DIRECTION('ref_axis',(0.,1.,0.));
#647=CARTESIAN_POINT('',(0.,0.,0.));
#648=CARTESIAN_POINT('Origin',(0.39611320766038,25.000000372529,40.0000005960464));
#649=CARTESIAN_POINT('',(-4.60388679233962,35.4144856129247,54.2799944397605));
#650=CARTESIAN_POINT('',(-4.60388679233962,19.281507956129,23.2764073373444));
#651=CARTESIAN_POINT('Origin',(-4.60388679233962,25.000000372529,40.0000005960464));
#652=CARTESIAN_POINT('',(-0.603886792339621,23.1884929117858,22.4188127033413));
#653=CARTESIAN_POINT('Ctrl Pts',(-0.603886792339621,23.1884929117858,22.4188127033413));
#654=CARTESIAN_POINT('Ctrl Pts',(-0.642671548079284,23.1884929145538,22.4188127302048));
#655=CARTESIAN_POINT('Ctrl Pts',(-0.681456305288332,23.1879317832704,22.4188704930192));
#656=CARTESIAN_POINT('Ctrl Pts',(-1.51253724252389,23.1638767480588,22.4213513720148));
#657=CARTESIAN_POINT('Ctrl Pts',(-2.27965714498886,22.9068261581302,22.4441042590513));
#658=CARTESIAN_POINT('Ctrl Pts',(-3.34347915866863,22.1567929370533,22.5533686485387));
#659=CARTESIAN_POINT('Ctrl Pts',(-3.70052099006419,21.7855477616882,22.6150864379681));
#660=CARTESIAN_POINT('Ctrl Pts',(-4.25142135657459,20.938798759118,22.7932427889695));
#661=CARTESIAN_POINT('Ctrl Pts',(-4.44045997362523,20.4728858852723,22.9079617586462));
#662=CARTESIAN_POINT('Ctrl Pts',(-4.58092480316846,19.754659862218,23.1202286145671));
#663=CARTESIAN_POINT('Ctrl Pts',(-4.60388679233962,19.5172153936001,23.1958091565099));
#664=CARTESIAN_POINT('Ctrl Pts',(-4.60388679233962,19.2815079561289,23.2764073373444));
#665=CARTESIAN_POINT('',(5.39611320766038,23.1884929117857,22.4188127033413));
#666=CARTESIAN_POINT('',(0.39611320766038,23.1884929117858,22.4188127033413));
#667=CARTESIAN_POINT('',(5.39611320766038,35.4144856129247,54.2799944397605));
#668=CARTESIAN_POINT('Origin',(5.39611320766038,25.000000372529,40.0000005960464));
#669=CARTESIAN_POINT('',(1.39611320766038,40.8540913974942,47.8120121661255));
#670=CARTESIAN_POINT('Ctrl Pts',(1.39611320766038,40.8540913974942,47.8120121661255));
#671=CARTESIAN_POINT('Ctrl Pts',(1.39899430411419,40.8523117634774,47.8156238453249));
#672=CARTESIAN_POINT('Ctrl Pts',(1.40187540160078,40.8505308946716,47.8192349176989));
#673=CARTESIAN_POINT('Ctrl Pts',(2.54315487039917,40.1445909707839,49.2494389621015));
#674=CARTESIAN_POINT('Ctrl Pts',(3.71565080918946,39.2266984782625,50.6238975019293));
#675=CARTESIAN_POINT('Ctrl Pts',(4.88854004813266,37.5125685861623,52.5115691687564));
#676=CARTESIAN_POINT('Ctrl Pts',(5.1973974791339,36.8619339579212,53.1349215141473));
#677=CARTESIAN_POINT('Ctrl Pts',(5.37241954399638,35.9074903146579,53.9104473344406));
#678=CARTESIAN_POINT('Ctrl Pts',(5.39611320766038,35.6630603249072,54.0987074099893));
#679=CARTESIAN_POINT('Ctrl Pts',(5.39611320766038,35.4144856129247,54.2799944397605));
#680=CARTESIAN_POINT('',(-0.603886792339621,40.8540913974942,47.8120121661255));
#681=CARTESIAN_POINT('',(0.39611320766038,40.8540913974942,47.8120121661255));
#682=CARTESIAN_POINT('Ctrl Pts',(-0.603886792339621,40.8540913974942,47.8120121661255));
#683=CARTESIAN_POINT('Ctrl Pts',(-0.606655656015431,40.852381088914,47.8154831527809));
#684=CARTESIAN_POINT('Ctrl Pts',(-0.609424520614559,40.8506696398931,47.818953578927));
#685=CARTESIAN_POINT('Ctrl Pts',(-1.43711650224665,40.3387273748967,48.8561962513511));
#686=CARTESIAN_POINT('Ctrl Pts',(-2.28737679439965,39.7123900690381,49.8703540253231));
#687=CARTESIAN_POINT('Ctrl Pts',(-3.55341629296475,38.3674328033509,51.6030599825326));
#688=CARTESIAN_POINT('Ctrl Pts',(-4.04672934681893,37.6694968950695,52.37014654608));
#689=CARTESIAN_POINT('Ctrl Pts',(-4.50378331771319,36.416688536095,53.5062186840829));
#690=CARTESIAN_POINT('Ctrl Pts',(-4.60388679233859,35.9265144877568,53.9065687073713));
#691=CARTESIAN_POINT('Ctrl Pts',(-4.60388679233962,35.4144856129326,54.2799944397547));
#692=CARTESIAN_POINT('Origin',(0.39611320766038,30.8471271080529,74.7089529197058));
#693=CARTESIAN_POINT('',(-4.60388679233962,27.1653696990019,21.9893350912334));
#694=CARTESIAN_POINT('Ctrl Pts',(-0.603886792339621,23.1884929117858,22.4188127033413));
#695=CARTESIAN_POINT('Ctrl Pts',(-0.613608008862396,23.188492911791,22.4188127033766));
#696=CARTESIAN_POINT('Ctrl Pts',(-0.623329225385509,23.1885279759511,22.4188075676599));
#697=CARTESIAN_POINT('Ctrl Pts',(-1.16448357977201,23.1924319137614,22.4182357885058));
#698=CARTESIAN_POINT('Ctrl Pts',(-1.68984228569721,23.3009780116364,22.402042920887));
#699=CARTESIAN_POINT('Ctrl Pts',(-2.65678158787606,23.7110004347429,22.3445461053094));
#700=CARTESIAN_POINT('Ctrl Pts',(-3.09061302980883,24.004528085841,22.3044690162768));
#701=CARTESIAN_POINT('Ctrl Pts',(-3.82003508502242,24.7405396949431,22.213616340676));
#702=CARTESIAN_POINT('Ctrl Pts',(-4.10877632612391,25.1757926443936,22.1639166369239));
#703=CARTESIAN_POINT('Ctrl Pts',(-4.50264515393697,26.1334650741466,22.0693628819793));
#704=CARTESIAN_POINT('Ctrl Pts',(-4.60388679233962,26.6466146811492,22.0255631636119));
#705=CARTESIAN_POINT('Ctrl Pts',(-4.60388679233962,27.1653696990019,21.9893350912334));
#706=CARTESIAN_POINT('',(-4.60388679233962,33.1756545920845,21.9122541464359));
#707=CARTESIAN_POINT('Origin',(-4.60388679233962,30.8471271080529,74.7089529197058));
#708=CARTESIAN_POINT('',(5.39611320766038,33.1756545920845,21.9122541464359));
#709=CARTESIAN_POINT('',(0.39611320766038,33.1756545920845,21.9122541464359));
#710=CARTESIAN_POINT('Origin',(5.39611320766038,30.8471271080529,74.7089529197058));
#711=CARTESIAN_POINT('Origin',(36.6038867923396,25.000000372529,40.0000005960464));
#712=CARTESIAN_POINT('',(36.6038867923396,25.000000372529,37.0000005960464));
#713=CARTESIAN_POINT('Origin',(36.6038867923396,25.000000372529,40.0000005960464));
#714=CARTESIAN_POINT('',(36.6038867923396,23.000000372529,40.0000005960464));
#715=CARTESIAN_POINT('Origin',(36.6038867923396,25.000000372529,40.0000005960464));
#716=CARTESIAN_POINT('Origin',(44.6038867923396,25.000000372529,40.0000005960464));
#717=CARTESIAN_POINT('',(44.6038867923396,25.000000372529,43.0000005960464));
#718=CARTESIAN_POINT('Origin',(44.6038867923396,25.000000372529,40.0000005960464));
#719=CARTESIAN_POINT('',(44.6038867923396,23.000000372529,40.0000005960464));
#720=CARTESIAN_POINT('Origin',(44.6038867923396,25.000000372529,40.0000005960464));
#721=CARTESIAN_POINT('Origin',(38.6038867923396,25.000000372529,40.0000005960464));
#722=CARTESIAN_POINT('',(38.6038867923396,25.000000372529,35.0000005960464));
#723=CARTESIAN_POINT('Origin',(38.6038867923396,25.000000372529,37.0000005960464));
#724=CARTESIAN_POINT('',(38.6038867923396,25.000000372529,45.0000005960464));
#725=CARTESIAN_POINT('Origin',(38.6038867923396,25.000000372529,40.0000005960464));
#726=CARTESIAN_POINT('Origin',(38.6038867923396,25.000000372529,40.0000005960464));
#727=CARTESIAN_POINT('Origin',(40.6038867923396,25.000000372529,40.0000005960464));
#728=CARTESIAN_POINT('',(42.6038867923396,25.000000372529,45.0000005960464));
#729=CARTESIAN_POINT('Origin',(42.6038867923396,25.000000372529,40.0000005960464));
#730=CARTESIAN_POINT('',(40.6038867923396,25.000000372529,45.0000005960464));
#731=CARTESIAN_POINT('Origin',(42.6038867923396,25.000000372529,40.0000005960464));
#732=CARTESIAN_POINT('Origin',(42.6038867923396,25.000000372529,43.0000005960464));
#733=CARTESIAN_POINT('Origin',(0.39611320766038,25.000000372529,40.0000005960464));
#734=CARTESIAN_POINT('',(65.,23.000000372529,40.0000005960464));
#735=CARTESIAN_POINT('',(65.,27.000000372529,40.0000005960464));
#736=CARTESIAN_POINT('Origin',(65.,25.000000372529,40.0000005960464));
#737=CARTESIAN_POINT('',(0.39611320766038,23.000000372529,40.0000005960464));
#738=CARTESIAN_POINT('Origin',(65.,25.000000372529,40.0000005960464));
#739=CARTESIAN_POINT('Origin',(-36.6038867923396,25.000000372529,40.0000005960464));
#740=CARTESIAN_POINT('',(-36.6038867923396,25.000000372529,37.0000005960464));
#741=CARTESIAN_POINT('Origin',(-36.6038867923396,25.000000372529,40.0000005960464));
#742=CARTESIAN_POINT('',(-36.6038867923396,23.000000372529,40.0000005960464));
#743=CARTESIAN_POINT('Origin',(-36.6038867923396,25.000000372529,40.0000005960464));
#744=CARTESIAN_POINT('Origin',(-44.6038867923396,25.000000372529,40.0000005960464));
#745=CARTESIAN_POINT('',(-44.6038867923396,25.000000372529,43.0000005960464));
#746=CARTESIAN_POINT('Origin',(-44.6038867923396,25.000000372529,40.0000005960464));
#747=CARTESIAN_POINT('',(-44.6038867923396,23.000000372529,40.0000005960464));
#748=CARTESIAN_POINT('Origin',(-44.6038867923396,25.000000372529,40.0000005960464));
#749=CARTESIAN_POINT('Origin',(-38.6038867923396,25.000000372529,40.0000005960464));
#750=CARTESIAN_POINT('',(-38.6038867923396,25.000000372529,35.0000005960464));
#751=CARTESIAN_POINT('Origin',(-38.6038867923396,25.000000372529,37.0000005960464));
#752=CARTESIAN_POINT('',(-38.6038867923396,25.000000372529,45.0000005960464));
#753=CARTESIAN_POINT('Origin',(-38.6038867923396,25.000000372529,40.0000005960464));
#754=CARTESIAN_POINT('Origin',(-38.6038867923396,25.000000372529,40.0000005960464));
#755=CARTESIAN_POINT('Origin',(-40.6038867923396,25.000000372529,40.0000005960464));
#756=CARTESIAN_POINT('',(-42.6038867923396,25.000000372529,45.0000005960464));
#757=CARTESIAN_POINT('Origin',(-42.6038867923396,25.000000372529,40.0000005960464));
#758=CARTESIAN_POINT('',(-40.6038867923396,25.000000372529,45.0000005960464));
#759=CARTESIAN_POINT('Origin',(-42.6038867923396,25.000000372529,40.0000005960464));
#760=CARTESIAN_POINT('Origin',(-42.6038867923396,25.000000372529,43.0000005960464));
#761=CARTESIAN_POINT('Origin',(0.39611320766038,25.000000372529,40.0000005960464));
#762=CARTESIAN_POINT('',(-56.2077735846792,23.000000372529,40.0000005960464));
#763=CARTESIAN_POINT('',(0.39611320766038,23.000000372529,40.0000005960464));
#764=CARTESIAN_POINT('Origin',(-56.2077735846792,25.000000372529,40.0000005960464));
#765=CARTESIAN_POINT('Origin',(0.39611320766038,25.000000372529,40.0000005960464));
#766=CARTESIAN_POINT('',(5.39611320766038,23.000000372529,40.0000005960464));
#767=CARTESIAN_POINT('',(0.39611320766038,23.000000372529,40.0000005960464));
#768=CARTESIAN_POINT('Origin',(5.39611320766038,25.000000372529,40.0000005960464));
#769=CARTESIAN_POINT('Origin',(0.39611320766038,25.000000372529,40.0000005960464));
#770=CARTESIAN_POINT('',(-4.60388679233962,23.000000372529,40.0000005960464));
#771=CARTESIAN_POINT('Origin',(-4.60388679233962,25.000000372529,40.0000005960464));
#772=CARTESIAN_POINT('',(0.39611320766038,23.000000372529,40.0000005960464));
#773=CARTESIAN_POINT('Origin',(65.,25.000000372529,40.0000005960464));
#774=CARTESIAN_POINT('',(67.,25.000000372529,40.0000005960464));
#775=CARTESIAN_POINT('Origin',(65.,25.000000372529,40.0000005960464));
#776=CARTESIAN_POINT('Origin',(-56.2077735846792,25.000000372529,40.0000005960464));
#777=CARTESIAN_POINT('Origin',(-0.603886792339621,43.1590785706085,36.0000005960464));
#778=CARTESIAN_POINT('',(-4.60388679233962,53.6715964534411,36.0000005960464));
#779=CARTESIAN_POINT('',(-0.603886792339621,55.000000372529,40.0000005960464));
#780=CARTESIAN_POINT('Ctrl Pts',(-4.60388679233962,53.6715964534411,36.0000005960464));
#781=CARTESIAN_POINT('Ctrl Pts',(-4.60388679233962,53.8851981177435,36.4907711802698));
#782=CARTESIAN_POINT('Ctrl Pts',(-4.50780310148348,54.095758079455,37.0252628493928));
#783=CARTESIAN_POINT('Ctrl Pts',(-4.09607080636278,54.4498197488788,38.0239513575039));
#784=CARTESIAN_POINT('Ctrl Pts',(-3.77989236840994,54.5942186711289,38.4876113299925));
#785=CARTESIAN_POINT('Ctrl Pts',(-3.0558982904524,54.7994140451834,39.1980420706041));
#786=CARTESIAN_POINT('Ctrl Pts',(-2.61189982122463,54.8775243042353,39.4994773339706));
#787=CARTESIAN_POINT('Ctrl Pts',(-1.63568151271229,54.9773266729194,39.9004947261429));
#788=CARTESIAN_POINT('Ctrl Pts',(-1.10353094829331,55.000000372529,40.0000005960464));
#789=CARTESIAN_POINT('Ctrl Pts',(-0.603886792339621,55.000000372529,40.0000005960464));
#790=CARTESIAN_POINT('',(-4.60388679233962,53.4123077991639,36.0000005960464));
#791=CARTESIAN_POINT('',(-4.60388679233962,43.1590785706085,36.0000005960464));
#792=CARTESIAN_POINT('',(-0.603886792339621,53.4123077991639,40.0000005960464));
#793=CARTESIAN_POINT('Origin',(-0.603886792339621,53.4123077991639,36.0000005960464));
#794=CARTESIAN_POINT('',(-0.603886792339621,43.1590785706085,40.0000005960464));
#795=CARTESIAN_POINT('Origin',(-0.603886792339621,53.4123077991639,54.0000005960465));
#796=CARTESIAN_POINT('Origin',(-4.60388679233962,53.4123077991639,54.0000005960465));
#797=CARTESIAN_POINT('Origin',(-0.603886792339621,53.4123077991639,54.0000005960465));
#798=CARTESIAN_POINT('Ctrl Pts',(-0.603886792339621,23.1884929117858,22.4188127033413));
#799=CARTESIAN_POINT('Ctrl Pts',(-0.603886792339621,23.1884929117858,22.4188127033413));
#800=CARTESIAN_POINT('Ctrl Pts',(-0.603886792339621,23.1884929117858,22.4188127033413));
#801=CARTESIAN_POINT('Ctrl Pts',(-0.603886792339621,23.1884929117858,22.4188127033413));
#802=CARTESIAN_POINT('Ctrl Pts',(-0.603886792339621,23.1884929117858,22.4188127033413));
#803=CARTESIAN_POINT('Ctrl Pts',(-0.603886792339621,23.1884929117858,22.4188127033413));
#804=CARTESIAN_POINT('Ctrl Pts',(-0.603886792339621,23.1884929117858,22.4188127033413));
#805=CARTESIAN_POINT('Ctrl Pts',(-4.60388679233967,23.1884929117858,22.4188127033413));
#806=CARTESIAN_POINT('Ctrl Pts',(-4.60388679233967,23.1884929117858,22.4188127033413));
#807=CARTESIAN_POINT('Ctrl Pts',(-4.60388679233967,23.1884929117858,22.4188127033413));
#808=CARTESIAN_POINT('Ctrl Pts',(-4.60388679233967,23.1884929117858,22.4188127033413));
#809=CARTESIAN_POINT('Ctrl Pts',(-4.60388679233967,23.1884929117858,22.4188127033413));
#810=CARTESIAN_POINT('Ctrl Pts',(-4.60388679233967,23.1884929117858,22.4188127033413));
#811=CARTESIAN_POINT('Ctrl Pts',(-4.60388679233967,23.1884929117858,22.4188127033413));
#812=CARTESIAN_POINT('Ctrl Pts',(-4.60388679233962,27.1462657868663,21.8391284192026));
#813=CARTESIAN_POINT('Ctrl Pts',(-4.60388679233962,27.4864963095811,24.1620396502285));
#814=CARTESIAN_POINT('Ctrl Pts',(-4.60388679233962,25.6242769766419,25.5916593730361));
#815=CARTESIAN_POINT('Ctrl Pts',(-4.60388679233962,23.7620576437027,27.0212790958437));
#816=CARTESIAN_POINT('Ctrl Pts',(-4.60388679233962,21.6059233358088,26.0924312923067));
#817=CARTESIAN_POINT('Ctrl Pts',(-4.60388679233962,19.4497890279148,25.1635834887696));
#818=CARTESIAN_POINT('Ctrl Pts',(-4.60388679233962,19.2094996059482,22.8282174811589));
#819=CARTESIAN_POINT('Origin',(-4.60388679233962,23.1884929117858,22.4188127033413));
#820=CARTESIAN_POINT('Origin',(-4.60388679233962,31.318156768688,39.7675993838006));
#821=CARTESIAN_POINT('Origin',(-4.60388679233962,32.1410424912972,45.3709007834387));
#822=CARTESIAN_POINT('Origin',(1.39611320766038,43.1590785706085,36.0000005960464));
#823=CARTESIAN_POINT('',(5.39611320766038,53.6715964534411,36.0000005960464));
#824=CARTESIAN_POINT('',(1.39611320766038,55.000000372529,40.0000005960464));
#825=CARTESIAN_POINT('Ctrl Pts',(5.39611320766038,53.6715964534411,36.0000005960464));
#826=CARTESIAN_POINT('Ctrl Pts',(5.39611320766038,53.8851981177435,36.4907711802698));
#827=CARTESIAN_POINT('Ctrl Pts',(5.30002951680424,54.095758079455,37.0252628493928));
#828=CARTESIAN_POINT('Ctrl Pts',(4.88829722168354,54.4498197488788,38.0239513575039));
#829=CARTESIAN_POINT('Ctrl Pts',(4.5721187837307,54.5942186711289,38.4876113299925));
#830=CARTESIAN_POINT('Ctrl Pts',(3.84812470577316,54.7994140451834,39.1980420706041));
#831=CARTESIAN_POINT('Ctrl Pts',(3.40412623654539,54.8775243042353,39.4994773339706));
#832=CARTESIAN_POINT('Ctrl Pts',(2.42790792803305,54.9773266729194,39.9004947261429));
#833=CARTESIAN_POINT('Ctrl Pts',(1.89575736361407,55.000000372529,40.0000005960464));
#834=CARTESIAN_POINT('Ctrl Pts',(1.39611320766038,55.000000372529,40.0000005960464));
#835=CARTESIAN_POINT('',(1.39611320766038,53.4123077991639,40.0000005960464));
#836=CARTESIAN_POINT('',(1.39611320766038,43.1590785706085,40.0000005960464));
#837=CARTESIAN_POINT('',(5.39611320766038,53.4123077991639,36.0000005960464));
#838=CARTESIAN_POINT('Origin',(1.39611320766038,53.4123077991639,36.0000005960464));
#839=CARTESIAN_POINT('',(5.39611320766038,43.1590785706085,36.0000005960464));
#840=CARTESIAN_POINT('Origin',(1.39611320766038,53.4123077991639,54.0000005960465));
#841=CARTESIAN_POINT('Origin',(5.39611320766038,53.4123077991639,54.0000005960465));
#842=CARTESIAN_POINT('Origin',(1.39611320766038,53.4123077991639,54.0000005960465));
#843=CARTESIAN_POINT('Origin',(0.39611320766038,53.4123077991639,54.0000005960465));
#844=CARTESIAN_POINT('',(0.39611320766038,53.4123077991639,40.0000005960464));
#845=CARTESIAN_POINT('Origin',(0.39611320766038,55.000000372529,40.0000005960464));
#846=CARTESIAN_POINT('',(0.39611320766038,55.000000372529,40.0000005960464));
#847=CARTESIAN_POINT('Origin',(0.39611320766038,32.1410424912972,45.3709007834387));
#848=CARTESIAN_POINT('Origin',(5.39611320766038,32.1410424912972,45.3709007834387));
#849=CARTESIAN_POINT('Origin',(5.39611320766038,31.318156768688,39.7675993838006));
#850=UNCERTAINTY_MEASURE_WITH_UNIT(LENGTH_MEASURE(0.01),#854,
'DISTANCE_ACCURACY_VALUE',
'Maximum model space distance between geometric entities at asserted c
onnectivities');
#851=UNCERTAINTY_MEASURE_WITH_UNIT(LENGTH_MEASURE(0.01),#854,
'DISTANCE_ACCURACY_VALUE',
'Maximum model space distance between geometric entities at asserted c
onnectivities');
#852=(
GEOMETRIC_REPRESENTATION_CONTEXT(3)
GLOBAL_UNCERTAINTY_ASSIGNED_CONTEXT((#850))
GLOBAL_UNIT_ASSIGNED_CONTEXT((#854,#856,#857))
REPRESENTATION_CONTEXT('','3D')
);
#853=(
GEOMETRIC_REPRESENTATION_CONTEXT(3)
GLOBAL_UNCERTAINTY_ASSIGNED_CONTEXT((#851))
GLOBAL_UNIT_ASSIGNED_CONTEXT((#854,#856,#857))
REPRESENTATION_CONTEXT('','3D')
);
#854=(
LENGTH_UNIT()
NAMED_UNIT(*)
SI_UNIT(.MILLI.,.METRE.)
);
#855=(
LENGTH_UNIT()
NAMED_UNIT(*)
SI_UNIT($,.METRE.)
);
#856=(
NAMED_UNIT(*)
PLANE_ANGLE_UNIT()
SI_UNIT($,.RADIAN.)
);
#857=(
NAMED_UNIT(*)
SI_UNIT($,.STERADIAN.)
SOLID_ANGLE_UNIT()
);
#858=SHAPE_DEFINITION_REPRESENTATION(#859,#860);
#859=PRODUCT_DEFINITION_SHAPE('',$,#862);
#860=SHAPE_REPRESENTATION('',(#437),#852);
#861=PRODUCT_DEFINITION_CONTEXT('part definition',#866,'design');
#862=PRODUCT_DEFINITION('Leva','Leva',#863,#861);
#863=PRODUCT_DEFINITION_FORMATION('',$,#868);
#864=PRODUCT_RELATED_PRODUCT_CATEGORY('Leva','Leva',(#868));
#865=APPLICATION_PROTOCOL_DEFINITION('international standard',
'automotive_design',2009,#866);
#866=APPLICATION_CONTEXT(
'Core Data for Automotive Mechanical Design Process');
#867=PRODUCT_CONTEXT('part definition',#866,'mechanical');
#868=PRODUCT('Leva','Leva',$,(#867));
#869=PRESENTATION_STYLE_ASSIGNMENT((#870));
#870=SURFACE_STYLE_USAGE(.BOTH.,#871);
#871=SURFACE_SIDE_STYLE('',(#872));
#872=SURFACE_STYLE_FILL_AREA(#873);
#873=FILL_AREA_STYLE('Steel - Satin',(#874));
#874=FILL_AREA_STYLE_COLOUR('Steel - Satin',#875);
#875=COLOUR_RGB('Steel - Satin',0.627450980392157,0.627450980392157,0.627450980392157);
ENDSEC;
END-ISO-10303-21;
